<svg width="536" height="410" viewBox="0 0 536 410" fill="none" xmlns="http://www.w3.org/2000/svg">
<path d="M485.64 0C504.31 17.44 499.81 33.52 492.18 69.09C484.55 104.66 479.24 127.82 481.55 151.8C483.87 175.78 494.92 210.72 518.04 252.53C541.16 294.34 541.97 321.66 518.04 341.58C494.11 361.5 417.96 396.07 398.26 410H187.82C187.82 410 100.57 330.09 71.59 288.9C42.61 247.71 0 190.6 0 129.24C0 67.88 57.95 30.38 73.58 22.71C89.21 15.04 114.3 6.53 157.5 11.32C200.7 16.11 238.95 29.62 278.68 23.52C318.41 17.42 342.82 1.23 357.82 0.00999832H485.64V0Z" fill="#F2FBFF"/>
<path d="M373.13 25.4016C422.14 47.8016 428.75 101.222 426.18 120.672C423.61 140.132 408.06 178.452 401.37 199.912C394.68 221.372 397.03 255.062 399.89 270.752C402.75 286.442 416.58 363.102 375.75 384.972C362.83 391.892 313.22 356.822 266.83 356.822C220.44 356.822 201.73 379.602 166.62 376.142C131.5 372.682 127.03 318.762 119.7 298.022C112.37 277.292 87.24 216.772 89.34 184.312C91.43 151.852 128.5 120.022 171.01 91.1216C213.52 62.2216 269.91 27.2816 315.71 21.1816C353.41 16.1516 373.13 25.4016 373.13 25.4016Z" fill="#D9F4FF"/>
<path d="M336.12 143.082C340.94 132.232 335.46 122.632 327.01 126.212C320.05 129.162 336.48 98.9616 312.55 86.7016C307.06 83.8916 304.11 89.1116 303.31 90.9916C302.51 92.8616 299.02 94.8716 296.48 87.3716C293.94 79.8716 280.31 57.1416 269.7 57.1016C262.47 57.0716 265.33 74.6816 251.35 78.5316C245.99 80.0016 233.81 62.0616 225.91 66.4816C218.01 70.9016 219.35 76.2616 217.21 91.9216C215.07 107.592 205.96 101.292 204.22 100.092C202.48 98.8816 193.24 99.6916 192.3 118.842L200.34 137.452L213.6 133.572L223.11 117.232L243.2 114.282L294.76 118.032L308.55 130.752L316.32 157.272L328.51 150.172L336.12 143.082Z" fill="#E66727"/>
<path d="M315.85 158.412L307.87 131.172L294.42 118.772L243.2 115.042L223.55 117.922L214.07 134.202L199.89 138.352L191.52 118.972L191.53 118.802C192.19 105.372 196.9 101.092 199.64 99.7416C201.79 98.6816 203.73 98.8616 204.62 99.4816C207.52 101.492 209.96 102.082 211.86 101.242C214.19 100.222 215.73 97.0516 216.44 91.8216C216.88 88.6416 217.17 85.8916 217.42 83.4616C218.43 73.8916 218.89 69.5316 225.52 65.8216C230.52 63.0216 236.72 68.0816 242.18 72.5516C245.65 75.3916 249.24 78.3216 251.13 77.8016C258.7 75.7216 261.13 69.3016 263.08 64.1416C264.66 59.9616 266.03 56.3516 269.66 56.3516C269.67 56.3516 269.67 56.3516 269.68 56.3516C280.7 56.3916 294.58 79.4816 297.17 87.1216C298.2 90.1516 299.52 91.9116 300.81 91.9616C300.83 91.9616 300.85 91.9616 300.87 91.9616C301.65 91.9616 302.33 91.3216 302.6 90.6816C303.01 89.7216 304.57 86.5316 307.5 85.4716C309.17 84.8716 310.98 85.0516 312.87 86.0216C329.17 94.3716 327.26 110.962 326.23 119.872C325.95 122.282 325.61 125.272 326.1 125.642C326.11 125.652 326.29 125.682 326.7 125.512C330.14 124.062 333.43 124.572 335.73 126.912C339.18 130.422 339.6 137.042 336.78 143.382L336.72 143.522L328.84 150.822L315.85 158.412ZM243.15 113.542L295.05 117.312L309.19 130.352L316.75 156.152L328.04 149.582L335.5 142.642C338.39 136.022 337.18 130.512 334.69 127.972C332.81 126.062 330.19 125.682 327.31 126.902C326.46 127.262 325.76 127.252 325.23 126.852C324.05 125.972 324.32 123.612 324.77 119.712C325.82 110.562 327.59 95.2416 312.21 87.3716C310.7 86.6016 309.3 86.4416 308.03 86.8916C305.67 87.7416 304.35 90.4616 304 91.2816C303.53 92.3716 302.33 93.5016 300.78 93.4716C299.39 93.4216 297.38 92.3516 295.78 87.6116C293.35 80.4516 279.85 57.8916 269.7 57.8516H269.69C267.22 57.8516 266.11 60.4416 264.51 64.6716C262.44 70.1516 259.86 76.9616 251.55 79.2516C248.91 79.9616 245.36 77.0716 241.25 73.7116C236.16 69.5516 230.39 64.8316 226.27 67.1316C220.32 70.4616 219.91 74.3116 218.93 83.6216C218.67 86.0616 218.38 88.8216 217.94 92.0216C217.15 97.8016 215.31 101.362 212.47 102.612C210.06 103.672 207.13 103.032 203.78 100.702C203.43 100.462 202.07 100.212 200.32 101.082C197.88 102.282 193.7 106.172 193.05 118.702L200.75 136.542L213.08 132.932L222.62 116.542L243.15 113.542Z" fill="#853313"/>
<path d="M305.11 190.862C314.24 187.592 336.11 171.772 336.11 143.092C336.11 134.182 324.73 141.402 322.82 142.492C320.91 143.582 317.64 141.942 316.55 123.692C315.46 105.432 312.73 101.212 308.51 101.752C304.29 102.302 302.97 109.332 300.33 109.792C294.88 110.742 288.57 100.042 285.48 91.802C282.62 84.172 277.99 80.082 274.58 80.082C271.17 80.082 266.28 85.462 261.91 96.022C258.55 104.132 251.59 103.502 250.12 103.502C248.65 103.502 240.53 101.502 235.99 89.582C234.3 85.152 224.32 94.642 221.16 105.542C218 116.442 214.13 128.522 209.56 127.612C204.99 126.702 204.92 119.952 199.86 117.002C194.8 114.052 192.28 118.852 192.28 118.852C192.28 118.852 186.81 148.052 204.67 168.622L222.94 179.042L247.57 189.732L272.87 194.602L305.11 190.862Z" fill="#B15928"/>
<path d="M272.85 195.352L272.74 195.332L247.28 190.412L222.65 179.722L204.11 169.102C186.22 148.502 191.49 119.002 191.55 118.702L191.62 118.492C191.67 118.402 192.86 116.172 195.27 115.482C196.83 115.032 198.5 115.322 200.24 116.342C202.84 117.852 204.19 120.272 205.39 122.412C206.61 124.582 207.66 126.462 209.71 126.872C213.94 127.692 218.33 112.592 220.44 105.332C223.09 96.2025 230.42 87.8825 234.34 87.7225C235.45 87.6625 236.29 88.2425 236.7 89.3125C241.52 101.952 250.04 102.742 250.13 102.742H250.45C252.38 102.782 258.26 102.902 261.23 95.7225C265.48 85.4525 270.48 79.3125 274.59 79.3125C278.09 79.3125 283.03 83.0825 286.19 91.5225C289.6 100.602 295.68 109.823 300.21 109.033C301.03 108.893 301.91 107.462 302.76 106.092C304.13 103.862 305.69 101.342 308.42 100.992C309.88 100.802 311.11 101.132 312.15 101.992C315 104.352 316.54 110.822 317.3 123.622C318.19 138.532 320.51 141.342 321.46 141.862C321.66 141.972 321.98 142.082 322.44 141.822L322.84 141.592C326.52 139.432 331.76 136.752 334.79 138.482C336.16 139.262 336.85 140.812 336.85 143.072C336.85 171.182 315.63 187.872 305.35 191.552L305.18 191.592L272.85 195.352ZM247.8 189.002L272.91 193.832L304.94 190.122C314.92 186.502 335.37 170.322 335.37 143.082C335.37 141.392 334.93 140.292 334.06 139.792C332.32 138.792 328.8 139.842 323.61 142.892L323.2 143.132C322.4 143.592 321.53 143.612 320.76 143.192C318.13 141.772 316.51 135.402 315.81 123.722C315.09 111.702 313.63 105.162 311.2 103.152C310.48 102.562 309.66 102.342 308.62 102.482C306.6 102.742 305.24 104.942 304.04 106.882C302.97 108.612 301.96 110.252 300.48 110.512C293.98 111.672 287.38 98.9325 284.8 92.0525C282.04 84.6825 277.58 80.8225 274.6 80.8225C271.83 80.8225 267.05 85.6125 262.62 96.3025C260.39 101.692 256.28 104.392 250.42 104.252H250.13C248.16 104.252 239.86 101.812 235.3 89.8525C235.12 89.3825 234.86 89.2025 234.41 89.2225C231.4 89.3425 224.45 96.9625 221.89 105.752C218.41 117.752 214.57 129.362 209.43 128.352C206.71 127.812 205.44 125.552 204.1 123.152C202.94 121.092 201.75 118.952 199.5 117.652C198.13 116.852 196.85 116.612 195.71 116.932C194.16 117.372 193.24 118.742 193.01 119.112C192.66 121.182 188.43 148.653 205.17 168.033L223.33 178.392L247.8 189.002Z" fill="#853313"/>
<path d="M288.89 209.23C290.22 211.46 296.68 212.29 302.35 205C308.02 197.71 306.57 190.72 303.5 188.41C300.36 186.06 295.77 187.26 294.47 188.65" fill="#F0C298"/>
<path d="M292.6 211.562C292.43 211.562 292.27 211.552 292.13 211.552C290.35 211.442 288.9 210.722 288.25 209.622C288.04 209.262 288.16 208.802 288.51 208.592C288.86 208.382 289.33 208.502 289.54 208.852C289.93 209.502 290.98 209.972 292.23 210.052C295.39 210.252 298.93 208.192 301.76 204.542C305.52 199.702 305.64 195.602 305.36 193.592C305.09 191.592 304.25 189.922 303.04 189.022C300.2 186.892 296.02 188.092 295.01 189.172C294.73 189.472 294.25 189.492 293.95 189.212C293.65 188.932 293.63 188.452 293.91 188.152C295.39 186.562 300.44 185.202 303.94 187.822C305.46 188.962 306.52 190.992 306.84 193.392C307.14 195.642 307.03 200.192 302.93 205.462C298.78 210.812 294.6 211.562 292.6 211.562Z" fill="#B36334"/>
<path d="M253.1 224.901C267.26 225.411 268.99 224.821 280.12 218.241C291.25 211.661 293.94 196.911 294.41 192.101C294.88 187.291 292.74 178.731 300.07 169.271C307.4 159.811 308 140.221 308 140.221C308 140.221 302.12 132.401 297.86 128.491C286.41 117.991 258.19 122.481 246.68 123.671C235.17 124.861 228.35 118.191 228.35 118.191C217.95 129.621 218.99 157.311 219.15 173.661C219.15 173.661 215.2 164.771 207.92 166.671C200.64 168.571 200.22 181.431 201.86 187.071C203.49 192.711 210.45 201.411 217.46 194.821C217.46 194.821 219.52 206.771 227.17 213.141C227.17 213.141 227.91 218.081 224.26 226.961L222.53 231.251L238.32 241.811L258.41 241.421L266.91 235.941L266.23 224.551" fill="#F0C298"/>
<path d="M238.08 242.573L237.88 242.443L221.58 231.543L223.53 226.683C226.58 219.263 226.5 214.643 226.42 213.523C220.21 208.193 217.7 199.463 216.95 196.213C214.84 197.793 212.54 198.303 210.25 197.673C205.92 196.493 202.31 191.433 201.11 187.283C199.99 183.403 199.68 175.273 202.6 170.133C203.87 167.903 205.58 166.493 207.7 165.943C212.86 164.603 216.47 168.233 218.33 170.873V170.543C218.12 153.853 217.81 128.633 227.77 117.683L228.29 117.113L228.85 117.653C228.92 117.713 235.58 124.063 246.58 122.923C247.68 122.813 248.93 122.663 250.3 122.503C263.38 120.993 287.74 118.203 298.34 127.923C302.6 131.833 308.33 139.433 308.57 139.753L308.73 139.963L308.72 140.223C308.69 141.033 308.03 160.163 300.64 169.703C295.03 176.953 295.13 183.653 295.2 188.533C295.22 189.903 295.24 191.093 295.14 192.143C294.83 195.343 292.67 211.643 280.49 218.853C274.4 222.453 270.97 224.283 266.99 225.123L267.66 236.303L258.62 242.143L238.08 242.573ZM223.43 230.973L238.52 241.063L258.16 240.673L266.11 235.543L265.51 225.413C262.37 225.883 258.68 225.843 253.07 225.643C252.66 225.623 252.33 225.283 252.35 224.863C252.36 224.443 252.7 224.123 253.13 224.143C267.3 224.653 268.96 223.963 279.74 217.583C291.29 210.753 293.36 195.093 293.66 192.023C293.75 191.043 293.74 189.903 293.72 188.573C293.64 183.463 293.54 176.463 299.47 168.803C306.11 160.223 307.12 142.803 307.23 140.453C306.26 139.183 301.12 132.493 297.34 129.033C287.24 119.763 263.33 122.513 250.48 123.993C249.1 124.153 247.84 124.293 246.74 124.413C236.81 125.443 230.33 120.853 228.4 119.253C219.34 130.063 219.64 154.353 219.84 170.533L219.91 177.263L218.44 173.973C218.29 173.633 214.66 165.683 208.09 167.403C206.38 167.853 204.97 169.023 203.91 170.883C201.21 175.643 201.5 183.233 202.56 186.873C203.66 190.683 207 195.233 210.66 196.233C212.82 196.823 214.93 196.163 216.93 194.283L217.95 193.333L218.19 194.703C218.21 194.823 220.29 206.463 227.64 212.573L227.86 212.753L227.9 213.033C227.93 213.243 228.63 218.273 224.94 227.253L223.43 230.973Z" fill="#B36334"/>
<path d="M231.82 216.631C231.82 216.631 228.64 214.511 227.15 213.141L231.82 216.631Z" fill="#F0C298"/>
<path d="M231.82 217.381C231.68 217.381 231.53 217.341 231.4 217.251C231.27 217.161 228.15 215.081 226.64 213.681C226.34 213.401 226.32 212.921 226.6 212.621C226.88 212.321 227.36 212.301 227.66 212.581C229.09 213.901 232.21 215.981 232.24 216.001C232.58 216.231 232.68 216.701 232.45 217.041C232.3 217.271 232.06 217.381 231.82 217.381Z" fill="#B36334"/>
<path d="M207.02 173.732C211.4 173.002 216.42 177.862 217.07 187.992L207.02 173.732Z" fill="#F0C298"/>
<path d="M217.06 188.741C216.67 188.741 216.34 188.441 216.31 188.041C215.95 182.441 214.15 177.961 211.36 175.751C210.01 174.681 208.56 174.241 207.14 174.481C206.73 174.541 206.35 174.271 206.28 173.861C206.21 173.451 206.49 173.071 206.9 173.001C208.72 172.701 210.64 173.261 212.3 174.581C215.42 177.061 217.43 181.931 217.82 187.951C217.85 188.361 217.53 188.721 217.12 188.751C217.1 188.741 217.08 188.741 217.06 188.741Z" fill="#B36334"/>
<path d="M205.15 181.832C205.39 184.752 206.85 189.452 210.09 190.742L205.15 181.832Z" fill="#F0C298"/>
<path d="M210.1 191.492C210.01 191.492 209.91 191.472 209.82 191.442C206.04 189.932 204.63 184.542 204.41 181.892C204.38 181.482 204.68 181.112 205.1 181.082C205.52 181.042 205.88 181.352 205.91 181.762C206.13 184.462 207.51 188.892 210.38 190.042C210.76 190.192 210.95 190.632 210.8 191.012C210.67 191.312 210.39 191.492 210.1 191.492Z" fill="#B36334"/>
<path d="M210.82 186.293C210.17 182.893 213.43 179.973 215.97 181.833L210.82 186.293Z" fill="#F0C298"/>
<path d="M210.82 187.043C210.47 187.043 210.15 186.793 210.08 186.433C209.68 184.323 210.55 182.183 212.26 181.113C213.6 180.263 215.15 180.313 216.42 181.233C216.75 181.483 216.83 181.943 216.58 182.283C216.33 182.613 215.87 182.693 215.53 182.443C214.49 181.683 213.54 182.073 213.06 182.383C212.1 182.983 211.23 184.423 211.55 186.153C211.63 186.563 211.36 186.953 210.95 187.033C210.92 187.033 210.87 187.043 210.82 187.043Z" fill="#B36334"/>
<path d="M301.38 195.603C298.5 194.603 293.11 197.233 294.44 204.413L301.38 195.603Z" fill="#F0C298"/>
<path d="M294.44 205.161C294.09 205.161 293.77 204.911 293.7 204.551C292.82 199.781 294.77 197.281 296.01 196.221C297.63 194.831 299.89 194.291 301.62 194.901C302.01 195.041 302.22 195.461 302.08 195.861C301.94 196.251 301.52 196.451 301.12 196.321C299.89 195.891 298.19 196.321 296.98 197.361C295.26 198.841 294.61 201.301 295.17 204.281C295.25 204.691 294.98 205.081 294.57 205.151C294.53 205.151 294.48 205.161 294.44 205.161Z" fill="#B36334"/>
<path d="M265.47 174.43C265.55 178.24 267.21 182.86 267.85 185.14C268.34 186.9 266.85 190.22 263.01 189.59C259.31 188.99 257.94 186.34 257.94 185.54" fill="#F0C298"/>
<path d="M263.92 190.411C263.59 190.411 263.24 190.381 262.88 190.321C258.83 189.661 257.18 186.671 257.18 185.541C257.18 185.131 257.51 184.791 257.93 184.791C258.34 184.791 258.68 185.121 258.68 185.541C258.69 185.851 259.67 188.291 263.12 188.851C264.85 189.131 265.84 188.491 266.37 187.901C267.1 187.081 267.3 186.001 267.12 185.341C267 184.911 266.84 184.391 266.67 183.811C265.92 181.351 264.79 177.631 264.72 174.441C264.71 174.031 265.04 173.681 265.45 173.671C265.84 173.631 266.21 173.991 266.22 174.401C266.28 177.381 267.38 180.981 268.1 183.361C268.28 183.951 268.44 184.481 268.56 184.921C268.91 186.181 268.48 187.771 267.48 188.881C266.6 189.891 265.36 190.411 263.92 190.411Z" fill="#B36334"/>
<path d="M284.64 150.02C283.91 145.52 291.53 145.79 294.71 146.99C297.85 148.18 302.78 152.3 302.17 156.75C301.7 160.19 297.11 154.66 293.96 153.43C291 152.27 285.37 154.51 284.64 150.02Z" fill="#853413"/>
<path d="M256.8 143.62C259.62 140.69 254.59 135.74 247.24 136.27C239.89 136.81 235.36 141.35 237.45 143.62C239.54 145.89 241.83 142.58 247.27 142.61C250.76 142.63 254.28 146.24 256.8 143.62Z" fill="#853413"/>
<path d="M251.15 165.132C251.38 168.172 248.37 170.772 243.31 171.312C237.93 171.882 232.04 169.572 233.24 166.192C235.34 160.302 240.02 158.332 244.06 158.332C248.09 158.332 250.92 162.102 251.15 165.132Z" fill="white"/>
<path d="M291.06 175.992C290.83 179.432 286.62 180.432 282.36 179.392C277.23 178.142 272.69 174.072 274.03 171.692C276.89 166.612 281.06 165.862 284.3 166.322C288.65 166.952 291.28 172.662 291.06 175.992Z" fill="white"/>
<path d="M233.04 166.863C233.26 164.603 234.23 162.333 235.88 160.593C237.5 158.833 239.8 157.613 242.27 157.353C243.5 157.243 244.77 157.353 245.96 157.743C247.14 158.153 248.25 158.813 249.11 159.703C250.86 161.443 251.69 163.993 251.2 166.243C250.84 164.003 249.66 162.103 248.07 160.873C246.48 159.633 244.46 159.123 242.47 159.353C240.48 159.533 238.56 160.423 236.95 161.733C235.32 163.043 234.06 164.833 233.04 166.863Z" fill="black"/>
<path d="M273.93 171.922C274.16 170.852 274.64 169.812 275.31 168.892C276.01 167.992 276.89 167.212 277.9 166.622C279.9 165.432 282.32 164.942 284.73 165.392C285.03 165.452 285.33 165.562 285.63 165.652C285.92 165.782 286.24 165.912 286.5 166.062C287.02 166.362 287.52 166.702 287.96 167.102C288.84 167.892 289.59 168.822 290.12 169.852C291.21 171.892 291.55 174.282 291.06 176.422C290.72 174.262 289.96 172.292 288.79 170.672C288.19 169.872 287.54 169.132 286.75 168.562C286.37 168.262 285.97 168.002 285.55 167.772C285.34 167.662 285.16 167.602 284.96 167.512C284.74 167.462 284.53 167.382 284.31 167.342C283.41 167.132 282.43 167.132 281.46 167.252C280.48 167.342 279.53 167.642 278.61 168.002C277.7 168.392 276.82 168.892 276.03 169.552C275.24 170.212 274.57 171.022 273.93 171.922Z" fill="black"/>
<path d="M241.44 170.071C244.03 170.071 246.13 167.972 246.13 165.381C246.13 162.791 244.03 160.691 241.44 160.691C238.85 160.691 236.75 162.791 236.75 165.381C236.75 167.972 238.85 170.071 241.44 170.071Z" fill="#1792B2"/>
<path d="M241.44 168.022C242.898 168.022 244.08 166.84 244.08 165.382C244.08 163.924 242.898 162.742 241.44 162.742C239.982 162.742 238.8 163.924 238.8 165.382C238.8 166.84 239.982 168.022 241.44 168.022Z" fill="black"/>
<path d="M244.31 164.9C245.337 164.9 246.17 164.067 246.17 163.04C246.17 162.012 245.337 161.18 244.31 161.18C243.283 161.18 242.45 162.012 242.45 163.04C242.45 164.067 243.283 164.9 244.31 164.9Z" fill="white"/>
<path d="M240.46 169.283C241.073 169.283 241.57 168.786 241.57 168.173C241.57 167.559 241.073 167.062 240.46 167.062C239.847 167.062 239.35 167.559 239.35 168.173C239.35 168.786 239.847 169.283 240.46 169.283Z" fill="white"/>
<path d="M281.99 177.681C284.58 177.681 286.68 175.581 286.68 172.991C286.68 170.401 284.58 168.301 281.99 168.301C279.4 168.301 277.3 170.401 277.3 172.991C277.3 175.581 279.4 177.681 281.99 177.681Z" fill="#1792B2"/>
<path d="M281.99 175.632C283.448 175.632 284.63 174.45 284.63 172.992C284.63 171.534 283.448 170.352 281.99 170.352C280.532 170.352 279.35 171.534 279.35 172.992C279.35 174.45 280.532 175.632 281.99 175.632Z" fill="black"/>
<path d="M285.04 172.993C286.067 172.993 286.9 172.161 286.9 171.133C286.9 170.106 286.067 169.273 285.04 169.273C284.013 169.273 283.18 170.106 283.18 171.133C283.18 172.161 284.013 172.993 285.04 172.993Z" fill="white"/>
<path d="M280.45 176.2C281.063 176.2 281.56 175.704 281.56 175.09C281.56 174.477 281.063 173.98 280.45 173.98C279.837 173.98 279.34 174.477 279.34 175.09C279.34 175.704 279.837 176.2 280.45 176.2Z" fill="white"/>
<path d="M241.593 183C241.042 183 240.482 182.972 239.892 182.924C223.924 181.445 222.523 166.436 223.103 157.628C223.219 155.912 224.069 154.328 225.451 153.276C226.834 152.214 228.612 151.787 230.333 152.1L256.721 156.813C258.141 157.069 259.398 157.893 260.171 159.079C260.954 160.273 261.196 161.695 260.838 163.08C259.272 169.195 254.294 183 241.593 183Z" fill="url(#paint0_linear)"/>
<path d="M287.126 191C286.618 191 286.102 190.973 285.559 190.929C270.851 189.545 269.56 175.505 270.094 167.265C270.201 165.659 270.985 164.178 272.258 163.194C273.531 162.2 275.169 161.801 276.754 162.094L301.058 166.502C302.367 166.742 303.524 167.513 304.237 168.622C304.958 169.739 305.18 171.07 304.851 172.365C303.409 178.086 298.824 191 287.126 191Z" fill="url(#paint1_linear)"/>
<path d="M285.26 191.74C285.18 191.74 285.11 191.74 285.03 191.74C280.82 191.7 277.39 190.3 274.81 187.57C269.74 182.19 269.09 172.85 269.44 165.96C269.54 164.06 270.46 162.32 271.97 161.16C273.49 160 275.43 159.57 277.29 159.98L302.08 165.42C304.39 165.93 305.94 168.16 305.61 170.5C304.71 176.9 300.93 191.74 285.26 191.74ZM275.9 161.83C274.93 161.83 273.97 162.15 273.18 162.75C272.14 163.55 271.5 164.75 271.44 166.06C271.17 171.38 271.44 181.08 276.27 186.2C278.45 188.52 281.41 189.71 285.05 189.74C285.12 189.74 285.19 189.74 285.26 189.74C298.85 189.74 302.6 177.53 303.63 170.22C303.81 168.91 302.95 167.66 301.65 167.37L276.86 161.93C276.54 161.87 276.22 161.83 275.9 161.83Z" fill="black"/>
<path d="M242.12 183.133C241.55 183.133 240.97 183.103 240.36 183.053C223.84 181.493 222.39 165.663 222.99 156.373C223.11 154.563 223.99 152.893 225.42 151.783C226.85 150.663 228.69 150.213 230.47 150.543L257.77 155.513C259.24 155.783 260.54 156.653 261.34 157.903C262.15 159.163 262.4 160.663 262.03 162.123C260.41 168.573 255.26 183.133 242.12 183.133ZM229.33 152.423C228.37 152.423 227.42 152.743 226.65 153.343C225.67 154.103 225.07 155.253 224.99 156.493C224.44 165.063 225.72 179.663 240.56 181.053C253 182.213 258.14 169.383 260.11 161.613C260.34 160.693 260.19 159.753 259.68 158.963C259.17 158.163 258.37 157.633 257.43 157.463L230.13 152.493C229.86 152.443 229.6 152.423 229.33 152.423Z" fill="black"/>
<path d="M255.63 200.002C262.23 201.362 265.82 199.532 269.18 200.472C272.54 201.412 274.13 206.122 266.88 210.422C259.64 214.722 251.21 214.012 246.21 210.422C241.2 206.832 238.92 202.002 238.8 197.292C238.68 192.582 244.98 195.822 247.16 197.292C250.04 199.242 255.63 200.002 255.63 200.002Z" fill="#5E2210"/>
<path d="M256.12 214.14C252.32 214.14 248.66 213.11 245.78 211.04C240.94 207.57 238.2 202.69 238.05 197.32C238 195.58 238.75 194.8 239.39 194.45C242.04 192.99 247.35 196.53 247.58 196.68C250.29 198.51 255.69 199.26 255.74 199.27L255.79 199.28C259.35 200.01 261.96 199.79 264.26 199.6C266.14 199.44 267.76 199.31 269.39 199.76C271.22 200.27 272.5 201.68 272.73 203.44C272.93 204.96 272.49 207.98 267.27 211.08C263.82 213.12 259.9 214.14 256.12 214.14ZM240.94 195.58C240.61 195.58 240.33 195.63 240.11 195.75C239.96 195.83 239.52 196.08 239.55 197.27C239.68 202.17 242.2 206.62 246.65 209.81C250.97 212.91 259.02 214.22 266.5 209.77C269.77 207.83 271.5 205.59 271.24 203.61C271.09 202.46 270.22 201.53 268.98 201.18C267.62 200.8 266.19 200.92 264.38 201.07C262.1 201.26 259.26 201.5 255.51 200.73C255.04 200.66 249.66 199.87 246.74 197.9C245.15 196.85 242.52 195.58 240.94 195.58Z" fill="#A43B22"/>
<path d="M240.89 195.602C240.3 199.362 243.09 202.282 253.1 204.412C263.11 206.542 265.16 202.592 266.1 200.932C266.1 200.932 259.87 201.802 253.25 200.312C246.61 198.332 246.28 197.392 243.98 196.402C241.6 195.382 240.89 195.602 240.89 195.602Z" fill="white"/>
<path d="M250.21 208.492C249.09 205.262 245.17 204.822 242.73 206.072C242.73 206.072 245.59 210.252 250.95 211.872L250.21 208.492Z" fill="#FEA2A7"/>
<path d="M258.51 212.483C257.78 209.543 256.22 206.613 250.5 207.263C250.5 207.263 251.1 208.583 250.6 210.263L250.95 211.883C250.95 211.883 252.77 212.473 254.89 212.603C257.02 212.713 258.51 212.483 258.51 212.483Z" fill="#FEA2A7"/>
<path d="M240.89 192.473C237.95 192.053 235.61 192.963 235.2 195.603L240.89 192.473Z" fill="#F0C298"/>
<path d="M235.2 196.102C235.17 196.102 235.15 196.102 235.12 196.092C234.85 196.052 234.66 195.792 234.7 195.522C235.13 192.802 237.47 191.482 240.96 191.972C241.23 192.012 241.42 192.262 241.38 192.542C241.34 192.812 241.09 193.002 240.81 192.962C239.43 192.762 236.16 192.632 235.68 195.672C235.65 195.922 235.44 196.102 235.2 196.102Z" fill="#B36334"/>
<path d="M212.53 251.412V279.892C212.53 279.892 209.58 370.052 209.58 371.382C209.58 371.382 309.78 369.022 309.78 368.432C309.78 367.842 305.21 270.002 305.21 270.002L297.54 249.492" fill="#FF697B"/>
<path d="M209.58 372.13C209.38 372.13 209.2 372.05 209.06 371.92C208.92 371.78 208.83 371.59 208.83 371.38C208.83 370.05 211.66 283.55 211.78 279.86V251.4C211.78 250.99 212.12 250.65 212.53 250.65C212.94 250.65 213.28 250.99 213.28 251.4V279.88C213.25 280.76 210.6 361.75 210.35 370.6C236.87 369.97 302 368.34 309 367.77C308.63 359.44 304.63 273.86 304.46 270.14L296.83 249.74C296.68 249.35 296.88 248.92 297.27 248.78C297.66 248.64 298.09 248.83 298.23 249.22L305.9 269.73C305.93 269.8 305.94 269.88 305.95 269.96C306.42 279.98 310.53 367.83 310.53 368.42C310.53 369.35 310.53 369.35 294.15 369.88C285.84 370.15 274.25 370.48 259.7 370.87C234.94 371.53 209.85 372.12 209.6 372.12C209.59 372.13 209.58 372.13 209.58 372.13Z" fill="#E04862"/>
<path d="M236.85 360.601C219.91 343.761 217.36 304.021 217.89 278.711L213.7 294.021L210.34 370.581L244.11 369.721L236.85 360.601Z" fill="#FC5471"/>
<path d="M212.97 306.794C212.79 298.994 213.35 291.614 213.35 291.614L189.11 288.324C188.88 292.324 189.01 300.284 189.47 307.254" fill="#F0C298"/>
<path d="M189.46 308.003C189.07 308.003 188.74 307.703 188.71 307.303C188.26 300.503 188.11 292.503 188.35 288.283L188.4 287.473L214.14 290.963L214.09 291.673C214.08 291.743 213.54 299.113 213.72 306.783C213.73 307.193 213.4 307.543 212.99 307.553C212.61 307.553 212.23 307.233 212.22 306.823C212.07 300.463 212.42 294.313 212.55 292.273L189.82 289.193C189.64 293.483 189.81 300.993 190.22 307.223C190.25 307.633 189.93 307.993 189.52 308.023C189.49 308.003 189.48 308.003 189.46 308.003Z" fill="#B36334"/>
<path d="M314.96 273.822C315.14 273.632 321.91 286.382 322.77 292.922C323.63 299.462 300.85 296.952 300.85 296.952L297.23 285.622L314.96 273.822Z" fill="#F0C298"/>
<path d="M309.93 298.203C305.56 298.203 301.62 297.793 300.77 297.703L300.29 297.653L296.35 285.323L314.48 273.253L314.75 272.973L315.2 273.123C316.29 273.493 322.74 286.983 323.5 292.843C323.63 293.853 323.32 294.783 322.58 295.533C320.49 297.663 314.93 298.203 309.93 298.203ZM301.42 296.263C306.5 296.773 318.71 297.343 321.53 294.473C321.94 294.053 322.1 293.593 322.03 293.033C321.31 287.493 316.23 277.353 314.77 274.863L298.12 285.943L301.42 296.263Z" fill="#B36334"/>
<path d="M262.9 225.67C255.4 226.17 236.92 226.56 228.6 215.34C228.6 215.34 224.81 224.89 231.82 229.08C240.24 234.12 260.59 230 262.9 225.67Z" fill="#E3B488"/>
<path d="M309.87 287.983C292.7 287.493 260.54 287.903 260.54 287.903C247.97 292.963 230.5 331.613 256.4 357.363L312.85 348.623C329.15 323.623 320.91 303.473 309.87 287.983Z" fill="#A5DCF6"/>
<path d="M319.94 288.684C318.69 288.354 314.93 288.124 309.87 287.984C320.91 303.474 329.14 323.624 312.85 348.624L256.4 357.364L296.74 361.944L318.18 361.494C318.18 361.494 337.96 350.214 337.96 325.794C337.96 301.374 325.41 290.154 319.94 288.684Z" fill="#85D2F4"/>
<path d="M218.11 269.141C218.11 269.141 215.65 293.311 215.07 294.851C214 297.711 202.21 296.101 184.72 288.781C184.72 288.781 183.19 251.211 202.58 232.891C212.47 223.551 225.31 226.271 225.31 226.271C225.31 226.271 233.17 238.501 249.71 238.361C260.35 238.271 266.5 229.401 266.46 228.781C266.46 228.781 292.54 225.581 303.4 244.521C314.26 263.471 318 267.691 317.52 270.471C317.04 273.251 299.78 287.131 297.24 289.061C294.71 290.991 284.81 278.681 282.15 266.491" fill="#FF697B"/>
<path d="M211.23 296.921C205.72 296.921 195.71 294.191 184.43 289.471C184.16 289.361 183.98 289.101 183.97 288.811C183.95 288.431 182.65 250.681 202.06 232.351C212.12 222.851 224.92 225.421 225.46 225.541C225.66 225.581 225.83 225.701 225.94 225.871C226.02 225.991 233.7 237.621 249.42 237.621C249.51 237.621 249.61 237.621 249.7 237.621C259.55 237.531 265.3 229.681 265.72 228.681C265.77 228.351 266.03 228.091 266.37 228.051C266.63 228.021 293.07 225.011 304.05 244.171C307.87 250.831 310.83 255.711 312.99 259.271C317.2 266.211 318.62 268.551 318.26 270.621C317.66 274.051 297.9 289.521 297.7 289.671C297.33 289.951 296.67 290.211 295.65 289.841C291.71 288.391 283.77 277.431 281.43 266.671C281.34 266.271 281.6 265.871 282 265.781C282.41 265.691 282.8 265.951 282.89 266.351C285.24 277.151 293.01 287.271 296.16 288.431C296.46 288.541 296.68 288.561 296.79 288.481C301.62 284.801 316.41 272.511 316.78 270.361C317.04 268.841 315.48 266.261 311.71 260.041C309.54 256.471 306.58 251.591 302.75 244.911C293.02 227.931 270.38 229.201 266.98 229.491C266.44 230.531 265.14 231.941 264.96 232.131C262.55 234.711 257.37 239.041 249.72 239.111C249.62 239.111 249.52 239.111 249.42 239.111C234.25 239.111 226.18 228.791 224.87 226.951C222.96 226.641 211.77 225.241 203.1 233.441C185.35 250.211 185.38 283.881 185.47 288.281C200.9 294.691 210.96 296.291 213.81 295.061C214.03 294.971 214.3 294.811 214.38 294.591C214.78 293.481 216.43 278.341 217.37 269.071C217.41 268.661 217.79 268.361 218.19 268.401C218.6 268.441 218.9 268.811 218.86 269.221C218.61 271.701 216.38 293.531 215.78 295.121C215.56 295.691 215.1 296.141 214.4 296.441C213.64 296.761 212.57 296.921 211.23 296.921Z" fill="#E04862"/>
<path d="M290.48 304.862C289.93 304.862 289.48 304.412 289.48 303.862L289.45 245.062C289.45 244.512 289.9 244.062 290.45 244.062C291 244.062 291.45 244.512 291.45 245.062L291.48 303.862C291.48 304.412 291.04 304.862 290.48 304.862Z" fill="#92C13E"/>
<path d="M270.21 355.47C283.96 357.19 308.25 355.79 309.77 355.47C311.3 355.15 319.26 342.62 319.26 342.62L322.76 318.4L289.85 308.75L263.2 318.4C263.21 318.41 259.17 354.09 270.21 355.47Z" fill="#E46B28"/>
<path d="M298.39 325.98C295.42 327.66 293.24 327.64 295.64 331.75C299.87 338.99 302.79 334.98 302.79 334.98L298.39 325.98Z" fill="#FFC64E"/>
<path d="M317.81 288.32H263.09C261.2 288.32 259.67 286.79 259.67 284.9C259.67 283.01 261.2 281.48 263.09 281.48H317.81C319.7 281.48 321.23 283.01 321.23 284.9C321.22 286.79 319.7 288.32 317.81 288.32Z" fill="#B8E6F4"/>
<path d="M317.81 289.82H263.09C260.38 289.82 258.17 287.61 258.17 284.9C258.17 282.19 260.38 279.98 263.09 279.98H317.81C320.52 279.98 322.73 282.19 322.73 284.9C322.73 287.61 320.52 289.82 317.81 289.82ZM263.09 282.99C262.03 282.99 261.17 283.85 261.17 284.91C261.17 285.97 262.03 286.83 263.09 286.83H317.81C318.87 286.83 319.73 285.97 319.73 284.91C319.73 283.85 318.87 282.99 317.81 282.99H263.09Z" fill="#5BC7F0"/>
<path d="M299.92 329.118L295.44 331.383L295.891 332.275L300.371 330.011L299.92 329.118Z" fill="#FFE07C"/>
<path d="M255.1 325.582C250.85 329.212 252.04 339.062 253.91 340.472H264.88L263.94 323.602L255.1 325.582Z" fill="#FCB638"/>
<path d="M254.64 339.69C252.83 335.34 253.39 328.8 255.82 325.96L255.93 325.84L259.16 325.09L259.39 326.06L256.48 326.74C254.38 329.35 253.93 335.39 255.57 339.31L254.64 339.69Z" fill="#E46B28"/>
<path d="M264.2 328.232C264.02 328.512 262.16 339.502 262.16 339.502L269.73 344.982V333.612L278.87 332.532L273.54 321.992L264.2 328.232Z" fill="#FFC64E"/>
<path d="M269.01 311.53C269.08 311.77 266.44 320.52 266.44 320.52L273.77 326.29L292.62 318.91L287.73 309.52L275.84 308.75L269.01 311.53Z" fill="#E46B28"/>
<path d="M280.61 309.062L280.93 312.772L270.98 316.292L272.19 310.943L280.61 309.062Z" fill="#E46B28"/>
<path d="M327.25 324.281C326.65 330.741 326.63 338.391 326.63 338.391L323.55 346.901L314.96 340.471L315.45 327.291L327.25 324.281Z" fill="#E46B28"/>
<path d="M321.11 326.29C327.59 326.28 332.39 320.7 329.69 314.29C326.99 307.89 314.72 302.47 312.29 309.15C309.86 315.83 313.37 319.4 313.37 319.4L321.11 326.29Z" fill="#FCB638"/>
<path d="M328.44 320.921C328.42 320.921 328.4 320.921 328.38 320.921C328.11 320.891 327.91 320.641 327.94 320.371C328.43 316.001 328.13 311.131 318.39 308.631C318.12 308.561 317.96 308.291 318.03 308.021C318.1 307.751 318.38 307.591 318.64 307.661C330.04 310.591 329.32 317.021 328.94 320.481C328.91 320.731 328.69 320.921 328.44 320.921Z" fill="#E46B28"/>
<path d="M325.19 315.43C325.18 315.41 324.22 313.29 321.39 311.98L321.81 311.07C325 312.55 326.06 314.92 326.11 315.02L325.19 315.43Z" fill="#FFE07C"/>
<path d="M266.45 311.823L268.04 316.623L287.28 306.813L285.02 302.453L266.45 311.823Z" fill="#FFC64E"/>
<path d="M261.04 327.361C266.187 327.361 270.36 323.058 270.36 317.751C270.36 312.443 266.187 308.141 261.04 308.141C255.893 308.141 251.72 312.443 251.72 317.751C251.72 323.058 255.893 327.361 261.04 327.361Z" fill="#FFC64E"/>
<path d="M320.94 319.442C319.98 318.722 318.78 317.892 318.51 317.812L318.67 316.832C319.03 316.882 319.99 317.492 321.54 318.652L320.94 319.442Z" fill="#FFE07C"/>
<path d="M299.138 327.521L294.658 329.785L295.109 330.678L299.589 328.413L299.138 327.521Z" fill="#FFE07C"/>
<path opacity="0.7" d="M260.41 305.073C257.61 310.523 254.04 315.183 251.72 313.993C249.39 312.793 248.92 306.403 251.72 300.953C254.52 295.503 258.65 291.283 260.97 292.483C263.29 293.673 263.2 299.623 260.41 305.073Z" fill="white"/>
<path opacity="0.7" d="M249.93 325.583C251.835 325.583 253.38 323.635 253.38 321.233C253.38 318.83 251.835 316.883 249.93 316.883C248.025 316.883 246.48 318.83 246.48 321.233C246.48 323.635 248.025 325.583 249.93 325.583Z" fill="white"/>
<path d="M261.04 326.471C256.37 326.471 252.56 322.561 252.56 317.751C252.56 312.941 256.36 309.031 261.04 309.031C265.71 309.031 269.52 312.941 269.52 317.751C269.52 322.561 265.71 326.471 261.04 326.471ZM261.04 310.031C256.92 310.031 253.56 313.491 253.56 317.751C253.56 322.011 256.91 325.471 261.04 325.471C265.16 325.471 268.52 322.011 268.52 317.751C268.52 313.491 265.16 310.031 261.04 310.031Z" fill="#F7922E"/>
<path d="M314.96 355.211C321.223 355.211 326.3 350.134 326.3 343.871C326.3 337.608 321.223 332.531 314.96 332.531C308.697 332.531 303.62 337.608 303.62 343.871C303.62 350.134 308.697 355.211 314.96 355.211Z" fill="#FFC64E"/>
<path d="M314.96 354.01C309.37 354.01 304.82 349.46 304.82 343.87C304.82 338.28 309.37 333.73 314.96 333.73C320.55 333.73 325.1 338.28 325.1 343.87C325.1 349.46 320.55 354.01 314.96 354.01ZM314.96 334.73C309.92 334.73 305.82 338.83 305.82 343.87C305.82 348.91 309.92 353.01 314.96 353.01C320 353.01 324.1 348.91 324.1 343.87C324.1 338.83 320 334.73 314.96 334.73Z" fill="#E46B28"/>
<path d="M318.57 341.45L323.15 343.57L329.2 322.84L324.48 321.5L318.57 341.45Z" fill="#FFC64E"/>
<path d="M325.2 336.612C325.2 336.612 320.43 335.182 320.37 335.382L319.31 338.952L323.89 341.082L325.2 336.612Z" fill="#FCB638"/>
<path d="M324.5 339.062C324.5 339.062 319.73 337.632 319.67 337.832L318.61 341.402L323.19 343.532L324.5 339.062Z" fill="#E46B28"/>
<path d="M322.872 326.972L322.56 327.922L327.254 329.463L327.566 328.513L322.872 326.972Z" fill="#FFE07C"/>
<path d="M323.695 324.496L323.346 325.434L327.91 327.132L328.259 326.195L323.695 324.496Z" fill="#FFE07C"/>
<path d="M292.26 355.961C298.523 355.961 303.6 350.884 303.6 344.621C303.6 338.358 298.523 333.281 292.26 333.281C285.997 333.281 280.92 338.358 280.92 344.621C280.92 350.884 285.997 355.961 292.26 355.961Z" fill="#FFC64E"/>
<path d="M292.51 354.76C286.92 354.76 282.37 350.21 282.37 344.62C282.37 339.03 286.92 334.48 292.51 334.48C298.1 334.48 302.65 339.03 302.65 344.62C302.65 350.21 298.1 354.76 292.51 354.76ZM292.51 335.48C287.47 335.48 283.37 339.58 283.37 344.62C283.37 349.66 287.47 353.76 292.51 353.76C297.55 353.76 301.65 349.66 301.65 344.62C301.65 339.58 297.55 335.48 292.51 335.48Z" fill="#E46B28"/>
<path d="M314.1 307.802C311.48 305.542 306.52 304.832 304 306.092C301.47 307.352 302.16 316.292 302.16 316.292L306.53 322.002L316.19 313.852L314.1 307.802Z" fill="#E46B28"/>
<path d="M300.7 316.573C304.79 315.793 300.85 327.373 296.41 324.293C291.27 320.723 300.7 316.573 300.7 316.573Z" fill="#F5882A"/>
<path d="M309.78 337.633C316.043 337.633 321.12 332.556 321.12 326.293C321.12 320.03 316.043 314.953 309.78 314.953C303.517 314.953 298.44 320.03 298.44 326.293C298.44 332.556 303.517 337.633 309.78 337.633Z" fill="#FFC64E"/>
<path d="M298.66 303.57C302.18 303.73 306.97 305.13 305.7 309.53C304.43 313.93 302.54 319.36 297.94 319.4C293.34 319.44 295.41 313.11 295.41 313.11L298.66 303.57Z" fill="#FCB638"/>
<path d="M309.78 336.44C304.19 336.44 299.64 331.89 299.64 326.3C299.64 320.71 304.19 316.16 309.78 316.16C315.37 316.16 319.92 320.71 319.92 326.3C319.92 331.89 315.37 336.44 309.78 336.44ZM309.78 317.15C304.74 317.15 300.64 321.25 300.64 326.29C300.64 331.33 304.74 335.43 309.78 335.43C314.82 335.43 318.92 331.33 318.92 326.29C318.92 321.25 314.82 317.15 309.78 317.15Z" fill="#F7922E"/>
<path d="M316.67 326.33L315.67 326.26C315.73 325.5 315.21 323.31 313.71 321.47L314.48 320.84C316.12 322.84 316.75 325.26 316.67 326.33Z" fill="#FFE07C"/>
<path d="M291.86 322.003C297.642 322.003 302.33 317.315 302.33 311.533C302.33 305.75 297.642 301.062 291.86 301.062C286.078 301.062 281.39 305.75 281.39 311.533C281.39 317.315 286.078 322.003 291.86 322.003Z" fill="#FFC64E"/>
<path d="M297.46 308.171L296.46 308.121C296.46 308.061 296.49 306.431 294.45 305.261L294.95 304.391C297.53 305.881 297.46 308.071 297.46 308.171Z" fill="#FFE07C"/>
<path d="M290.32 318.892C287.65 318.142 284.52 315.492 284.52 310.512H285.52C285.52 314.932 288.25 317.272 290.59 317.932L290.32 318.892Z" fill="#FFE07C"/>
<path d="M274.52 313.33C274.52 313.33 272.29 308.88 272.1 308.97L268.78 310.65L270.38 315.44L274.52 313.33Z" fill="#FCB638"/>
<path d="M271.93 314.623C271.93 314.623 269.7 310.193 269.52 310.283L266.45 311.823L268.02 316.613L271.93 314.623Z" fill="#E46B28"/>
<path d="M279.937 305.029L279.032 305.453L281.128 309.926L282.034 309.502L279.937 305.029Z" fill="#FFE07C"/>
<path d="M282.234 303.748L281.313 304.137L283.392 309.066L284.314 308.677L282.234 303.748Z" fill="#FFE07C"/>
<path d="M267.46 320.182L268.85 324.362L285.64 315.802L283.67 311.992L267.46 320.182Z" fill="#FFC64E"/>
<path d="M274.76 321.353C274.76 321.353 272.83 317.433 272.64 317.533L269.32 319.213L270.74 323.493L274.76 321.353Z" fill="#FCB638"/>
<path d="M272.47 322.52C272.47 322.52 270.53 318.63 270.36 318.72L267.46 320.18L268.85 324.37L272.47 322.52Z" fill="#E46B28"/>
<path d="M279.269 314.236L278.363 314.66L280.192 318.563L281.097 318.139L279.269 314.236Z" fill="#FFE07C"/>
<path d="M281.351 313.182L280.43 313.57L282.104 317.542L283.026 317.153L281.351 313.182Z" fill="#FFE07C"/>
<path d="M298.44 327.362C297.95 327.382 296.06 323.592 294.25 325.572C292.45 327.552 292.16 330.592 293.22 332.032C294.28 333.462 289.21 334.972 289.21 334.972C289.21 334.972 289.53 328.682 289.04 326.902C288.55 325.122 291.18 321.682 294.7 322.862C298.22 324.042 298.44 324.952 298.44 324.952V327.362Z" fill="#E46B28"/>
<path d="M339.45 333.015C339.45 334.675 335.81 335.905 331.17 335.905C326.53 335.905 322.77 335.905 322.77 334.125C322.77 332.545 326.84 331.855 331.48 331.855C336.11 331.855 339.45 331.235 339.45 333.015Z" fill="#F0C298"/>
<path d="M331.17 336.653C325.86 336.653 322.02 336.653 322.02 334.123C322.02 331.623 327.16 331.103 331.48 331.103C332.5 331.103 333.46 331.073 334.34 331.043C337.03 330.963 338.81 330.903 339.69 331.763C340.02 332.083 340.2 332.523 340.2 333.023C340.2 335.513 335.52 336.653 331.17 336.653ZM336.35 332.503C335.73 332.503 335.05 332.523 334.38 332.543C333.49 332.573 332.52 332.603 331.48 332.603C325.86 332.603 323.52 333.593 323.52 334.123C323.52 335.153 327.94 335.153 331.17 335.153C336.18 335.153 338.7 333.783 338.7 333.013C338.7 332.883 338.67 332.853 338.65 332.833C338.37 332.573 337.46 332.503 336.35 332.503Z" fill="#B36334"/>
<path d="M339.75 337.581C339.75 339.241 335.79 340.471 330.74 340.471C325.69 340.471 321.6 340.471 321.6 338.691C321.6 337.111 326.03 336.421 331.08 336.421C336.13 336.421 339.75 335.801 339.75 337.581Z" fill="#F0C298"/>
<path d="M330.74 341.223C325 341.223 320.85 341.223 320.85 338.693C320.85 336.193 326.41 335.673 331.08 335.673C332.2 335.673 333.24 335.643 334.19 335.613C337.14 335.523 339.09 335.473 340 336.363C340.33 336.683 340.5 337.103 340.5 337.593C340.5 340.103 335.6 341.223 330.74 341.223ZM336.37 337.073C335.7 337.073 334.96 337.093 334.23 337.113C333.27 337.143 332.21 337.173 331.08 337.173C324.42 337.173 322.35 338.293 322.35 338.693C322.35 339.723 327.4 339.723 330.74 339.723C336.16 339.723 339 338.333 339 337.583C339 337.483 338.97 337.453 338.95 337.433C338.65 337.143 337.63 337.073 336.37 337.073Z" fill="#B36334"/>
<path d="M268.391 329.153L263.42 330.902L263.752 331.846L268.723 330.096L268.391 329.153Z" fill="#E46B28"/>
<path d="M337.96 342.024C337.96 343.514 334.49 344.614 330.06 344.614C325.63 344.614 322.04 344.614 322.04 343.014C322.04 341.594 325.92 340.974 330.36 340.974C334.8 340.974 337.96 340.424 337.96 342.024Z" fill="#F0C298"/>
<path d="M330.05 345.372C324.96 345.372 321.28 345.372 321.28 343.022C321.28 340.712 326.21 340.232 330.35 340.232C331.33 340.232 332.24 340.202 333.08 340.182C335.68 340.102 337.4 340.052 338.24 340.872C338.55 341.172 338.72 341.582 338.72 342.042C338.71 344.332 334.36 345.372 330.05 345.372ZM334.98 341.642C334.38 341.642 333.74 341.662 333.12 341.682C332.27 341.712 331.34 341.732 330.35 341.732C324.6 341.732 322.78 342.742 322.78 343.022C322.78 343.872 327.33 343.872 330.05 343.872C334.75 343.872 337.21 342.672 337.21 342.032C337.21 341.962 337.2 341.952 337.19 341.942C336.94 341.702 336.04 341.642 334.98 341.642Z" fill="#B36334"/>
<path d="M278.86 339.102C284.576 339.102 289.21 334.468 289.21 328.752C289.21 323.036 284.576 318.402 278.86 318.402C273.144 318.402 268.51 323.036 268.51 328.752C268.51 334.468 273.144 339.102 278.86 339.102Z" fill="#FFC64E"/>
<path d="M337.05 346.173C337.05 347.663 333.84 348.763 329.75 348.763C325.66 348.763 322.34 348.763 322.34 347.163C322.34 345.743 325.93 345.123 330.02 345.123C334.11 345.123 337.05 344.573 337.05 346.173Z" fill="#F0C298"/>
<path d="M329.75 349.521C325.01 349.521 321.59 349.521 321.59 347.171C321.59 344.861 326.17 344.381 330.02 344.381C330.92 344.381 331.77 344.351 332.54 344.331C334.93 344.251 336.51 344.201 337.32 344.991C337.64 345.301 337.8 345.711 337.8 346.181C337.8 348.481 333.76 349.521 329.75 349.521ZM334.31 345.791C333.76 345.791 333.16 345.811 332.58 345.831C331.8 345.861 330.94 345.881 330.02 345.881C324.8 345.881 323.09 346.841 323.09 347.171C323.09 348.021 327.1 348.021 329.75 348.021C334.05 348.021 336.3 346.821 336.3 346.181C336.3 346.091 336.28 346.081 336.27 346.071C336.05 345.841 335.26 345.791 334.31 345.791Z" fill="#B36334"/>
<path d="M278.86 337.762C273.9 337.762 269.86 333.722 269.86 328.762C269.86 323.802 273.9 319.762 278.86 319.762C283.82 319.762 287.86 323.802 287.86 328.762C287.87 333.722 283.83 337.762 278.86 337.762ZM278.86 320.752C274.45 320.752 270.86 324.342 270.86 328.752C270.86 333.162 274.45 336.752 278.86 336.752C283.27 336.752 286.86 333.162 286.86 328.752C286.86 324.342 283.28 320.752 278.86 320.752Z" fill="#F7922E"/>
<path d="M285.52 326.29H284.52C284.52 324.98 282.37 322.5 280.93 322.5V321.5C282.95 321.5 285.52 324.47 285.52 326.29Z" fill="#FFE07C"/>
<path d="M278.89 336.37L278.83 335.37C279.87 335.31 281.17 334.75 281.19 334.75L281.58 335.67C281.53 335.69 280.1 336.3 278.89 336.37Z" fill="#FFE07C"/>
<path d="M269.091 332.05L262.927 333.734L263.191 334.699L269.355 333.015L269.091 332.05Z" fill="#E46B28"/>
<path d="M262.77 335.94C262.77 335.94 261.03 340.92 265.58 341.19C270.98 341.51 269.88 335.57 269.88 335.57L262.77 335.94Z" fill="#E46B28"/>
<path d="M274.18 348.882C274.18 348.882 272.44 353.862 276.99 354.132C282.39 354.452 281.29 348.512 281.29 348.512L274.18 348.882Z" fill="#FCB638"/>
<path d="M189.46 307.253C190.36 319.203 192.57 332.363 197.06 337.633C204.39 346.233 220.2 352.283 237.51 352.493C254.82 352.703 283.01 351.073 288.21 351.233C293.41 351.393 309.39 350.373 309.77 348.533C310.15 346.693 295.2 346.953 295.2 346.953C295.2 346.953 313.7 346.513 314.01 343.853C314.32 341.193 295.7 343.343 295.7 343.343C295.7 343.343 314.58 341.503 314.45 338.783C314.32 336.063 295.51 339.923 295.51 339.923C295.51 339.923 310.46 337.583 310.59 334.663C310.72 331.753 289.2 337.703 289.2 337.703C289.2 337.703 298.24 334.673 296.97 331.823C295.86 329.333 278.76 338.923 278.33 339.453C278.33 339.453 219 337.493 215.25 324.153C213.74 318.773 213.14 312.433 212.95 306.793" fill="#F0C298"/>
<path d="M240.76 353.273C239.64 353.273 238.55 353.263 237.5 353.253C220.23 353.043 204.14 347.103 196.49 338.123C191.27 332.003 189.38 316.193 188.71 307.313C188.68 306.903 188.99 306.543 189.4 306.513C189.81 306.493 190.17 306.793 190.2 307.203C190.85 315.903 192.69 331.353 197.62 337.153C205 345.813 220.66 351.543 237.51 351.753C248.03 351.883 262.77 351.323 273.53 350.903C280.59 350.633 286.16 350.423 288.22 350.483C293.88 350.663 306.13 349.663 308.68 348.503C306.9 347.893 300.65 347.603 295.2 347.703L295.17 346.203C304.13 345.993 312.2 344.913 313.2 343.823C312.05 343.003 305.31 343.153 298.62 343.793C297.66 343.903 296.71 344.003 295.77 344.093L295.61 342.603C296.24 342.533 297.09 342.433 298.1 342.333C305.46 341.473 312.82 340.013 313.65 338.863C312.63 338.183 306.98 338.693 300.86 339.703C298.87 340.133 296.98 340.463 295.62 340.673L295.35 339.193C296.19 339.023 298.04 338.653 300.29 338.273C305.48 337.143 309.45 335.713 309.8 334.763C308.25 333.973 298.13 336.023 289.38 338.443L288.94 337.013C291.4 336.193 295.56 334.303 296.24 332.753C296.35 332.503 296.33 332.333 296.29 332.213C294.44 331.393 280.5 338.633 278.83 340.013L278.6 340.303L278.29 340.223C275.84 340.143 218.36 338.093 214.52 324.373C213.2 319.683 212.42 313.783 212.19 306.833C212.18 306.423 212.5 306.073 212.92 306.063C213.32 306.053 213.68 306.373 213.69 306.793C213.91 313.613 214.68 319.393 215.96 323.973C218.89 334.433 261.58 338.153 278.11 338.713C280.48 337.133 293 330.273 296.4 330.703C297.17 330.803 297.5 331.213 297.64 331.533C297.9 332.103 297.89 332.733 297.62 333.353C297.33 334.003 296.74 334.623 296 335.203C301.98 333.783 309.26 332.413 310.83 333.663C311.17 333.933 311.34 334.303 311.32 334.723C311.28 335.643 310.35 336.463 308.94 337.183C311.6 337.013 313.81 337.113 314.64 337.753C315.07 338.083 315.18 338.493 315.19 338.773C315.25 340.023 313.24 341.033 310.2 341.853C312.19 341.973 313.75 342.273 314.35 342.873C314.65 343.173 314.79 343.563 314.74 343.963C314.57 345.373 311.6 346.263 307.77 346.823C308.99 347.053 309.9 347.363 310.24 347.783C310.47 348.053 310.55 348.383 310.48 348.723C309.82 351.893 288.36 352.023 288.16 352.023C286.15 351.953 280.6 352.173 273.57 352.443C263.89 352.773 250.95 353.273 240.76 353.273Z" fill="#B36334"/>
<path d="M314.1 307.803C310.84 309.723 312.56 313.033 314.16 313.963C315.76 314.893 318.77 314.493 318.96 313.233C319.14 311.973 319.57 307.603 317.94 306.913C316.3 306.223 314.1 307.803 314.1 307.803Z" fill="#FFC64E"/>
<path d="M321.72 342.801L320.72 342.711C320.91 340.671 318.33 339.091 316.37 338.081L316.83 337.191C319.05 338.331 321.96 340.161 321.72 342.801Z" fill="#FFE07C"/>
<path d="M290.48 263.632C294.26 264.782 307.62 263.632 309.38 248.512C309.38 248.502 293.12 248.812 290.48 263.632Z" fill="#92C13E"/>
<path d="M291.86 321.023C286.63 321.023 282.37 316.763 282.37 311.533C282.37 306.303 286.63 302.043 291.86 302.043C297.09 302.043 301.35 306.303 301.35 311.533C301.35 316.763 297.09 321.023 291.86 321.023ZM291.86 303.043C287.18 303.043 283.37 306.853 283.37 311.533C283.37 316.213 287.18 320.023 291.86 320.023C296.54 320.023 300.35 316.213 300.35 311.533C300.35 306.853 296.54 303.043 291.86 303.043Z" fill="#F7922E"/>
<path d="M270.89 242.773C271.12 252.623 277.77 262.023 290.49 258.583C290.48 258.593 286.39 246.213 270.89 242.773Z" fill="#92C13E"/>
<path d="M290.48 245.642C294.31 246.112 300.94 242.942 299.36 235.492C299.36 235.492 290.23 239.422 290.48 245.642Z" fill="#92C13E"/>
<path d="M280.68 237.191C280.69 241.121 284.65 246.111 290.48 245.641C290.48 245.641 289.89 238.071 280.68 237.191Z" fill="#92C13E"/>
<path d="M307.99 140.22L306.04 150.91C306.04 150.91 306.03 140.52 295.57 133.2C285.11 125.88 260.87 125.78 244.87 124.57C244.87 124.57 262.43 122.55 269.35 122.42C276.27 122.29 289.53 122.29 297.73 129.29C305.94 136.29 307.99 140.22 307.99 140.22Z" fill="#E8B98F"/>
<path d="M212.39 310.813C210.76 304.813 202.42 298.853 192.59 292.633C192.59 292.633 206.29 297.613 212.31 296.883L212.39 310.813Z" fill="#E3B488"/>
<path d="M315.25 304.102L317.06 308.812L295.97 313.442L294.95 308.642L315.25 304.102Z" fill="#FFC64E"/>
<path d="M309.97 310.39C309.97 310.39 308.86 305.53 309.07 305.49L312.7 304.68L314.51 309.4L309.97 310.39Z" fill="#FCB638"/>
<path d="M312.79 309.74C312.79 309.74 311.7 304.9 311.9 304.85L315.25 304.09L317.08 308.79L312.79 309.74Z" fill="#E46B28"/>
<path d="M301.504 307.14L300.535 307.387L301.755 312.174L302.724 311.927L301.504 307.14Z" fill="#FFE07C"/>
<path d="M298.955 307.711L297.996 307.996L299.402 312.732L300.361 312.447L298.955 307.711Z" fill="#FFE07C"/>
<path d="M316.27 312.512L316.93 316.582L298.66 317.472V313.432L316.27 312.512Z" fill="#FFC64E"/>
<path d="M310.79 316.891C310.79 316.891 310.73 312.801 310.91 312.791L314.06 312.621L314.73 316.691L310.79 316.891Z" fill="#FCB638"/>
<path d="M313.24 316.75C313.24 316.75 313.19 312.67 313.36 312.66L316.27 312.5L316.96 316.56L313.24 316.75Z" fill="#E46B28"/>
<path d="M304.439 313.162L303.439 313.203L303.606 317.25L304.605 317.209L304.439 313.162Z" fill="#FFE07C"/>
<path d="M302.181 313.259L301.184 313.34L301.514 317.376L302.51 317.295L302.181 313.259Z" fill="#FFE07C"/>
<path d="M260.76 163.641L270.37 165.981V170.231L259.31 168.021L260.76 163.641Z" fill="black"/>
<path d="M224.52 155.043C220.97 154.583 210.1 164.323 210.1 164.323V166.473C210.1 166.473 214.71 167.733 215.36 168.773L223.89 162.643L224.52 155.043Z" fill="black"/>
<path d="M306.2 173.19C306.71 174.45 300.16 186.66 298.67 187.29C297.18 187.92 295.08 188.31 296.34 180.38C296.34 180.38 306.82 166.54 306.2 173.19Z" fill="black"/>
<path d="M251.68 257.953L256.29 265.623H264.44L259.11 271.733L260.96 279.823L253.23 275.873L247.18 280.903V271.913L240.89 267.483L249.28 266.043L251.68 257.953Z" fill="#FFBDCB"/>
<defs>
<linearGradient id="paint0_linear" x1="228.5" y1="188" x2="245.118" y2="168.18" gradientUnits="userSpaceOnUse">
<stop stop-color="white"/>
<stop offset="1" stop-color="white" stop-opacity="0"/>
</linearGradient>
<linearGradient id="paint1_linear" x1="275.066" y1="195.677" x2="290.652" y2="177.374" gradientUnits="userSpaceOnUse">
<stop stop-color="white"/>
<stop offset="1" stop-color="white" stop-opacity="0"/>
</linearGradient>
</defs>
</svg>
