<svg width="454" height="410" viewBox="0 0 454 410" fill="none" xmlns="http://www.w3.org/2000/svg">
<g clip-path="url(#clip0)">
<path d="M231.185 0.00999832C271.655 27.09 327.695 38.36 350.235 43.64C372.775 48.93 412.785 53.07 439.455 90.78C466.125 128.49 449.115 157.24 430.945 177.47C412.775 197.71 337.585 259.79 330.685 267.84C323.785 275.89 326.085 317.74 326.085 317.74C326.085 317.74 307.225 374.63 266.525 410H98.6647C98.6647 410 2.41473 359.54 0.0447287 301.94C-1.57527 262.41 41.2147 238.94 62.6147 183.07C84.0147 127.2 68.2747 88 68.3647 71.52C68.5147 44.79 87.5747 7.65 103.225 0H231.185V0.00999832Z" fill="#F2FBFF"/>
<path d="M219.585 18.9891C289.945 33.5091 321.215 104.989 328.665 119.509C336.115 134.029 349.135 165.299 388.975 184.659C428.815 204.019 442.955 227.099 444.075 238.639C445.195 250.179 449.225 271.979 405.265 296.069C366.135 317.519 334.935 305.869 281.835 333.119C228.725 360.369 196.775 375.549 170.875 368.149C144.975 360.749 105.005 349.889 96.0249 293.589C93.2149 275.999 101.205 251.209 93.4249 229.349C85.6449 207.499 55.5949 173.659 40.4649 157.899C25.3349 142.139 21.7649 118.179 38.3649 98.2191C54.9649 78.2591 119.685 35.1791 156.465 25.0891C193.245 14.9991 219.585 18.9891 219.585 18.9891Z" fill="#D9F4FF"/>
<path d="M310.235 132.769C310.575 120.479 304.605 121.679 299.825 126.449C295.045 131.219 297.095 106.819 295.385 100.509C293.675 94.1986 289.755 80.1986 280.185 80.1986C275.085 80.1986 275.935 87.6286 271.585 87.3086C267.235 86.9886 263.095 77.8586 258.955 71.5986C254.815 65.3386 250.355 59.7086 244.725 60.0286C239.095 60.3486 235.295 68.2586 232.335 74.6586C229.365 81.0586 222.785 83.2886 218.605 79.1086C214.435 74.9386 214.265 69.5486 207.955 69.6686C201.645 69.7886 196.025 81.9186 193.085 89.6586C190.145 97.3986 189.755 104.879 183.335 106.969C180.835 107.779 180.715 103.969 174.585 104.029C168.465 104.089 166.905 117.159 166.825 126.529C166.745 135.899 177.565 141.569 177.565 141.569L196.395 121.369L203.395 107.269L222.445 114.699L283.265 128.589L298.335 145.809L310.235 132.769Z" fill="#E66727"/>
<path d="M298.325 146.938L282.865 129.268L222.175 115.408L203.755 108.228L196.935 121.898L177.715 142.518L177.205 142.248C176.745 142.008 165.975 136.248 166.065 126.538C166.125 119.578 167.085 103.368 174.575 103.298C178.315 103.288 180.075 104.638 181.225 105.558C182.105 106.258 182.445 106.488 183.095 106.268C187.575 104.808 188.885 100.478 190.535 94.9883C191.075 93.1783 191.645 91.3183 192.365 89.4083C195.875 80.1383 201.425 69.0583 207.925 68.9283C208.005 68.9283 208.075 68.9283 208.155 68.9283C212.625 68.9283 214.275 71.5883 216.025 74.4083C216.895 75.8083 217.795 77.2583 219.125 78.5883C220.655 80.1183 222.625 80.7583 224.695 80.3983C227.525 79.8983 230.115 77.6383 231.645 74.3583C234.525 68.1483 238.465 59.6483 244.675 59.2983C250.935 58.9583 255.635 65.2583 259.575 71.2083C260.575 72.7183 261.575 74.4083 262.555 76.0383C265.585 81.1183 268.715 86.3683 271.635 86.5783C273.185 86.6883 273.865 85.5583 274.855 83.6983C275.855 81.8083 277.105 79.4583 280.185 79.4583C290.465 79.4583 294.425 94.0783 296.105 100.328C296.735 102.678 296.865 107.238 297.005 112.068C297.155 117.208 297.395 125.808 298.695 126.328C298.715 126.338 298.915 126.308 299.285 125.938C302.325 122.898 305.335 121.698 307.535 122.648C309.975 123.698 311.135 127.118 310.975 132.808L310.965 133.088L298.325 146.938ZM222.665 113.978L283.675 127.908L298.355 144.688L309.495 132.478C309.585 127.768 308.695 124.768 306.955 124.018C305.365 123.338 302.905 124.448 300.355 126.988C299.405 127.938 298.635 127.908 298.145 127.718C296.035 126.878 295.765 121.238 295.505 112.108C295.375 107.578 295.245 102.888 294.655 100.708C293.195 95.3083 289.315 80.9483 280.175 80.9483C278.005 80.9483 277.155 82.5383 276.175 84.3883C275.215 86.1983 274.135 88.2383 271.525 88.0583C267.815 87.7883 264.635 82.4383 261.265 76.7883C260.295 75.1683 259.295 73.4883 258.325 72.0083C253.735 65.0583 249.665 60.4883 244.765 60.7683C239.455 61.0683 235.575 69.4283 233.005 74.9683C231.275 78.6983 228.265 81.2683 224.965 81.8583C222.405 82.3183 219.955 81.5283 218.075 79.6383C216.625 78.1883 215.635 76.5983 214.765 75.1883C213.045 72.4283 211.805 70.4183 208.165 70.4183C208.095 70.4183 208.035 70.4183 207.965 70.4183C203.615 70.5083 198.445 77.6183 193.785 89.9283C193.075 91.7883 192.525 93.6283 191.985 95.4083C190.275 101.078 188.795 105.978 183.565 107.678C182.105 108.158 181.185 107.418 180.295 106.718C179.195 105.838 177.855 104.748 174.595 104.788C169.565 104.838 167.665 116.058 167.575 126.548C167.505 134.238 175.355 139.408 177.425 140.638L195.775 120.958L203.025 106.338L222.665 113.978Z" fill="#853313"/>
<path d="M206.655 216.49C205.525 222.85 205.935 233.3 205.935 233.3L231.325 246.25L250.545 230.06L250.135 214.43L206.655 216.49Z" fill="#F0C298"/>
<path d="M231.415 247.158L205.195 233.778L205.175 233.338C205.155 232.908 204.775 222.728 205.905 216.368L206.005 215.778L250.855 213.648L251.295 230.398L231.415 247.158ZM206.665 232.838L231.215 245.368L249.785 229.718L249.405 215.218L207.295 217.218C206.435 222.698 206.605 230.868 206.665 232.838Z" fill="#B36334"/>
<path d="M276.975 189.045C288.125 183.415 311.445 161.025 310.235 132.775L309.985 130.095C309.985 130.095 302.095 136.695 298.575 136.925C295.055 137.155 287.655 136.105 287.775 115.795C287.895 95.4852 282.145 94.8952 280.145 95.2552C278.145 95.6052 272.765 106.535 269.695 106.055C262.725 104.955 258.794 77.7852 246.564 77.7852C236.335 77.7852 231.445 100.755 221.745 101.955C213.945 102.915 215.355 86.6552 206.515 84.3652C200.435 82.7952 196.215 107.175 193.215 115.765C190.215 124.345 186.145 126.705 183.505 126.325C179.065 125.675 177.245 119.465 173.935 119.465C170.615 119.465 167.585 124.695 166.825 127.675C166.065 130.655 165.405 154.575 178.945 165.305L188.385 169.235L196.645 186.505L212.105 194.145L231.925 197.915L245.435 200.465L276.975 189.045Z" fill="#B15928"/>
<path d="M245.505 201.207L211.775 194.777L196.075 187.027L187.825 169.787L178.475 165.867C164.275 154.607 165.505 129.777 166.095 127.467C166.855 124.507 170.025 118.697 173.935 118.697C175.875 118.697 177.245 120.277 178.705 121.957C180.125 123.587 181.595 125.277 183.615 125.577C185.965 125.937 189.715 123.497 192.505 115.517C193.255 113.377 194.105 110.137 195.015 106.707C198.025 95.2569 201.455 82.2969 206.705 83.6469C211.455 84.8769 213.435 89.7269 215.175 93.9969C216.845 98.0969 218.275 101.637 221.655 101.227C225.985 100.687 229.525 95.0669 232.945 89.6269C236.835 83.4469 240.865 77.0469 246.565 77.0469C254.125 77.0469 258.495 86.3069 262.345 94.4769C264.875 99.8469 267.275 104.927 269.815 105.327C271.155 105.547 273.885 101.717 275.685 99.1969C277.785 96.2669 278.935 94.7269 280.015 94.5369C280.985 94.3669 282.445 94.4169 283.905 95.6469C287.035 98.2869 288.595 105.077 288.525 115.817C288.475 125.217 290.015 131.467 293.115 134.387C294.565 135.757 296.335 136.347 298.525 136.197C301.215 136.017 307.365 131.327 309.505 129.537L310.605 128.617L310.985 132.727C312.175 160.407 289.645 183.507 277.315 189.737L277.235 189.777L245.505 201.207ZM212.345 193.397L245.375 199.667L276.675 188.357C288.705 182.247 310.645 159.737 309.485 132.807L309.365 131.557C306.985 133.437 301.585 137.477 298.615 137.667C295.995 137.847 293.845 137.117 292.075 135.457C288.655 132.247 286.955 125.627 287.015 115.787C287.085 102.987 284.835 98.3769 282.925 96.7669C281.915 95.9069 280.915 95.8669 280.265 95.9869C279.685 96.1469 278.075 98.3969 276.895 100.047C274.395 103.537 271.825 107.127 269.565 106.787C266.235 106.267 263.805 101.087 260.975 95.0969C257.315 87.3269 253.155 78.5269 246.555 78.5269C241.685 78.5269 237.885 84.5669 234.205 90.4069C230.595 96.1369 226.865 102.067 221.825 102.697C217.315 103.257 215.515 98.8269 213.775 94.5469C212.085 90.4069 210.335 86.1269 206.315 85.0769C202.515 84.1069 198.855 97.9169 196.445 107.067C195.495 110.677 194.675 113.797 193.905 115.997C190.815 124.827 186.435 127.487 183.385 127.047C180.805 126.667 179.085 124.687 177.555 122.927C176.275 121.457 175.175 120.187 173.915 120.187C171.255 120.187 168.315 124.787 167.535 127.827C166.675 131.207 166.575 154.417 179.315 164.617L188.925 168.617L197.195 185.907L212.345 193.397Z" fill="#853313"/>
<path d="M260.034 202.037C258.954 204.837 269.024 207.917 275.224 196.837C281.544 185.537 273.964 181.477 270.084 181.997L263.314 182.907" fill="#F0C298"/>
<path d="M264.195 205.438C262.965 205.438 261.885 205.198 261.045 204.798C259.555 204.098 258.885 202.908 259.325 201.768L260.725 202.308C260.575 202.708 261.095 203.158 261.685 203.438C264.005 204.528 270.205 204.258 274.565 196.478C277.855 190.608 277.075 187.208 275.845 185.398C274.455 183.348 271.945 182.508 270.175 182.748L263.405 183.658L263.205 182.168L269.975 181.258C272.195 180.968 275.345 181.998 277.075 184.558C278.545 186.728 279.525 190.678 275.865 197.218C272.395 203.438 267.705 205.438 264.195 205.438Z" fill="#B36334"/>
<path d="M204.195 112.309C211.195 125.109 218.255 127.369 254.375 125.109C270.765 124.089 281.345 139.099 281.345 139.099C281.345 139.099 275.695 164.069 270.985 170.199C266.275 176.329 268.625 190.109 263.325 199.649C258.025 209.189 246.545 226.609 224.005 224.899C203.165 223.319 194.375 197.419 193.955 192.109C193.955 192.109 189.775 196.109 183.245 191.109C176.855 186.209 173.615 175.339 176.935 167.199C180.795 157.749 192.045 167.199 192.045 167.199C192.045 167.199 194.155 133.889 204.195 112.309Z" fill="#F0C298"/>
<path d="M227.075 225.777C226.055 225.777 225.025 225.737 223.955 225.657C204.215 224.167 194.785 201.327 193.385 193.417C191.605 194.387 187.785 195.537 182.805 191.717C175.925 186.447 172.925 175.097 176.255 166.927C177.255 164.477 178.825 162.967 180.905 162.457C184.775 161.497 189.335 164.287 191.405 165.777C191.935 159.227 194.685 130.947 203.515 111.987L204.145 110.637L204.855 111.937C211.395 123.897 217.105 126.677 254.335 124.347C270.975 123.307 281.855 138.507 281.965 138.657L282.155 138.927L282.085 139.247C281.855 140.277 276.345 164.457 271.595 170.637C269.385 173.507 268.795 178.387 268.155 183.547C267.495 188.937 266.745 195.047 263.995 199.997C260.375 206.527 249.685 225.777 227.075 225.777ZM194.585 190.487L194.705 192.067C194.985 195.637 202.755 222.557 224.065 224.167C240.075 225.377 252.705 217.247 262.675 199.297C265.285 194.607 265.985 188.907 266.655 183.397C267.315 178.027 267.935 172.947 270.395 169.757C274.665 164.207 279.845 142.267 280.535 139.287C279.035 137.317 269.005 124.947 254.425 125.867C219.695 128.037 211.435 126.267 204.265 113.977C194.915 135.197 192.815 166.947 192.795 167.277L192.705 168.757L191.565 167.807C191.505 167.757 185.605 162.857 181.255 163.937C179.635 164.337 178.455 165.507 177.635 167.517C174.535 175.107 177.315 185.647 183.705 190.547C189.655 195.107 193.405 191.627 193.435 191.597L194.585 190.487Z" fill="#B36334"/>
<path d="M192.055 167.968C192.035 167.968 192.025 167.968 192.005 167.968C191.595 167.938 191.275 167.588 191.305 167.178C191.325 166.848 193.525 133.458 203.515 111.998L204.145 110.648L204.855 111.948C211.395 123.908 217.105 126.688 254.335 124.358C270.975 123.318 281.855 138.518 281.965 138.668C282.205 139.008 282.125 139.478 281.785 139.708C281.445 139.948 280.975 139.868 280.735 139.528C280.635 139.378 270.195 124.848 254.425 125.848C219.695 128.018 211.435 126.248 204.265 113.958C194.915 135.188 192.815 166.928 192.795 167.258C192.775 167.658 192.445 167.968 192.055 167.968Z" fill="#853313"/>
<path d="M237.395 153.997C234.375 153.997 231.914 152.207 230.604 149.987L231.464 149.477C233.074 152.207 236.694 154.207 240.844 152.127L241.294 153.017C239.934 153.697 238.615 153.997 237.395 153.997Z" fill="#E3B488"/>
<path d="M251.715 147.368L251.465 146.398C255.015 145.468 260.445 145.478 262.855 146.418L262.485 147.348C260.495 146.578 255.355 146.418 251.715 147.368Z" fill="#E3B488"/>
<path d="M251.585 161.467C248.375 158.477 252.825 153.807 258.085 153.477C263.345 153.147 270.145 157.057 268.075 160.417C267.165 161.897 262.995 160.177 260.455 159.647C257.905 159.127 253.825 163.557 251.585 161.467Z" fill="#853313"/>
<path d="M219.515 153.869C224.715 153.149 220.515 144.669 214.175 143.909C207.585 143.119 202.255 146.149 202.925 148.529C203.595 150.909 209.385 148.929 212.695 150.719C215.705 152.339 216.665 154.259 219.515 153.869Z" fill="#853313"/>
<path d="M284.224 146.548C283.814 142.028 281.354 139.098 281.354 139.098L284.224 146.548Z" fill="#B15928"/>
<path d="M284.225 147.297C283.845 147.297 283.515 147.007 283.475 146.617C283.085 142.387 280.795 139.617 280.775 139.587C280.505 139.267 280.545 138.797 280.865 138.527C281.185 138.257 281.655 138.297 281.925 138.617C282.035 138.747 284.545 141.777 284.975 146.477C285.015 146.887 284.705 147.257 284.295 147.297C284.265 147.297 284.245 147.297 284.225 147.297Z" fill="#853313"/>
<path d="M276.895 153.249C276.895 153.249 274.515 133.149 259.475 132.739C239.245 132.179 227.795 133.299 215.365 124.199C215.365 124.199 221.565 126.889 234.225 126.629C246.885 126.359 255.395 125.439 259.605 126.099C263.815 126.759 272.165 128.949 280.515 139.249L276.895 153.249Z" fill="#E3B488"/>
<path d="M237.035 206.677C236.645 206.677 236.215 206.637 235.755 206.537C234.195 206.197 233.625 204.907 233.125 203.767C232.675 202.737 232.275 201.847 231.255 201.577C230.575 201.407 229.705 201.647 228.785 201.897C227.255 202.327 225.355 202.847 223.995 201.197C221.575 198.257 218.685 199.727 215.925 201.487C215.455 201.787 215.085 202.027 214.765 202.167C212.245 203.297 210.625 200.527 210.015 199.487C209.805 199.127 209.925 198.667 210.285 198.457C210.645 198.247 211.105 198.367 211.315 198.727C212.675 201.057 213.485 201.097 214.155 200.797C214.365 200.707 214.715 200.477 215.115 200.227C217.245 198.867 221.695 196.037 225.155 200.257C225.855 201.117 226.845 200.897 228.385 200.467C229.455 200.167 230.565 199.857 231.625 200.137C233.355 200.587 233.985 202.017 234.495 203.177C234.965 204.247 235.295 204.917 236.075 205.087C238.045 205.507 239.155 204.527 239.195 204.487C239.495 204.207 239.975 204.227 240.255 204.517C240.535 204.817 240.525 205.287 240.235 205.567C240.175 205.597 239.035 206.677 237.035 206.677Z" fill="#9C3116"/>
<path d="M219.535 205.008C221.565 207.678 224.955 209.588 229.655 207.078L219.535 205.008Z" fill="#F0C298"/>
<path d="M225.455 208.988C222.975 208.988 220.715 207.798 218.945 205.458C218.695 205.128 218.755 204.658 219.085 204.408C219.415 204.158 219.885 204.218 220.135 204.548C221.805 206.748 224.755 208.848 229.305 206.408C229.675 206.208 230.125 206.348 230.315 206.718C230.515 207.078 230.375 207.538 230.005 207.728C228.455 208.578 226.915 208.988 225.455 208.988Z" fill="#B36334"/>
<path d="M231.325 177.367C231.005 183.097 233.585 187.947 233.915 189.287C234.235 190.627 233.095 193.967 229.665 193.767C226.385 193.587 224.255 191.407 223.565 189.467" fill="#F0C298"/>
<path d="M229.945 194.529C229.835 194.529 229.725 194.529 229.615 194.519C226.055 194.319 223.655 191.969 222.855 189.729C222.715 189.339 222.915 188.909 223.305 188.769C223.695 188.629 224.125 188.829 224.265 189.219C224.895 190.989 226.825 192.859 229.705 193.019C230.835 193.089 231.735 192.709 232.395 191.919C233.125 191.039 233.305 189.929 233.185 189.459C233.125 189.219 232.945 188.749 232.735 188.209C231.885 186.029 230.315 181.959 230.575 177.319C230.595 176.909 230.985 176.569 231.365 176.609C231.775 176.629 232.095 176.989 232.075 177.399C231.835 181.719 233.325 185.589 234.135 187.669C234.385 188.309 234.565 188.769 234.645 189.109C234.875 190.059 234.565 191.659 233.545 192.879C232.905 193.649 231.775 194.529 229.945 194.529Z" fill="#B36334"/>
<path d="M190.295 153.917C196.195 153.587 215.675 154.657 227.925 164.557C227.925 164.557 233.275 164.707 236.575 166.187C236.575 166.187 254.375 162.457 270.615 170.617C270.615 170.617 274.435 170.967 275.215 171.137V175.737C275.215 175.737 271.305 177.127 270.355 180.857C269.395 184.587 267.415 196.687 252.655 195.817C237.895 194.947 233.485 181.447 234.405 173.557C234.405 173.557 234.125 170.647 231.535 170.307C228.945 169.967 228.045 171.657 227.535 173.067C227.025 174.477 219.995 188.047 208.615 186.467C197.245 184.887 190.945 179.877 191.215 169.347C191.385 162.817 190.875 160.167 190.875 159.667L189.465 158.937L190.295 153.917Z" fill="url(#paint0_linear)"/>
<path d="M239.715 169.028C237.425 171.218 236.165 180.298 239.355 186.388C242.545 192.478 254.215 195.678 260.955 192.088C267.695 188.498 268.575 178.638 267.975 175.788C267.375 172.938 266.165 169.288 252.785 167.768C245.175 166.908 239.715 169.028 239.715 169.028Z" fill="url(#paint1_linear)"/>
<path d="M224.825 166.818C224.435 172.038 220.725 184.048 208.835 183.818C196.945 183.588 194.245 175.738 193.575 172.598C192.905 169.458 193.685 160.368 197.675 158.568C201.665 156.768 208.465 157.778 215.525 160.138C222.585 162.498 224.825 166.818 224.825 166.818Z" fill="url(#paint2_linear)"/>
<path d="M182.465 168.672C185.785 170.712 189.955 172.082 190.545 184.712L182.465 168.672Z" fill="#F0C298"/>
<path d="M190.545 185.46C190.145 185.46 189.815 185.15 189.795 184.75C189.275 173.54 185.895 171.55 182.905 169.81C182.625 169.64 182.345 169.48 182.075 169.32C181.725 169.1 181.615 168.64 181.825 168.29C182.035 167.94 182.505 167.83 182.855 168.04C183.115 168.2 183.385 168.36 183.655 168.52C186.975 170.46 190.725 172.66 191.285 184.69C191.305 185.1 190.985 185.46 190.575 185.47C190.565 185.46 190.555 185.46 190.545 185.46Z" fill="#B36334"/>
<path d="M185.205 186.71C185.125 186.71 185.045 186.69 184.975 186.65C181.905 185.02 181.045 181.57 180.345 174.92C180.315 174.65 180.515 174.4 180.795 174.37C181.075 174.34 181.315 174.54 181.345 174.82C181.995 181.11 182.775 184.35 185.445 185.77C185.685 185.9 185.785 186.2 185.655 186.45C185.555 186.62 185.375 186.71 185.205 186.71Z" fill="#D79B6F"/>
<path d="M185.785 181.719C184.745 178.399 186.725 175.559 189.485 177.369L185.785 181.719Z" fill="#F0C298"/>
<path d="M185.785 182.469C185.465 182.469 185.165 182.259 185.065 181.939C184.385 179.759 184.825 177.619 186.175 176.599C187.215 175.819 188.565 175.869 189.885 176.729C190.235 176.959 190.325 177.419 190.095 177.769C189.865 178.119 189.405 178.209 189.055 177.979C188.505 177.619 187.725 177.299 187.065 177.789C186.365 178.319 185.945 179.749 186.485 181.479C186.605 181.879 186.385 182.299 185.995 182.419C185.935 182.459 185.865 182.469 185.785 182.469Z" fill="#B36334"/>
<path d="M121.025 302.039C121.015 301.569 121.045 301.249 121.125 301.089C122.175 298.789 136.415 277.429 146.465 267.789L170.295 280.179L139.185 306.189" fill="#F0C298"/>
<path d="M139.185 306.929C138.975 306.929 138.755 306.839 138.605 306.659C138.335 306.339 138.385 305.869 138.695 305.599L168.935 280.309L146.585 268.689C136.755 278.309 122.855 299.039 121.795 301.389C121.795 301.389 121.755 301.549 121.765 302.009C121.775 302.419 121.455 302.769 121.035 302.779C120.635 302.799 120.275 302.469 120.265 302.049C120.245 301.269 120.345 300.949 120.425 300.769C121.525 298.349 135.965 276.789 145.935 267.229L146.325 266.859L171.625 280.009L139.655 306.739C139.525 306.869 139.355 306.929 139.185 306.929Z" fill="#B36334"/>
<path d="M273.335 189.25C269.115 189.25 264.775 191.99 266.825 198.73L273.335 189.25Z" fill="#F0C298"/>
<path d="M266.825 199.48C266.505 199.48 266.205 199.27 266.105 198.95C264.925 195.09 265.845 192.71 266.815 191.39C268.175 189.55 270.545 188.5 273.325 188.5C273.735 188.5 274.075 188.84 274.075 189.25C274.075 189.66 273.735 190 273.325 190C271.025 190 269.085 190.83 268.015 192.28C266.915 193.77 266.745 195.92 267.535 198.51C267.655 198.91 267.435 199.33 267.035 199.45C266.965 199.47 266.895 199.48 266.825 199.48Z" fill="#B36334"/>
<path d="M282.495 266.988C287.405 279.388 315.465 318.088 324.465 314.538C333.455 310.998 331.685 303.088 328.825 291.778C325.965 280.468 318.625 262.538 315.305 259.538C315.305 259.538 316.855 249.888 314.995 244.758L308.125 237.098" fill="#F0C298"/>
<path d="M323.255 315.499C312.245 315.499 286.155 278.269 281.795 267.259L283.185 266.709C288.685 280.619 316.285 316.979 324.185 313.839C332.375 310.619 331.085 303.779 328.095 291.969C325.175 280.429 317.845 262.859 314.805 260.099L314.505 259.829L314.565 259.429C314.575 259.339 316.035 250.079 314.345 245.159L307.575 237.609L308.695 236.609L315.665 244.379L315.715 244.519C317.425 249.239 316.385 257.409 316.115 259.289C319.755 263.189 326.865 280.969 329.565 291.609C332.245 302.219 334.565 311.379 324.755 315.249C324.275 315.419 323.785 315.499 323.255 315.499Z" fill="#B36334"/>
<path d="M157.295 279.027L178.925 352.857L166.025 345.787L147.725 282.987L157.295 279.027Z" fill="#5D09B5"/>
<path d="M295.145 248.488C293.165 248.488 291.775 247.328 290.895 244.928L291.835 244.578C292.565 246.558 293.625 247.478 295.155 247.478C295.175 247.478 295.195 247.478 295.215 247.478L295.225 248.478C295.195 248.488 295.175 248.488 295.145 248.488Z" fill="#004EE4"/>
<path d="M148.705 286.348L158.455 282.988L159.435 286.348L149.395 288.698L148.705 286.348Z" fill="#9963C9"/>
<path d="M198.054 329.735L185.963 333.457L186.258 334.413L198.348 330.691L198.054 329.735Z" fill="#004EE4"/>
<path d="M198.844 331.918L186.518 335.891L186.825 336.842L199.151 332.869L198.844 331.918Z" fill="#004EE4"/>
<path d="M155.615 291.247C156.785 291.247 157.735 290.978 157.735 290.647C157.735 290.316 156.785 290.047 155.615 290.047C154.444 290.047 153.495 290.316 153.495 290.647C153.495 290.978 154.444 291.247 155.615 291.247Z" fill="#ECE1E4"/>
<path d="M156.295 294.28C157.311 294.28 158.135 293.993 158.135 293.64C158.135 293.287 157.311 293 156.295 293C155.278 293 154.455 293.287 154.455 293.64C154.455 293.993 155.278 294.28 156.295 294.28Z" fill="#ECE1E4"/>
<path d="M223.555 237.5C234.515 237.97 245.255 229.56 250.545 219.64C254.395 212.42 282.215 215.16 291.365 232.47C300.515 249.78 293.295 260.31 293.295 260.31L278.925 270.36L271.275 259.36C271.275 259.36 281.835 307.42 283.025 332.07C284.215 356.72 179.935 373.63 179.935 373.63V354.28C179.935 354.28 186.805 267.71 192.125 260.99L170.765 285.85C170.765 285.85 145.715 268.73 142.455 264.46C142.455 264.46 175.165 219.23 205.865 225.04C205.855 225.03 209.535 236.21 223.555 237.5Z" fill="#28BC98"/>
<path d="M179.935 374.38C179.755 374.38 179.585 374.32 179.445 374.2C179.275 374.06 179.185 373.85 179.185 373.63V354.28C179.435 351.04 184.855 283.35 189.875 264.76L171.335 286.33C171.085 286.62 170.655 286.67 170.345 286.46C169.315 285.76 145.155 269.23 141.855 264.9C141.655 264.64 141.655 264.27 141.845 264.01C143.195 262.15 175.195 218.47 205.995 224.29C206.265 224.34 206.485 224.53 206.565 224.79C206.715 225.23 210.285 235.51 223.605 236.75C235.015 237.22 245.215 228.04 249.875 219.29C251.275 216.66 255.305 215.16 260.925 215.16C260.945 215.16 260.955 215.16 260.975 215.16C271.615 215.18 285.865 220.49 292.015 232.12C301.275 249.63 294.205 260.29 293.895 260.74C293.845 260.81 293.785 260.88 293.705 260.93L279.335 270.98C279.175 271.09 278.965 271.14 278.775 271.1C278.575 271.06 278.405 270.95 278.295 270.79L272.775 262.85C275.245 274.55 282.775 311.55 283.765 332.04C284.975 357.07 184.325 373.68 180.045 374.37C180.015 374.37 179.975 374.38 179.935 374.38ZM192.125 260.24C192.295 260.24 192.465 260.3 192.605 260.41C192.915 260.67 192.965 261.13 192.715 261.45C188.615 266.62 183.055 324.47 180.685 354.33V372.74C190.715 371.03 283.375 354.64 282.275 332.11C281.095 307.81 270.645 260 270.535 259.52C270.455 259.17 270.635 258.81 270.965 258.67C271.295 258.53 271.675 258.63 271.885 258.93L279.105 269.31L292.735 259.78C293.425 258.65 299.025 248.58 290.695 232.82C285.095 222.23 271.505 216.67 260.985 216.66C260.965 216.66 260.955 216.66 260.935 216.66C255.955 216.66 252.315 217.91 251.205 219.99C246.325 229.15 235.585 238.79 223.525 238.24C223.515 238.24 223.505 238.24 223.485 238.24C210.725 237.07 206.185 227.8 205.305 225.69C177.205 220.78 146.975 259.68 143.405 264.42C147.345 268.76 167.055 282.39 170.635 284.84L191.555 260.49C191.705 260.33 191.915 260.24 192.125 260.24Z" fill="#22997A"/>
<path d="M222.035 364.738C209.685 354.188 203.815 333.338 203.815 333.338L182.975 320.508C182.975 320.508 180.715 358.198 180.685 360.368C180.655 362.538 180.685 372.778 180.685 372.778L199.505 373.628L222.035 364.738Z" fill="#22997A"/>
<path d="M231.415 257.078L236.455 264.298H245.315L239.715 271.598L240.885 280.548L233.705 275.978L225.185 281.248L226.635 272.548L220.265 266.348L228.485 265.818L231.415 257.078Z" fill="#9BF7DB"/>
<path d="M161.625 251.229C171.015 244.369 192.785 230.779 202.205 230.919C211.635 231.059 198.395 223.879 182.455 233.769C166.535 243.669 160.365 250.809 161.625 251.229Z" fill="#47D6B0"/>
<path d="M185.365 280.547L202.215 344.747L190.155 350.367L173.795 284.327L185.365 280.547Z" fill="#095FAD"/>
<path d="M183.265 272.468L201.775 343.088L211.575 338.508L194.725 269.258L183.265 272.468Z" fill="#EF7903"/>
<path d="M250.545 224.479C260.535 221.959 278.235 225.599 287.615 234.569C296.995 243.539 288.655 222.349 270.615 218.319C252.585 214.279 247.415 224.339 250.545 224.479Z" fill="#47D6B0"/>
<path d="M195.542 272.657L184.066 275.531L184.309 276.501L195.785 273.627L195.542 272.657Z" fill="#EFB27B"/>
<path d="M195.859 274.074L184.604 277.684L184.909 278.636L196.164 275.026L195.859 274.074Z" fill="#EFB27B"/>
<path d="M198.639 331.398L186.434 335.512L186.753 336.459L198.959 332.345L198.639 331.398Z" fill="#80A0B5"/>
<path d="M199.187 333.421L186.887 337.566L187.206 338.514L199.506 334.368L199.187 333.421Z" fill="#80A0B5"/>
<path d="M312.104 299.706C309.004 290.296 305.134 271.706 303.364 267.166C301.594 262.626 289.464 260.086 287.444 255.896C285.424 251.706 287.674 248.016 285.894 244.266C284.114 240.516 268.944 227.936 271.584 223.636C274.224 219.336 288.104 239.956 292.404 238.376C295.904 237.086 281.354 218.176 285.834 214.796C290.314 211.416 297.454 233.766 299.384 236.286C299.384 236.286 300.844 227.986 305.914 229.406C309.644 230.456 309.334 235.666 309.334 235.666C309.334 235.666 310.174 233.106 313.314 233.726C316.454 234.346 315.704 238.766 315.654 241.806C315.614 244.856 314.774 248.566 312.164 248.516C309.554 248.476 309.694 243.086 310.084 238.396C310.084 238.396 310.094 245.866 307.284 245.906" fill="#F0C298"/>
<path d="M312.105 300.458C311.785 300.458 311.495 300.258 311.395 299.938C309.765 294.998 307.925 287.528 306.305 280.938C304.865 275.088 303.495 269.558 302.665 267.438C301.855 265.358 298.275 263.598 294.805 261.898C291.235 260.138 287.855 258.478 286.765 256.228C285.645 253.898 285.735 251.768 285.835 249.708C285.915 247.928 285.995 246.238 285.215 244.598C284.665 243.438 282.485 241.108 280.175 238.638C274.885 232.988 268.895 226.588 270.945 223.248C271.275 222.708 271.775 222.378 272.375 222.318C274.485 222.068 277.575 225.058 282.415 229.998C285.835 233.488 290.545 238.288 292.135 237.678C292.705 236.948 290.295 232.148 288.855 229.278C285.685 222.968 282.405 216.438 285.375 214.198C285.995 213.728 286.705 213.588 287.445 213.788C290.615 214.638 293.845 221.778 297.425 230.308C298.045 231.778 298.635 233.198 299.125 234.248C299.665 232.588 300.685 230.288 302.465 229.168C303.565 228.478 304.785 228.318 306.105 228.688C308.745 229.428 309.635 231.858 309.935 233.648C310.725 233.058 311.875 232.678 313.445 232.988C316.755 233.638 316.575 237.558 316.445 240.418C316.425 240.908 316.405 241.378 316.395 241.818C316.375 243.228 316.145 246.698 314.425 248.358C313.785 248.978 313.045 249.258 312.145 249.278C311.465 249.268 310.865 248.988 310.405 248.478C309.815 247.828 309.465 246.788 309.285 245.528C308.795 246.208 308.145 246.658 307.295 246.668C306.845 246.658 306.545 246.348 306.535 245.928C306.525 245.518 306.855 245.178 307.275 245.168C308.255 245.158 308.875 243.188 309.155 241.088C309.195 240.178 309.265 239.258 309.335 238.348C309.365 237.948 309.685 237.648 310.115 237.658C310.515 237.678 310.835 238.008 310.835 238.408C310.835 238.888 310.815 240.038 310.645 241.328C310.555 243.668 310.635 246.498 311.525 247.468C311.715 247.678 311.915 247.768 312.175 247.768C312.645 247.748 313.035 247.618 313.385 247.278C314.295 246.398 314.865 244.348 314.895 241.798C314.905 241.338 314.925 240.848 314.945 240.348C315.095 237.138 315.045 234.828 313.155 234.458C310.695 233.968 310.065 235.818 310.035 235.898C309.915 236.258 309.555 236.468 309.185 236.398C308.815 236.328 308.555 235.998 308.575 235.618C308.575 235.568 308.795 230.988 305.705 230.118C304.805 229.868 304.005 229.968 303.275 230.428C301.335 231.648 300.335 235.158 300.115 236.408C300.065 236.698 299.845 236.938 299.555 237.008C299.265 237.078 298.965 236.968 298.785 236.738C298.225 235.998 297.415 234.128 296.055 230.878C293.705 225.298 289.785 215.958 287.065 215.228C286.775 215.148 286.545 215.198 286.285 215.388C284.325 216.868 287.725 223.648 290.205 228.598C292.755 233.688 294.175 236.638 293.555 238.188C293.385 238.608 293.075 238.918 292.655 239.068C290.305 239.938 286.815 236.608 281.345 231.028C278.175 227.798 274.245 223.788 272.635 223.788C272.605 223.788 272.565 223.788 272.535 223.788C272.415 223.798 272.325 223.848 272.215 224.018C270.765 226.378 277.085 233.128 281.255 237.598C283.855 240.378 285.905 242.568 286.555 243.938C287.495 245.918 287.405 247.878 287.325 249.768C287.235 251.728 287.145 253.578 288.105 255.568C288.965 257.358 292.265 258.978 295.455 260.548C299.175 262.378 303.025 264.268 304.055 266.888C304.915 269.098 306.235 274.418 307.755 280.578C309.375 287.138 311.205 294.578 312.815 299.468C312.945 299.858 312.735 300.288 312.335 300.418C312.255 300.438 312.175 300.458 312.105 300.458Z" fill="#B36334"/>
<path d="M154.835 271.048L178.925 352.858L188.805 344.918L169.525 266.148L154.835 271.048Z" fill="#EFD259"/>
<path d="M173.555 282.598L174.055 284.648L160.105 288.958L159.235 286.018L173.555 282.598Z" fill="#F9E487"/>
<path d="M156.295 275.847L170.825 271.457L173.235 281.317L158.875 284.777L156.295 275.847Z" fill="#F9E487"/>
<path d="M290.615 249.939C293.685 250.209 298.385 245.309 301.515 242.379C304.645 239.449 309.435 241.629 307.795 245.029C306.155 248.439 299.055 253.139 298.785 257.229" fill="#F0C298"/>
<path d="M298.785 257.98C298.765 257.98 298.755 257.98 298.735 257.98C298.325 257.95 298.005 257.6 298.035 257.18C298.215 254.46 300.865 251.75 303.425 249.13C305.015 247.5 306.515 245.97 307.115 244.71C307.745 243.39 307.075 242.63 306.625 242.3C305.555 241.52 303.585 241.47 302.025 242.93C301.655 243.27 301.275 243.64 300.865 244.03C297.625 247.12 293.595 250.96 290.545 250.69C290.135 250.65 289.825 250.29 289.865 249.88C289.905 249.47 290.265 249.17 290.675 249.2C293.055 249.42 296.965 245.67 299.825 242.94C300.235 242.55 300.625 242.18 300.995 241.83C303.145 239.82 305.955 239.94 307.515 241.08C308.885 242.09 309.255 243.72 308.475 245.35C307.765 246.83 306.185 248.45 304.505 250.17C302.245 252.48 299.685 255.11 299.535 257.27C299.505 257.68 299.185 257.98 298.785 257.98Z" fill="#B36334"/>
<path d="M303.265 233.777C302.825 237.087 303.495 241.217 303.495 241.217L303.265 233.777Z" fill="#F0C298"/>
<path d="M303.495 241.969C303.135 241.969 302.815 241.709 302.755 241.339C302.725 241.169 302.075 237.059 302.525 233.679C302.575 233.269 302.965 232.979 303.365 233.039C303.775 233.089 304.065 233.469 304.005 233.879C303.585 237.049 304.225 241.059 304.225 241.099C304.295 241.509 304.015 241.889 303.605 241.959C303.575 241.959 303.535 241.969 303.495 241.969Z" fill="#B36334"/>
<path d="M203.025 225.358C203.335 238.288 213.745 261.998 232.355 261.998C250.965 261.998 253.145 228.308 251.125 220.108C251.125 220.108 251.565 219.308 252.115 218.858C252.925 218.188 254.345 217.648 254.345 217.648C254.345 217.648 257.545 235.208 252.045 247.988C246.545 260.778 240.405 265.148 231.575 265.668C222.745 266.188 208.045 259.578 201.475 237.488C201.475 237.488 198.885 229.708 198.735 225.308L203.025 225.358Z" fill="#FFC933"/>
<path d="M134.005 287.558L149.395 336.018L166.025 345.788L147.725 282.988L134.005 287.558Z" fill="#C12F56"/>
<path d="M136.375 295.03L150.015 290.84L152.815 300.45L139.385 304.53L136.375 295.03Z" fill="#CEA3CE"/>
<path d="M139.185 306.18C142.455 315.98 178.135 352.87 178.135 352.87C179.485 351.02 194.685 338.84 196.045 341.66C197.395 344.48 189.885 349.31 189.885 349.31C195.985 348.41 203.375 343.47 206.775 341.14C208.045 340.27 209.315 342.09 208.535 343.43C198.175 361.14 173.005 360.16 173.005 360.16C131.435 339.94 121.625 311.01 120.655 303.07L120.575 301.98" fill="#F0C298"/>
<path d="M173.555 360.899C173.195 360.899 172.985 360.889 172.965 360.889L172.805 360.879L172.665 360.809C124.615 337.439 119.935 303.479 119.895 303.129L119.805 302.009C119.775 301.599 120.085 301.239 120.495 301.199C120.905 301.189 121.265 301.479 121.305 301.889L121.385 302.979C121.425 303.279 125.985 336.369 173.175 359.379C175.265 359.419 198.285 359.419 207.875 343.019C208.135 342.579 207.995 342.019 207.705 341.759C207.495 341.569 207.335 341.629 207.185 341.729C204.545 343.539 196.525 349.059 189.985 350.019L186.555 350.529L189.475 348.649C192.275 346.839 196.085 343.469 195.365 341.959C193.735 341.129 180.515 350.859 178.745 353.289L178.215 354.009L177.595 353.369C176.135 351.859 141.755 316.249 138.475 306.399C138.345 306.009 138.555 305.579 138.945 305.449C139.335 305.319 139.765 305.529 139.895 305.919C142.855 314.789 173.635 347.069 178.125 351.759C180.965 348.989 192.005 340.119 195.425 340.469C196.025 340.519 196.475 340.819 196.705 341.309C197.665 343.319 195.505 345.799 193.385 347.599C198.715 345.729 204.245 341.919 206.335 340.489C207.105 339.959 208.045 340.029 208.725 340.659C209.565 341.439 209.745 342.779 209.165 343.779C199.605 360.159 177.455 360.899 173.555 360.899Z" fill="#B36334"/>
<path opacity="0.3" d="M213.195 159.418L198.335 180.538C198.335 180.538 197.315 179.678 196.885 179.188C195.875 178.048 195.755 177.758 195.755 177.758L210.105 158.598L213.195 159.418Z" fill="white"/>
<path opacity="0.3" d="M202.865 157.66L193.355 169.58C193.355 169.58 193.185 171.54 193.785 173.6C194.085 174.65 194.735 176.03 194.735 176.03L209.075 158.39C209.075 158.39 206.975 157.92 205.655 157.8C204.215 157.66 202.865 157.66 202.865 157.66Z" fill="white"/>
<path opacity="0.3" d="M251.585 167.656L238.955 185.576C238.955 185.576 238.295 184.006 237.875 182.136C237.535 180.626 237.425 178.856 237.445 178.026L245.285 167.796L248.065 167.566L251.585 167.656Z" fill="white"/>
<path opacity="0.3" d="M257.125 168.409L241.685 189.259C241.685 189.259 240.855 188.479 240.605 188.189C240.365 187.919 239.725 187.019 239.725 187.019L253.685 167.879L257.125 168.409Z" fill="white"/>
<path d="M191.925 280.7C193.096 280.7 194.045 280.431 194.045 280.1C194.045 279.769 193.096 279.5 191.925 279.5C190.754 279.5 189.805 279.769 189.805 280.1C189.805 280.431 190.754 280.7 191.925 280.7Z" fill="#ECE1E4"/>
<path d="M192.605 283.737C193.621 283.737 194.445 283.45 194.445 283.097C194.445 282.744 193.621 282.457 192.605 282.457C191.588 282.457 190.765 282.744 190.765 283.097C190.765 283.45 191.588 283.737 192.605 283.737Z" fill="#ECE1E4"/>
</g>
<defs>
<linearGradient id="paint0_linear" x1="186.851" y1="147.621" x2="246.927" y2="183.238" gradientUnits="userSpaceOnUse">
<stop stop-color="#04D297"/>
<stop offset="1" stop-color="#67AB97"/>
</linearGradient>
<linearGradient id="paint1_linear" x1="239.283" y1="168.201" x2="262.86" y2="188.285" gradientUnits="userSpaceOnUse">
<stop offset="0.2751" stop-color="#EF7B35"/>
<stop offset="0.7672" stop-color="#EA526D"/>
</linearGradient>
<linearGradient id="paint2_linear" x1="193.079" y1="156.633" x2="222.987" y2="183.703" gradientUnits="userSpaceOnUse">
<stop offset="0.2593" stop-color="#EF7B35"/>
<stop offset="0.7196" stop-color="#EA526D"/>
</linearGradient>
<clipPath id="clip0">
<rect width="454" height="410" fill="white"/>
</clipPath>
</defs>
</svg>
