<svg width="263" height="206" viewBox="0 0 263 206" fill="none" xmlns="http://www.w3.org/2000/svg">
<path d="M112.211 1.90195C133.855 3.9485 141.269 22.2176 141.269 22.2176L228.436 38.3404C228.436 38.3404 263.95 55.761 262.981 79.6306C262.011 103.5 246.513 94.795 240.377 116.079C234.241 137.363 240.377 178.653 223.589 192.52C206.801 206.386 135.124 195.425 135.124 195.425L46.9881 195.744C46.9881 195.744 31.7292 191.861 30.8499 166.714C30.2003 148.335 16.92 148.484 6.5576 133.599C-3.80484 118.715 0.571965 96.1128 3.20005 89.8434C5.82813 83.574 19.9878 57.3183 43.3507 51.1887C43.3507 51.1887 56.781 28.7266 60.5782 22.018C64.3654 15.3293 79.2546 -1.21278 112.211 1.90195Z" fill="#DAE7ED"/>
<path d="M41.1822 86.1641C37.5948 92.5732 25.7135 116.133 41.1822 130.27C56.6509 144.406 62.1269 166.269 66.2739 171.739C70.4209 177.21 83.0616 179.087 97.0314 171.739C110.991 164.392 99.4797 121.415 99.4797 121.415L41.1822 86.1641Z" fill="#AED6E8"/>
<path d="M123.033 198.172C135.993 197.952 142.948 203.053 152.261 203.253C159.886 203.413 165.222 201.726 181.49 203.253C197.758 204.781 245.034 208.584 248.591 203.253C252.148 197.922 187.845 185.473 174.115 181.41C160.385 177.347 132.686 184.455 115.398 185.982C98.1108 187.51 50.8353 194.109 39.1438 196.644C27.4524 199.18 42.9611 204.261 55.6618 204.521C68.3725 204.771 89.8369 206.018 105.485 200.967C112.79 198.611 117.457 198.262 123.033 198.172Z" fill="#829CAE"/>
<path d="M213.797 194.789H129.388C121.274 194.789 114.689 188.211 114.689 180.104V25.5954C114.689 17.489 121.274 10.9102 129.388 10.9102H213.797C221.911 10.9102 228.496 17.489 228.496 25.5954V180.104C228.496 188.221 221.911 194.789 213.797 194.789Z" fill="#353535"/>
<path d="M213.796 195.288H129.388C121.004 195.288 114.189 188.479 114.189 180.103V25.5945C114.189 17.2187 121.004 10.4102 129.388 10.4102H213.796C222.18 10.4102 228.995 17.2187 228.995 25.5945V180.103C228.995 188.479 222.17 195.288 213.796 195.288ZM129.378 11.4085C121.554 11.4085 115.178 17.7677 115.178 25.5945V180.103C115.178 187.92 121.544 194.29 129.378 194.29H213.786C221.611 194.29 227.986 187.92 227.986 180.103V25.5945C227.986 17.7677 221.611 11.4085 213.786 11.4085H129.378Z" fill="#060606"/>
<path d="M223.869 23.8594H124.211V172.099H223.869V23.8594Z" fill="white"/>
<path d="M124.212 23.8594H41.1724V172.099H124.212V23.8594Z" fill="#EFEFEF"/>
<path d="M124.711 172.587H40.6724V23.3594H124.711V172.587ZM41.6716 171.589H123.712V24.3577H41.6716V171.589Z" fill="#75A2AC"/>
<path d="M67.8433 1.51398V151.011C67.8433 151.011 108.294 149.394 124.212 172.086V23.8562C124.212 23.8562 103.687 -5.27455 67.8433 1.51398Z" fill="white"/>
<path d="M124.711 173.674L123.802 172.376C108.223 150.164 68.2626 151.492 67.8629 151.512L67.3433 151.532V1.10575L67.753 1.02588C103.507 -5.75266 124.422 23.2683 124.621 23.5678L124.711 23.6976V173.674ZM69.3618 150.493C76.7864 150.493 109.113 151.621 123.712 170.569V24.017C122.193 21.9605 102.018 -4.20527 68.3425 1.93435V150.503C68.5924 150.493 68.9321 150.493 69.3618 150.493Z" fill="#75A2AC"/>
<path d="M134.015 36.9961V65.3382H146.386C159.556 65.448 153.66 62.0737 156.188 61.0255C158.717 59.9773 169.439 61.0255 169.439 61.0255V36.9961H134.015Z" fill="#FFF6E8"/>
<path d="M153.79 53.6698L155.489 51.9727L163.073 60.7378L162.804 66.4083L150.173 63.2336L153.79 53.6698Z" fill="#53594D"/>
<path d="M158.737 60.7754L149.373 47.3281L134.314 58.3894V66.4059L158.457 66.0066L158.737 60.7754Z" fill="#787648"/>
<path d="M156.108 61.1958C153.62 62.2341 159.426 65.5385 146.475 65.4386H134.324V71.2788H169.139V61.1958C169.129 61.1958 158.587 60.1576 156.108 61.1958Z" fill="#6596C1"/>
<path d="M136.303 45.9901C139.221 46.4793 147.615 47.7971 148.074 45.3412C148.524 42.8854 147.395 44.303 146.436 43.2747C145.486 42.2365 145.746 41.2082 143.608 41.2681C141.469 41.328 140.83 41.328 139.401 43.2049C137.982 45.0817 137.982 44.1133 136.683 44.6225C135.404 45.1516 134.884 45.7505 136.303 45.9901Z" fill="#CEE0F0"/>
<path d="M156.728 49.6631C158.117 49.2338 159.556 48.7047 160.735 49.6631C161.914 50.6215 162.604 49.3935 163.303 50.3619C164.003 51.3203 162.983 51.5599 161.964 51.9692C160.945 52.3785 162.234 52.8178 160.255 53.2371C158.277 53.6663 157.368 53.287 156.728 53.2371C156.089 53.1871 152.831 52.9875 153.47 51.9692C154.11 50.9409 154.43 51.0507 155.129 50.2521C155.819 49.4435 156.728 49.6631 156.728 49.6631Z" fill="white"/>
<path d="M149.693 41.6477C151.652 41.7875 153.34 41.7376 152.741 40.919C152.141 40.1003 151.862 40.3799 153.82 39.9406C155.779 39.5014 156.808 38.6328 153.82 38.3134C150.832 37.9839 147.195 37.5546 147.515 38.533C147.844 39.5113 147.675 39.6211 145.936 39.8408C144.197 40.0604 144.037 40.33 146.096 40.7093C148.174 41.0787 149.693 41.6477 149.693 41.6477Z" fill="white"/>
<path d="M156.568 40.6893C155.619 40.9588 157.038 41.5877 155.629 42.2067C154.22 42.8256 153.42 43.5744 156.568 44.1634C159.726 44.7524 160.895 44.1634 162.124 45.5011C163.353 46.8389 165.062 48.3862 166.671 46.2998C168.269 44.2133 166.351 43.8938 166.99 43.0453C167.63 42.1867 169.499 40.4397 165.921 40.3598C162.344 40.27 157.797 40.3398 156.568 40.6893Z" fill="#CEE0F0"/>
<path d="M182.559 124.777V153.119H194.93C208.1 153.229 202.205 149.855 204.733 148.807C207.261 147.759 217.983 148.807 217.983 148.807V124.777H182.559Z" fill="#FFF6E8"/>
<path d="M202.335 141.459L204.033 139.762L211.618 148.527L211.348 154.197L198.717 151.023L202.335 141.459Z" fill="#53594D"/>
<path d="M207.281 148.568L197.918 135.121L182.859 146.182V154.199L207.001 153.8L207.281 148.568Z" fill="#787648"/>
<path d="M204.653 148.985C202.165 150.023 207.971 153.328 195.02 153.228H182.869V159.068H217.684V148.985C217.674 148.985 207.131 147.947 204.653 148.985Z" fill="#6596C1"/>
<path d="M184.848 133.771C187.765 134.261 196.159 135.578 196.619 133.123C197.069 130.667 195.939 132.084 194.98 131.056C194.031 130.018 194.291 128.989 192.152 129.049C190.014 129.109 189.374 129.109 187.945 130.986C186.526 132.863 186.526 131.895 185.227 132.404C183.948 132.933 183.439 133.542 184.848 133.771Z" fill="#CEE0F0"/>
<path d="M205.273 137.456C206.661 137.027 208.1 136.498 209.28 137.456C210.459 138.414 211.148 137.187 211.848 138.155C212.547 139.113 211.528 139.353 210.509 139.762C209.489 140.181 210.778 140.611 208.8 141.03C206.821 141.459 205.912 141.08 205.273 141.03C204.633 140.98 201.375 140.78 202.015 139.762C202.654 138.734 202.974 138.844 203.674 138.045C204.373 137.236 205.273 137.456 205.273 137.456Z" fill="white"/>
<path d="M198.238 129.429C200.196 129.569 201.885 129.519 201.285 128.7C200.686 127.882 200.406 128.161 202.364 127.722C204.323 127.283 205.352 126.414 202.364 126.095C199.377 125.765 195.739 125.336 196.059 126.314C196.389 127.293 196.219 127.402 194.48 127.622C192.742 127.842 192.582 128.111 194.64 128.491C196.719 128.87 198.238 129.429 198.238 129.429Z" fill="white"/>
<path d="M205.113 128.483C204.164 128.752 205.583 129.381 204.174 130C202.765 130.619 201.965 131.368 205.113 131.957C208.271 132.546 209.44 131.957 210.669 133.294C211.898 134.632 213.607 136.18 215.216 134.093C216.814 132.007 214.896 131.687 215.535 130.839C216.175 129.99 218.043 128.233 214.466 128.153C210.889 128.053 206.342 128.133 205.113 128.483Z" fill="#CEE0F0"/>
<path d="M171.587 191.118C175.61 191.118 178.872 187.86 178.872 183.84C178.872 179.821 175.61 176.562 171.587 176.562C167.564 176.562 164.302 179.821 164.302 183.84C164.302 187.86 167.564 191.118 171.587 191.118Z" fill="#BFBFBF"/>
<path d="M217.973 36.5352H173.276V39.3205H217.973V36.5352Z" fill="#DBF7FF"/>
<path d="M217.973 45.5195H173.276V48.3048H217.973V45.5195Z" fill="#DBF7FF"/>
<path d="M217.973 55.6953H173.276V58.4806H217.973V55.6953Z" fill="#DBF7FF"/>
<path d="M217.973 65.8789H173.276V68.6642H217.973V65.8789Z" fill="#DBF7FF"/>
<path d="M217.983 76.0469H134.015V78.8322H217.983V76.0469Z" fill="#DBF7FF"/>
<path d="M217.983 86.2344H134.015V89.0197H217.983V86.2344Z" fill="#DBF7FF"/>
<path d="M217.983 96.4141H134.015V99.1994H217.983V96.4141Z" fill="#DBF7FF"/>
<path d="M217.983 106.59H134.015V109.375H217.983V106.59Z" fill="#DBF7FF"/>
<path d="M217.983 116.77H134.015V119.555H217.983V116.77Z" fill="#DBF7FF"/>
<path d="M177.922 126.953H133.225V129.738H177.922V126.953Z" fill="#DBF7FF"/>
<path d="M178.712 137.129H134.015V139.914H178.712V137.129Z" fill="#DBF7FF"/>
<path d="M178.712 147.309H134.015V150.094H178.712V147.309Z" fill="#DBF7FF"/>
<path d="M178.712 157.492H134.015V160.277H178.712V157.492Z" fill="#DBF7FF"/>
</svg>
