<svg width="578" height="569" viewBox="0 0 578 569" fill="none" xmlns="http://www.w3.org/2000/svg">
<path d="M380.901 210.879C380.411 215.859 378.861 225.649 378.861 225.649L391.841 258.219L411.061 262.609L424.331 248.059L421.221 221.339" fill="#F7C291"/>
<path d="M411.321 263.438L391.291 258.868L378.081 225.738L378.111 225.538C378.131 225.438 379.661 215.708 380.141 210.818C380.181 210.408 380.561 210.108 380.961 210.148C381.371 210.188 381.671 210.558 381.631 210.968C381.181 215.508 379.841 224.138 379.621 225.578L392.381 257.598L410.781 261.808L423.521 247.838L420.451 221.458C420.401 221.048 420.701 220.678 421.111 220.628C421.511 220.578 421.891 220.878 421.941 221.288L425.091 248.348L411.321 263.438Z" fill="#BD611F"/>
<path d="M267.141 491.602C416.481 491.602 577.261 526.152 577.261 539.882C577.261 553.622 501.171 540.852 482.461 540.852C463.751 540.852 476.361 552.202 487.721 554.092C499.071 555.982 509.161 559.562 508.951 563.132C508.741 566.702 496.341 571.542 449.041 564.812C401.741 558.082 371.601 554.372 338.191 543.882C304.781 533.392 262.391 537.212 255.301 539.732C248.211 542.252 224.091 563.652 185.141 564.172C157.621 564.532 142.551 553.112 130.611 546.482C118.671 539.852 96.2008 540.252 81.2708 542.582C66.3408 544.922 60.3608 545.962 62.5708 539.722C64.7808 533.492 29.9808 543.622 13.4908 544.262C-2.99924 544.902 -2.86924 542.182 5.83076 537.772C14.5308 533.362 107.041 491.602 267.141 491.602Z" fill="#7D9CB0"/>
<path d="M182.931 73.3906H167.241V521.361H182.931V73.3906Z" fill="#5E4024"/>
<path d="M106.651 283.77V334.41H245.641L265.641 309.09V304.15L106.651 283.77Z" fill="#9E5114"/>
<path d="M106.651 278.828V329.468H245.641L265.641 304.148L245.641 278.828H106.651Z" fill="#F1B825"/>
<path d="M106.441 107.469V158.109H245.431L265.431 132.789V127.849L106.441 107.469Z" fill="#9E5114"/>
<path d="M106.441 102.531V153.171H245.431L265.431 127.851L245.431 102.531H106.441Z" fill="#F1B825"/>
<path d="M244.211 193.148V243.788H105.221L85.2207 218.468V213.528L244.211 193.148Z" fill="#9E5114"/>
<path d="M244.211 188.211V238.851H105.221L85.2207 213.531L105.221 188.211H244.211Z" fill="#F1B825"/>
<path d="M347.891 140.821C343.401 111.751 348.681 103.831 353.701 104.881C358.721 105.931 361.891 113.341 364.531 113.341C367.171 113.341 375.561 76.0806 391.621 76.0806C400.931 76.0806 395.191 89.7506 403.511 89.9506C411.831 90.1506 415.201 65.1806 426.501 63.7906C437.801 62.4006 447.531 94.0306 451.471 94.9106C456.821 96.1006 457.611 88.1706 460.981 87.1806C464.351 86.1906 476.011 93.2306 475.461 108.341C474.911 123.451 469.931 131.021 474.351 133.951C476.331 135.271 476.941 130.651 482.261 131.691C487.581 132.741 485.921 148.251 482.781 159.501C479.641 170.751 464.761 144.531 464.761 144.531L445.141 115.891L401.161 114.311L379.171 117.631L365.251 141.681L347.891 140.821Z" fill="#F54E00"/>
<path d="M480.211 163.061C474.591 163.061 465.201 146.791 464.131 144.901L444.761 116.631L401.221 115.061L379.651 118.321L365.681 142.451L347.241 141.531L347.151 140.931C344.261 122.221 345.091 109.621 349.491 105.461C350.751 104.261 352.261 103.811 353.861 104.151C356.891 104.791 359.251 107.491 361.141 109.661C362.341 111.031 363.581 112.451 364.421 112.581C365.041 111.991 366.351 108.711 367.611 105.541C372.131 94.2405 379.691 75.3305 391.621 75.3305C397.021 75.3305 397.931 79.4505 398.741 83.0805C399.571 86.8205 400.251 89.1205 403.531 89.2005C403.561 89.2005 403.581 89.2005 403.611 89.2005C407.031 89.2005 409.771 83.8605 412.671 78.2105C416.131 71.4705 420.051 63.8205 426.421 63.0405C434.321 62.0905 441.081 75.3505 446.051 85.0505C448.181 89.2205 450.601 93.9405 451.641 94.1705C454.131 94.7205 455.411 93.0005 457.071 90.3005C458.141 88.5705 459.151 86.9305 460.781 86.4505C462.451 85.9605 465.241 86.9705 467.881 89.0305C470.521 91.0805 476.631 97.0805 476.211 108.361C475.981 114.621 475.011 119.531 474.231 123.471C473.081 129.291 472.661 131.921 474.771 133.321C475.071 133.521 475.181 133.531 476.111 132.731C477.261 131.751 478.991 130.271 482.411 130.951C483.451 131.151 484.301 131.791 484.951 132.841C487.811 137.481 486.211 150.011 483.511 159.691C482.941 161.731 481.941 162.851 480.541 163.021C480.431 163.05 480.321 163.061 480.211 163.061ZM401.131 113.561H401.201L445.561 115.161L465.391 144.111C469.371 151.111 476.911 161.991 480.361 161.55C481.101 161.461 481.681 160.701 482.071 159.311C484.701 149.881 486.161 137.681 483.681 133.651C483.251 132.961 482.751 132.561 482.131 132.441C479.411 131.911 478.131 133.011 477.091 133.891C476.271 134.591 475.261 135.451 473.951 134.581C470.921 132.571 471.661 128.841 472.771 123.191C473.541 119.301 474.491 114.461 474.721 108.311C475.111 97.7205 469.421 92.1305 466.961 90.2105C464.501 88.3005 462.201 87.5905 461.201 87.8905C460.121 88.2105 459.261 89.6005 458.351 91.0805C456.871 93.4805 455.041 96.4605 451.321 95.6305C449.671 95.2605 447.921 91.9805 444.721 85.7305C439.951 76.4305 433.371 63.7005 426.611 64.5305C421.031 65.2105 417.311 72.4805 414.021 78.8905C410.881 85.0105 407.901 90.7505 403.521 90.6905C398.891 90.5805 398.051 86.7605 397.301 83.4005C396.521 79.8705 395.841 76.8205 391.651 76.8205C380.731 76.8205 373.411 95.1405 369.031 106.091C366.551 112.291 365.781 114.081 364.561 114.081C363.041 114.081 361.711 112.561 360.031 110.631C358.191 108.521 356.111 106.141 353.571 105.601C352.461 105.371 351.441 105.681 350.541 106.531C348.681 108.301 344.781 115.091 348.561 140.081L364.861 140.891L378.731 116.931L401.131 113.561Z" fill="#922C00"/>
<path d="M360.201 169.851C350.231 158.781 346.021 134.821 346.271 125.251C346.521 115.681 358.151 120.171 359.411 124.601C360.671 129.031 366.051 135.201 370.801 123.331C375.551 111.461 379.171 93.2705 388.201 93.2705C391.521 93.2705 392.951 107.831 403.861 107.671C414.781 107.511 417.721 84.3805 426.211 84.7705C435.811 85.2105 440.581 111.981 449.931 113.031C454.261 113.521 453.171 106.601 458.301 105.351C463.431 104.111 466.441 118.141 466.861 133.401C467.281 148.671 472.831 145.341 476.571 141.901C480.311 138.461 485.071 142.25 485.511 144.8C485.951 147.35 484.701 174.811 455.961 190.971L423.921 196.491L397.831 188.791L369.381 173.681L360.201 169.851Z" fill="#BB5405"/>
<path d="M423.901 197.261L397.501 189.451L369.051 174.341L359.761 170.461L359.651 170.331C349.751 159.331 345.261 135.471 345.521 125.211C345.651 120.211 348.621 119.091 350.381 118.871C354.221 118.381 359.231 121.211 360.131 124.381C360.821 126.791 362.671 129.341 364.581 129.441C366.481 129.541 368.421 127.261 370.111 123.041C371.151 120.451 372.111 117.601 373.141 114.581C376.821 103.731 380.631 92.501 388.211 92.501C389.851 92.501 390.841 94.431 392.201 97.091C394.341 101.271 397.231 106.971 403.861 106.891C409.181 106.811 412.551 100.651 415.811 94.691C418.881 89.081 421.781 83.771 426.261 83.991C431.571 84.231 435.351 91.541 439.011 98.621C442.361 105.091 445.821 111.791 450.031 112.261C451.611 112.441 452.191 111.421 453.171 109.461C454.091 107.611 455.251 105.301 458.141 104.601C459.191 104.351 460.191 104.581 461.121 105.291C465.441 108.591 467.321 121.961 467.631 133.361C467.841 141.111 469.361 143.361 470.601 143.891C471.841 144.421 473.641 143.581 476.081 141.331C477.721 139.821 479.761 139.381 481.831 140.081C484.001 140.821 485.951 142.831 486.271 144.651C486.321 144.921 487.331 174.181 456.351 191.601L456.111 191.691L423.901 197.261ZM398.131 188.101L423.981 195.731L455.721 190.261C483.061 174.821 485.381 148.401 484.781 144.941C484.581 143.791 483.151 142.151 481.341 141.531C480.261 141.161 478.651 141.031 477.091 142.461C475.221 144.171 472.461 146.341 470.011 145.301C467.581 144.271 466.311 140.391 466.121 133.431C465.741 119.751 463.371 108.931 460.201 106.511C459.641 106.081 459.071 105.941 458.481 106.091C456.261 106.631 455.361 108.431 454.501 110.171C453.581 112.011 452.551 114.091 449.851 113.791C444.851 113.231 441.361 106.491 437.671 99.351C434.211 92.661 430.621 85.741 426.181 85.531C422.641 85.371 419.951 90.261 417.121 95.451C413.811 101.491 410.071 108.341 403.871 108.431C403.811 108.431 403.741 108.431 403.681 108.431C396.301 108.431 393.031 102.051 390.851 97.811C389.941 96.041 388.911 94.031 388.191 94.031C381.681 94.031 378.051 104.741 374.541 115.091C373.511 118.121 372.541 120.991 371.491 123.621C369.491 128.631 367.121 131.101 364.491 130.961C361.791 130.821 359.521 127.761 358.681 124.811C358.051 122.601 353.841 119.961 350.561 120.381C348.311 120.671 347.091 122.361 347.011 125.271C346.751 135.281 351.081 158.471 360.641 169.231L369.681 173.001L398.131 188.101Z" fill="#922C00"/>
<path d="M446.071 188.329C449.911 186.869 456.081 187.479 456.601 194.079C457.121 200.679 449.721 208.339 444.091 208.929C438.461 209.519 439.271 208.439 439.271 208.439L440.611 197.899L446.071 188.329Z" fill="#F7C291"/>
<path d="M441.271 209.869C439.511 209.869 438.891 209.549 438.621 209.069C438.451 208.769 438.471 208.469 438.551 208.239L439.901 197.659L439.971 197.529L445.561 187.719L445.811 187.619C447.991 186.789 451.471 186.429 454.131 188.109C456.031 189.309 457.141 191.349 457.351 194.009C457.901 201.029 450.151 209.039 444.171 209.669C442.961 209.809 442.011 209.869 441.271 209.869ZM440.051 208.279C440.461 208.369 441.501 208.459 444.011 208.189C449.311 207.629 456.331 200.269 455.851 194.139C455.681 191.939 454.831 190.339 453.321 189.389C451.231 188.059 448.441 188.299 446.581 188.939L441.341 198.149L440.051 208.279Z" fill="#BD611F"/>
<path d="M405.511 222.692C429.221 224.552 438.401 210.652 442.501 203.332C446.601 196.012 446.221 179.252 447.591 177.392C456.281 165.542 458.761 142.392 458.761 142.392C458.761 142.392 447.091 122.652 422.391 124.762C397.691 126.872 387.261 127.122 382.921 120.172C382.921 120.172 371.181 131.392 373.811 173.552C373.811 173.552 371.181 165.812 363.861 166.642C356.531 167.472 355.571 177.702 356.531 183.092C357.501 188.482 359.801 196.512 366.481 196.512C370.351 196.512 371.461 194.982 372.151 194.152C372.151 194.152 373.391 206.452 385.421 214.602" fill="#F7C291"/>
<path d="M409.681 223.611C408.321 223.611 406.921 223.561 405.461 223.441C405.051 223.411 404.741 223.051 404.771 222.631C404.801 222.221 405.161 221.921 405.581 221.941C427.631 223.671 436.841 211.941 441.861 202.961C444.361 198.501 445.151 190.301 445.741 184.311C446.171 179.911 446.401 177.761 447.001 176.941C454.991 166.041 457.701 145.111 458.001 142.551C456.661 140.471 445.041 123.571 422.471 125.501C397.951 127.601 387.671 127.811 382.871 121.391C380.571 124.401 372.351 137.801 374.571 173.491L374.921 179.041L373.121 173.771C373.021 173.481 370.591 166.621 363.961 167.361C362.121 167.571 360.601 168.461 359.451 170.001C357.081 173.181 356.571 178.911 357.291 182.931C358.821 191.431 361.921 195.731 366.501 195.731C369.861 195.731 370.851 194.531 371.501 193.741L372.731 192.271L372.911 194.041C372.921 194.161 374.281 206.101 385.851 213.951C386.191 214.181 386.281 214.651 386.051 214.991C385.821 215.331 385.351 215.421 385.011 215.191C375.221 208.551 372.421 199.341 371.671 195.721C370.751 196.481 369.241 197.231 366.501 197.231C361.081 197.231 357.481 192.511 355.811 183.191C355.061 178.991 355.501 172.791 358.251 169.101C359.661 167.211 361.521 166.121 363.791 165.861C368.391 165.341 371.291 167.961 372.901 170.231C371.071 130.931 381.941 120.051 382.421 119.601L383.091 118.961L383.581 119.741C387.661 126.261 397.991 126.061 422.351 123.981C447.231 121.851 459.311 141.771 459.431 141.971L459.561 142.181L459.531 142.431C459.431 143.381 456.931 165.921 448.221 177.801C447.831 178.331 447.521 181.571 447.241 184.431C446.641 190.551 445.831 198.931 443.181 203.671C440.321 208.771 432.021 223.611 409.681 223.611Z" fill="#BD611F"/>
<path d="M387.351 166.779C388.671 168.989 390.281 171.569 396.111 171.509C401.941 171.449 403.611 167.259 404.291 165.189C404.291 165.189 402.251 159.289 397.381 159.289C392.511 159.289 389.441 162.249 387.351 166.779Z" fill="white"/>
<path d="M387.071 167.6C387.291 165.52 388.201 163.46 389.641 161.81C391.091 160.18 393.031 158.88 395.301 158.43C397.621 157.95 400.061 158.7 401.771 160.16C403.521 161.59 404.531 163.81 404.441 165.91C403.691 163.96 402.441 162.39 400.851 161.41C399.281 160.43 397.401 160.04 395.681 160.38C393.911 160.73 392.201 161.66 390.741 162.9C389.281 164.18 388.081 165.77 387.071 167.6Z" fill="black"/>
<path d="M373.811 174.29C373.421 174.29 373.091 173.98 373.061 173.59C370.441 131.57 381.911 120.09 382.401 119.62L383.071 118.98L383.561 119.76C387.641 126.28 397.971 126.08 422.331 124C447.211 121.87 459.291 141.79 459.411 141.99C459.451 142.05 460.971 144.35 462.081 147.83C462.211 148.22 461.991 148.65 461.591 148.77C461.191 148.9 460.771 148.68 460.651 148.28C459.611 145.01 458.151 142.8 458.141 142.78C458.001 142.55 446.381 123.44 422.461 125.49C397.941 127.59 387.661 127.8 382.861 121.38C380.561 124.39 372.341 137.79 374.561 173.48C374.591 173.89 374.271 174.25 373.861 174.28C373.841 174.29 373.831 174.29 373.811 174.29Z" fill="#922C00"/>
<path d="M362.281 174.199C365.821 173.529 371.471 176.879 371.851 188.079L362.281 174.199Z" fill="#F7C291"/>
<path d="M371.851 188.821C371.451 188.821 371.111 188.501 371.101 188.101C370.851 180.631 368.221 177.451 366.681 176.211C365.341 175.141 363.791 174.671 362.421 174.931C362.021 175.011 361.621 174.741 361.541 174.331C361.461 173.921 361.731 173.531 362.141 173.451C363.931 173.111 365.931 173.691 367.611 175.031C370.621 177.441 372.391 182.061 372.601 188.041C372.611 188.451 372.291 188.801 371.881 188.811C371.861 188.821 371.861 188.821 371.851 188.821Z" fill="#BD611F"/>
<path d="M360.551 181.758C361.221 187.598 363.131 189.608 365.431 190.468L360.551 181.758Z" fill="#F7C291"/>
<path d="M365.431 191.219C365.341 191.219 365.251 191.199 365.171 191.169C362.071 190.009 360.411 187.129 359.811 181.839C359.761 181.429 360.061 181.059 360.471 181.009C360.891 180.959 361.251 181.259 361.301 181.669C361.981 187.599 363.911 189.089 365.701 189.759C366.091 189.909 366.281 190.339 366.141 190.729C366.021 191.029 365.741 191.219 365.431 191.219Z" fill="#BD611F"/>
<path d="M426.251 171.511C426.181 173.071 427.571 177.261 433.131 178.891C438.691 180.521 442.351 175.201 442.351 175.201C442.351 175.201 442.351 167.881 434.881 166.791C434.881 166.791 430.571 165.951 426.251 171.511Z" fill="white"/>
<path d="M425.821 172.352C426.271 170.352 427.631 168.492 429.481 167.342C431.321 166.212 433.511 165.522 435.831 165.902C438.061 166.272 440.121 167.632 441.281 169.532C442.451 171.432 442.721 173.652 442.391 175.662C441.891 173.682 441.191 171.842 440.011 170.442C438.851 169.052 437.211 168.172 435.491 167.872C433.831 167.582 431.911 167.972 430.231 168.702C428.521 169.462 427.031 170.702 425.821 172.352Z" fill="black"/>
<path d="M433.491 177.671C436.015 177.671 438.061 175.625 438.061 173.101C438.061 170.577 436.015 168.531 433.491 168.531C430.967 168.531 428.921 170.577 428.921 173.101C428.921 175.625 430.967 177.671 433.491 177.671Z" fill="#21B2D1"/>
<path d="M433.491 175.88C435.026 175.88 436.271 174.636 436.271 173.1C436.271 171.565 435.026 170.32 433.491 170.32C431.955 170.32 430.711 171.565 430.711 173.1C430.711 174.636 431.955 175.88 433.491 175.88Z" fill="#111111"/>
<path d="M436.721 172.94C437.621 172.94 438.351 172.21 438.351 171.31C438.351 170.409 437.621 169.68 436.721 169.68C435.821 169.68 435.091 170.409 435.091 171.31C435.091 172.21 435.821 172.94 436.721 172.94Z" fill="white"/>
<path d="M431.861 176.271C432.474 176.271 432.971 175.774 432.971 175.161C432.971 174.548 432.474 174.051 431.861 174.051C431.248 174.051 430.751 174.548 430.751 175.161C430.751 175.774 431.248 176.271 431.861 176.271Z" fill="white"/>
<path d="M366.011 185.59C365.441 182.24 368.251 180.31 371.011 182.14L366.011 185.59Z" fill="#F7C291"/>
<path d="M366.011 186.339C365.651 186.339 365.331 186.079 365.271 185.719C364.941 183.809 365.551 182.139 366.911 181.259C368.211 180.409 369.901 180.509 371.421 181.509C371.771 181.739 371.861 182.199 371.631 182.549C371.401 182.889 370.941 182.989 370.591 182.759C369.581 182.089 368.511 181.999 367.721 182.509C366.891 183.049 366.521 184.159 366.741 185.459C366.811 185.869 366.541 186.259 366.131 186.329C366.091 186.329 366.051 186.339 366.011 186.339Z" fill="#BD611F"/>
<path d="M451.471 194.861C448.181 194.251 443.391 197.811 445.481 203.371L451.471 194.861Z" fill="#F7C291"/>
<path d="M445.481 204.13C445.181 204.13 444.891 203.94 444.781 203.64C443.431 200.04 444.821 197.6 445.771 196.47C447.261 194.7 449.601 193.75 451.621 194.13C452.031 194.21 452.301 194.6 452.221 195C452.141 195.41 451.751 195.68 451.351 195.6C449.881 195.33 448.061 196.08 446.931 197.43C445.661 198.95 445.401 200.97 446.201 203.11C446.351 203.5 446.151 203.93 445.761 204.08C445.661 204.11 445.571 204.13 445.481 204.13Z" fill="#BD611F"/>
<path d="M418.211 174.469C416.991 178.569 421.701 184.679 419.871 187.679C418.041 190.679 412.641 189.379 410.541 185.799" fill="#F7C291"/>
<path d="M416.571 190.099C416.551 190.099 416.531 190.099 416.511 190.099C413.941 190.079 411.221 188.469 409.881 186.179C409.671 185.819 409.791 185.359 410.151 185.149C410.511 184.939 410.971 185.059 411.181 185.419C412.261 187.269 414.461 188.579 416.531 188.599C417.201 188.599 418.521 188.439 419.221 187.289C419.981 186.049 419.261 183.859 418.491 181.549C417.671 179.059 416.821 176.479 417.481 174.259C417.601 173.859 418.011 173.629 418.411 173.759C418.811 173.879 419.031 174.299 418.911 174.689C418.381 176.469 419.161 178.819 419.911 181.089C420.781 183.739 421.611 186.249 420.491 188.079C419.701 189.379 418.311 190.099 416.571 190.099Z" fill="#BD611F"/>
<path d="M395.121 170.32C397.645 170.32 399.691 168.274 399.691 165.75C399.691 163.226 397.645 161.18 395.121 161.18C392.597 161.18 390.551 163.226 390.551 165.75C390.551 168.274 392.597 170.32 395.121 170.32Z" fill="#21B2D1"/>
<path d="M395.121 168.529C396.656 168.529 397.901 167.284 397.901 165.749C397.901 164.213 396.656 162.969 395.121 162.969C393.585 162.969 392.341 164.213 392.341 165.749C392.341 167.284 393.585 168.529 395.121 168.529Z" fill="#111111"/>
<path d="M397.901 164.862C398.801 164.862 399.531 164.132 399.531 163.232C399.531 162.331 398.801 161.602 397.901 161.602C397.001 161.602 396.271 162.331 396.271 163.232C396.271 164.132 397.001 164.862 397.901 164.862Z" fill="white"/>
<path d="M394.311 169.368C394.924 169.368 395.421 168.871 395.421 168.258C395.421 167.645 394.924 167.148 394.311 167.148C393.698 167.148 393.201 167.645 393.201 168.258C393.201 168.871 393.698 169.368 394.311 169.368Z" fill="white"/>
<path d="M396.351 181C395.63 181 394.882 180.945 394.114 180.825C388.471 179.967 384.513 177.884 382.024 174.454C378.907 170.157 378.224 163.971 379.862 154.963C380.04 154.004 380.582 153.174 381.406 152.63C382.229 152.077 383.221 151.883 384.195 152.068L409.817 157.093C411.287 157.378 412.55 158.273 413.299 159.545C414.047 160.817 414.206 162.357 413.729 163.759C411.474 170.397 406.299 181 396.351 181Z" fill="url(#paint0_linear)"/>
<path d="M439.359 191C438.68 191 437.974 190.945 437.251 190.825C431.93 189.967 428.198 187.884 425.851 184.454C422.913 180.157 422.269 173.971 423.813 164.963C423.98 164.004 424.492 163.174 425.268 162.63C426.045 162.077 426.98 161.883 427.898 162.068L452.056 167.093C453.442 167.378 454.633 168.273 455.339 169.545C456.045 170.817 456.194 172.357 455.744 173.759C453.618 180.397 448.739 191 439.359 191Z" fill="url(#paint1_linear)"/>
<path d="M435.851 150.63C435.951 145.96 444.981 147.39 447.931 149.62C451.481 152.29 455.581 158.87 450.821 159.74C449.081 160.06 448.101 156.38 444.021 154.48C441.451 153.28 435.751 155.49 435.851 150.63Z" fill="#8E2A00"/>
<path d="M409.511 144.999C412.561 142.159 406.461 137.379 401.651 138.029C395.761 138.829 389.771 143.479 391.471 145.529C393.751 148.279 395.581 143.859 400.751 144.129C405.931 144.409 407.491 146.879 409.511 144.999Z" fill="#8E2A00"/>
<path d="M396.401 183.078C395.631 183.078 394.831 183.018 394.011 182.888C387.981 181.958 383.751 179.698 381.091 175.978C377.761 171.318 377.031 164.608 378.781 154.838C378.971 153.798 379.551 152.898 380.431 152.308C381.311 151.708 382.371 151.498 383.411 151.698L410.791 157.148C412.361 157.458 413.711 158.428 414.511 159.808C415.311 161.188 415.481 162.858 414.971 164.378C412.561 171.578 407.031 183.078 396.401 183.078ZM382.631 153.628C382.251 153.628 381.871 153.738 381.551 153.968C381.121 154.258 380.841 154.698 380.751 155.198C379.101 164.398 379.721 170.628 382.711 174.818C385.041 178.078 388.831 180.078 394.311 180.918C405.061 182.568 410.691 170.868 413.081 163.738C413.411 162.768 413.301 161.698 412.791 160.808C412.281 159.928 411.411 159.308 410.411 159.108L383.031 153.658C382.891 153.638 382.761 153.628 382.631 153.628Z" fill="#010100"/>
<path d="M437.561 191.709C437.261 191.709 436.951 191.699 436.641 191.689C432.091 191.459 428.471 189.739 425.881 186.589C420.291 179.769 421.441 168.429 421.931 165.119C422.141 163.709 422.941 162.439 424.121 161.639C425.311 160.839 426.801 160.569 428.191 160.899L451.991 166.629C453.791 167.059 455.311 168.249 456.171 169.879C457.041 171.529 457.151 173.479 456.481 175.229C454.081 181.449 448.471 191.709 437.561 191.709ZM426.981 162.739C426.361 162.739 425.761 162.919 425.241 163.279C424.511 163.769 424.041 164.529 423.911 165.399C423.451 168.509 422.361 179.129 427.431 185.309C429.641 188.009 432.781 189.479 436.741 189.689C446.481 190.189 451.831 181.709 454.601 174.499C455.071 173.289 454.991 171.939 454.391 170.799C453.791 169.659 452.771 168.859 451.521 168.559L427.721 162.829C427.481 162.769 427.231 162.739 426.981 162.739Z" fill="#010100"/>
<path d="M414.021 164.059L412.621 167.759L422.491 170.229L422.831 165.939L414.021 164.059Z" fill="#010100"/>
<path d="M379.761 155.02C376.571 154 365.481 164.29 364.771 164.91C364.061 165.53 364.771 166.57 364.771 166.57C364.771 166.57 368.131 166.19 370.211 168.44C370.211 168.44 375.921 163.66 378.861 163.31C378.871 163.31 379.141 157.55 379.761 155.02Z" fill="#010100"/>
<path d="M455.911 173.102C456.871 173.102 457.371 175.402 456.621 177.252C455.881 179.092 447.321 184.692 447.321 184.692C447.321 184.692 446.001 179.362 450.021 174.552L455.911 173.102Z" fill="#010100"/>
<path d="M406.951 195.312C416.891 195.312 423.331 204.702 419.011 209.112C416.581 211.592 413.211 208.302 407.501 208.302C401.791 208.302 397.231 212.103 393.341 208.383C389.811 205.023 397.791 195.312 406.951 195.312Z" fill="#651B00"/>
<path d="M416.791 210.791C415.731 210.791 414.581 210.451 413.341 210.091C411.671 209.601 409.781 209.051 407.491 209.051C405.541 209.051 403.731 209.521 401.971 209.971C398.701 210.811 395.611 211.601 392.811 208.921C391.611 207.771 391.401 206.011 392.221 203.961C394.041 199.421 400.401 194.551 406.951 194.551C413.901 194.551 418.831 198.761 420.481 202.671C421.601 205.341 421.261 207.871 419.541 209.631C418.711 210.491 417.791 210.791 416.791 210.791ZM407.491 207.561C409.991 207.561 412.081 208.171 413.761 208.661C416.201 209.371 417.421 209.671 418.471 208.601C420.211 206.821 419.611 204.501 419.101 203.271C417.591 199.691 412.941 196.071 406.951 196.071C401.091 196.071 395.221 200.531 393.611 204.541C393.201 205.561 392.911 206.961 393.851 207.861C396.051 209.971 398.501 209.341 401.601 208.541C403.361 208.071 405.361 207.561 407.491 207.561Z" fill="#982000"/>
<path d="M401.941 214.407C403.041 213.547 406.871 212.527 409.461 213.077L401.941 214.407Z" fill="#F7C291"/>
<path d="M401.941 214.908C401.791 214.908 401.651 214.838 401.551 214.718C401.381 214.498 401.421 214.188 401.631 214.018C402.851 213.058 406.811 212.008 409.561 212.588C409.831 212.648 410.001 212.908 409.951 213.178C409.891 213.448 409.621 213.618 409.361 213.568C406.841 213.038 403.201 214.068 402.261 214.798C402.161 214.878 402.051 214.908 401.941 214.908Z" fill="#BD611F"/>
<path d="M398.221 199.029C399.351 203.309 414.871 202.799 416.151 199.389C416.151 199.389 412.651 196.019 407.181 196.039C401.721 196.049 398.221 199.029 398.221 199.029Z" fill="white"/>
<path d="M400.331 206.12C397.631 204.53 394.901 205.27 393.431 207.27C393.431 207.27 394.131 208.68 396.221 209.13C398.311 209.58 402.621 208.25 402.621 208.25L400.981 206.64C400.791 206.45 400.571 206.27 400.331 206.12Z" fill="#EC8886"/>
<path d="M400.301 205.641C403.011 204.001 406.291 205.291 407.291 207.561C407.291 207.561 405.321 207.511 402.621 208.251C402.621 208.251 402.001 207.781 401.711 207.351C401.461 206.971 401.481 206.571 401.221 206.221C400.761 205.601 400.301 205.641 400.301 205.641Z" fill="#EC8886"/>
<path d="M381.511 212.531C386.491 216.631 396.161 225.261 414.271 223.731C414.271 223.731 398.741 232.771 384.261 227.661C379.121 225.851 381.511 212.531 381.511 212.531Z" fill="#EAB47E"/>
<path d="M340.891 530.8C349.531 530.8 361.141 530.41 366.681 529.25C371.001 528.35 385.101 524.94 391.121 523.48C392.691 523.1 393.711 521.59 393.481 519.98L392.981 516.48L340.951 527.72C340.951 527.72 336.771 529.9 340.891 530.8Z" fill="#F4F1CE"/>
<path d="M390.781 501.629C392.251 506.229 394.761 511.709 393.301 517.439C392.961 518.759 391.901 519.779 390.581 520.119C384.671 521.619 367.041 526.029 360.111 527.119C351.721 528.439 340.251 528.159 340.251 528.159C340.251 528.159 337.941 517.629 349.631 514.209C361.331 510.789 368.171 509.799 371.031 505.939C373.891 502.079 390.781 501.629 390.781 501.629Z" fill="#2D2D2D"/>
<path d="M418.951 517.109V519.899C418.951 521.449 419.981 522.809 421.481 523.219C427.851 524.979 444.371 529.469 448.291 529.889C453.181 530.419 473.461 530.789 473.461 530.789C473.461 530.789 475.441 528.309 472.321 528.169C469.201 528.029 446.521 523.949 446.521 523.949L423.021 517.629L418.951 517.109Z" fill="#F4F1CE"/>
<path d="M422.071 502.858C420.611 505.978 417.401 511.368 418.951 517.108C419.681 519.808 428.521 521.478 428.521 521.478C428.521 521.478 448.601 526.468 450.991 526.678C453.381 526.888 471.171 528.248 472.941 528.248C472.941 528.248 473.771 517.218 461.601 513.058C449.431 508.898 441.321 509.728 438.721 502.238L422.811 500.578L422.071 502.858Z" fill="#2D2D2D"/>
<path d="M355.121 335.83L360.471 495.61C360.471 495.61 361.211 506.94 375.231 505.99C389.251 505.04 395.121 502.58 395.121 502.58C395.121 502.58 397.961 380.19 404.781 379.06C411.601 377.93 414.821 503.72 414.821 503.72C414.821 503.72 447.031 509.97 449.871 495.01C452.711 480.03 451.571 333.77 451.571 333.77L355.121 335.83Z" fill="#A03300"/>
<path d="M373.591 506.79C369.511 506.79 366.211 505.71 363.771 503.57C360.061 500.32 359.731 495.84 359.711 495.65L354.341 335.09L355.101 335.07L452.321 333L452.331 333.76C452.381 339.73 453.431 480.26 450.611 495.13C450.071 497.96 448.511 500.27 445.971 502C436.311 508.55 415.561 504.62 414.681 504.45L414.091 504.33L414.071 503.73C414.061 503.43 413.281 473.05 411.701 442.66C408.821 387.22 405.811 380.48 404.871 379.81C403.911 380.44 400.881 387.04 398.111 442.01C396.591 472.14 395.881 502.28 395.871 502.59L395.861 503.08L395.411 503.27C395.171 503.37 389.261 505.79 375.281 506.74C374.701 506.77 374.141 506.79 373.591 506.79ZM355.891 336.56L361.211 495.58C361.241 495.99 362.091 506.13 375.171 505.24C386.761 504.46 392.771 502.61 394.381 502.05C394.481 497.92 395.211 469.45 396.641 441.2C399.801 379.12 403.201 378.55 404.651 378.31C404.931 378.26 405.351 378.28 405.791 378.65C412.221 383.96 415.161 488.27 415.551 503.08C419.021 503.67 436.851 506.37 445.121 500.76C447.321 499.27 448.661 497.28 449.121 494.86C451.811 480.69 450.901 345.97 450.821 334.54L355.891 336.56Z" fill="#69250A"/>
<path d="M361.201 495.5C361.261 495.91 361.461 498.85 363.971 501.63C367.581 505.63 372.591 505.29 374.511 505.26C376.431 505.23 383.951 504.331 383.951 504.331C369.341 499.831 362.601 402.13 356.751 361.73C356.751 361.73 359.981 454.31 360.211 464.82C360.411 474.18 361.201 495.5 361.201 495.5Z" fill="#AE3C02"/>
<path d="M436.421 503.759C420.621 499.989 415.111 399.449 407.951 384.199C407.951 384.199 412.631 411.489 413.091 439.119L415.491 503.019C415.491 503.029 427.801 505.149 436.421 503.759Z" fill="#AE3C02"/>
<path d="M379.761 217.991C373.851 214.081 372.291 211.761 366.491 210.881C360.691 210.001 349.421 223.621 348.171 225.811C346.921 228.001 356.941 300.501 356.941 300.501C356.941 300.501 353.311 333.851 355.201 338.551C357.091 343.251 369.331 351.081 403.451 348.411C437.571 345.741 448.381 343.241 451.591 337.291C454.801 331.341 447.671 290.441 446.701 285.901C445.731 281.361 451.791 257.861 451.791 257.861C451.791 257.861 446.631 247.461 446.411 236.201C446.191 224.941 431.071 214.051 421.131 228.261L420.291 240.021L415.411 248.071L406.431 255.091L403.771 254.751L396.561 246.871L386.961 235.901L381.341 226.301L379.761 217.991Z" fill="#00AED4"/>
<path d="M390.471 349.702C365.901 349.702 356.281 343.222 354.511 338.832C352.601 334.092 355.931 302.842 356.191 300.512C353.821 283.342 346.251 227.682 347.531 225.442C348.641 223.502 360.151 209.162 366.611 210.142C371.091 210.822 373.191 212.352 376.361 214.672C377.441 215.462 378.671 216.362 380.181 217.362L380.441 217.532L382.051 226.062L387.571 235.482L397.131 246.392L404.141 254.062L406.211 254.332L414.841 247.582L419.551 239.802L420.391 228.012L420.511 227.842C424.621 221.962 430.231 219.582 435.911 221.312C442.191 223.222 447.031 229.622 447.161 236.192C447.371 247.152 452.411 257.432 452.461 257.532L452.581 257.782L452.511 258.052C450.841 264.542 446.661 282.172 447.431 285.752C448.221 289.432 455.681 331.282 452.251 337.652C448.891 343.892 437.951 346.472 403.511 349.162C398.761 349.532 394.421 349.702 390.471 349.702ZM365.921 211.592C360.671 211.592 350.341 223.542 348.831 226.192C348.161 228.672 353.761 271.942 357.691 300.402L357.701 300.492L357.691 300.582C356.691 309.802 354.411 334.562 355.901 338.272C357.671 342.662 369.871 350.282 403.401 347.672C436.811 345.072 447.921 342.562 450.941 336.952C453.911 331.442 447.241 291.962 445.981 286.082C445.031 281.632 450.311 260.712 451.011 257.962C450.201 256.262 445.881 246.692 445.671 236.242C445.561 230.392 441.081 224.472 435.481 222.762C430.451 221.232 425.621 223.282 421.871 228.552L421.031 240.292L415.881 248.702L406.651 255.922L403.411 255.502L396.011 247.422L386.311 236.332L380.601 226.502L379.081 218.472C377.661 217.522 376.501 216.672 375.461 215.912C372.361 213.642 370.491 212.282 366.371 211.652C366.231 211.602 366.081 211.592 365.921 211.592Z" fill="#00809E"/>
<path d="M392.951 239.012C396.281 244.722 403.811 252.882 405.701 252.882C407.591 252.882 416.181 244.912 418.431 239.682L421.111 241.252C421.111 241.252 415.911 255.972 405.691 258.482C401.581 259.492 389.671 243.942 388.001 240.472L392.951 239.012Z" fill="white"/>
<path d="M405.351 259.261C400.221 259.261 388.821 243.861 387.331 240.791L386.941 239.991L393.301 238.121L393.601 238.631C397.081 244.591 404.251 252.041 405.701 252.131C407.081 252.071 415.441 244.721 417.741 239.381L418.071 238.601L422.021 240.901L421.811 241.491C421.591 242.111 416.361 256.621 405.861 259.201C405.711 259.241 405.531 259.261 405.351 259.261ZM389.111 240.921C391.871 245.611 402.351 258.521 405.521 257.741C414.111 255.631 419.111 244.271 420.191 241.571L418.761 240.741C416.061 245.981 408.051 253.631 405.701 253.631C403.261 253.631 395.791 245.071 392.611 239.891L389.111 240.921Z" fill="#00809E"/>
<path d="M381.341 216.18C381.351 221.66 386.891 233.3 394.941 239C394.941 239 385.431 247.77 384.091 248.76C382.751 249.75 368.281 223.16 381.341 216.18Z" fill="white"/>
<path d="M384.001 249.54C383.861 249.54 383.701 249.51 383.531 249.42C381.661 248.49 375.311 236.74 375.171 227.09C375.091 221.52 377.051 217.63 380.981 215.52L382.081 214.93V216.18C382.091 221.28 387.401 232.75 395.371 238.39L396.131 238.93L395.451 239.56C395.061 239.92 385.891 248.37 384.531 249.37C384.441 249.43 384.261 249.54 384.001 249.54ZM380.671 217.47C378.091 219.3 376.751 222.29 376.671 226.37C376.491 235.25 382.371 246.19 383.981 247.88C385.551 246.58 390.631 241.95 393.761 239.06C386.311 233.37 381.371 223.22 380.671 217.47Z" fill="#00809E"/>
<path d="M418.291 223.488C418.461 229.398 415.031 239.848 415.031 239.848L425.651 246.698C425.661 246.708 426.951 226.058 418.291 223.488Z" fill="white"/>
<path d="M426.331 248.029L414.151 240.169L414.331 239.619C414.361 239.519 417.711 229.219 417.551 223.509L417.521 222.469L418.511 222.759C427.631 225.469 426.471 245.869 426.411 246.739L426.331 248.029ZM415.931 239.539L424.961 245.369C425.061 241.109 424.881 227.659 419.041 224.609C418.851 229.869 416.591 237.429 415.931 239.539Z" fill="#00809E"/>
<path d="M342.921 217.05C339.021 213.26 337.071 206.85 333.391 206.24C329.711 205.63 331.771 214.94 334.621 216.66C337.471 218.38 342.921 217.05 342.921 217.05Z" fill="#F7C291"/>
<path d="M338.701 218.289C337.151 218.289 335.481 218.059 334.221 217.299C331.841 215.849 329.911 209.809 330.941 207.029C331.381 205.849 332.321 205.289 333.501 205.489C336.041 205.909 337.751 208.569 339.561 211.369C340.731 213.179 341.931 215.049 343.431 216.499L344.401 217.439L343.081 217.759C342.961 217.809 340.951 218.289 338.701 218.289ZM333.041 206.959C332.751 206.959 332.521 207.099 332.351 207.559C331.551 209.699 333.191 214.919 335.001 216.019C336.751 217.079 339.721 216.829 341.431 216.569C340.251 215.219 339.271 213.679 338.301 212.189C336.671 209.669 335.131 207.289 333.251 206.969C333.181 206.959 333.111 206.959 333.041 206.959Z" fill="#BD611F"/>
<path d="M326.861 211.372C323.851 209.592 321.731 206.132 319.841 206.212C317.941 206.292 315.101 207.912 321.791 215.322C328.481 222.732 334.951 219.172 334.951 219.172L326.861 211.372Z" fill="#F7C291"/>
<path d="M331.011 220.751C328.361 220.751 324.801 219.771 321.231 215.821C317.631 211.831 316.261 208.991 317.041 207.121C317.461 206.121 318.461 205.521 319.801 205.461C319.831 205.461 319.871 205.461 319.901 205.461C321.261 205.461 322.491 206.641 323.921 208.001C324.901 208.941 326.011 210.001 327.241 210.721L327.381 210.831L336.191 219.341L335.301 219.831C335.271 219.851 333.571 220.751 331.011 220.751ZM319.911 206.961C319.901 206.961 319.891 206.961 319.871 206.961C319.521 206.981 318.691 207.081 318.431 207.701C318.191 208.271 318.101 210.111 322.351 214.821C327.071 220.051 331.631 219.491 333.591 218.901L326.411 211.971C325.071 211.161 323.921 210.061 322.901 209.091C321.751 207.991 320.661 206.961 319.911 206.961Z" fill="#BD611F"/>
<path d="M403.821 347.631C373.821 344.951 365.281 308.901 365.691 295.941L357.631 301.161C357.631 301.161 354.571 331.621 355.531 337.121C356.491 342.621 369.161 347.441 384.681 348.051C390.121 348.261 398.761 348.321 403.821 347.631Z" fill="#00BEE3"/>
<path d="M355.011 237.528C355.011 237.528 356.231 219.938 352.441 216.188C348.641 212.428 344.201 218.648 334.731 214.418C333.071 213.678 326.691 209.338 324.941 209.618C323.191 209.898 321.231 211.648 331.251 217.468C331.251 217.468 326.371 216.818 322.491 214.758C318.611 212.708 316.701 210.578 315.231 212.408C313.761 214.238 315.891 216.068 327.911 220.548C327.911 220.548 316.611 216.548 315.051 215.328C313.491 214.098 308.581 215.218 318.511 220.348C328.441 225.478 338.411 227.428 340.641 227.708L340.251 237.128L355.011 237.528Z" fill="#F7C291"/>
<path d="M355.711 238.3L339.461 237.85L339.851 228.35C336.391 227.8 327.141 225.66 318.151 221.01C311.661 217.66 311.691 216.09 311.691 215.58C311.701 215.04 312.001 214.59 312.521 214.34C312.991 214.12 313.621 214.07 314.221 214.19C314.181 214.1 314.161 214.02 314.131 213.93C313.941 213.26 314.111 212.59 314.631 211.95C316.131 210.08 318.021 211.24 320.221 212.59C320.981 213.06 321.841 213.58 322.821 214.1C324.221 214.84 325.771 215.4 327.151 215.8C322.971 212.91 322.611 211.41 322.781 210.49C322.941 209.65 323.671 209.07 324.811 208.88C326.181 208.66 329.031 210.25 332.591 212.36C333.651 212.99 334.571 213.53 335.031 213.74C339.911 215.92 343.391 215.2 346.181 214.63C348.721 214.11 350.921 213.65 352.961 215.67C356.891 219.56 355.881 235.76 355.751 237.6L355.711 238.3ZM341.021 236.39L354.311 236.76C354.611 231.49 354.691 219.47 351.911 216.72C350.441 215.27 348.871 215.59 346.491 216.08C343.641 216.67 339.741 217.47 334.421 215.09C333.881 214.85 332.981 214.31 331.831 213.64C329.941 212.52 326.041 210.2 325.051 210.35C324.621 210.42 324.291 210.59 324.261 210.75C324.231 210.92 324.171 212.49 331.611 216.81L334.871 218.7L331.131 218.2C330.921 218.17 326.081 217.5 322.121 215.41C321.091 214.87 320.211 214.33 319.431 213.85C317.071 212.4 316.401 212.12 315.801 212.87C315.501 213.24 315.551 213.43 315.581 213.51C316.031 215.15 322.981 217.9 328.161 219.83L327.651 221.24C326.481 220.83 316.181 217.17 314.571 215.9C314.181 215.6 313.471 215.55 313.211 215.65C313.321 215.95 314.051 217.18 318.841 219.66C328.311 224.56 338.051 226.61 340.721 226.94L341.411 227.02L341.021 236.39Z" fill="#BD611F"/>
<path d="M337.991 234.452C338.531 234.312 343.951 236.442 357.481 235.102C357.481 235.102 358.511 262.192 365.581 271.012C371.851 278.832 366.361 300.732 361.651 300.622C356.941 300.502 345.071 300.622 339.661 285.512C334.261 270.402 335.711 245.672 337.991 234.452Z" fill="#00AED4"/>
<path d="M361.701 301.371C361.681 301.371 361.661 301.371 361.641 301.371L361.271 301.361C356.221 301.251 344.401 300.981 338.961 285.761C333.661 270.941 334.811 246.291 337.261 234.301L337.351 233.841L337.811 233.721C338.091 233.651 338.351 233.711 339.051 233.851C341.131 234.281 346.651 235.411 357.411 234.351L358.201 234.271L358.231 235.071C358.241 235.341 359.341 262.011 366.171 270.541C371.071 276.651 369.241 290.541 365.841 297.421C364.541 300.041 363.151 301.371 361.701 301.371ZM338.591 235.291C336.271 247.351 335.271 270.991 340.371 285.261C345.471 299.511 356.561 299.761 361.301 299.861L361.671 299.871C361.681 299.871 361.681 299.871 361.691 299.871C362.481 299.871 363.521 298.711 364.491 296.761C367.651 290.391 369.461 277.061 365.001 271.491C358.461 263.331 357.001 240.561 356.771 235.931C346.301 236.881 340.841 235.761 338.751 235.331C338.701 235.311 338.641 235.301 338.591 235.291Z" fill="#00809E"/>
<path d="M369.901 239.012C366.371 244.942 363.831 252.472 363.481 267.532L369.901 239.012Z" fill="#00AED4"/>
<path d="M364.241 267.551L362.741 267.511C363.121 251.111 366.101 243.931 369.261 238.621L370.551 239.391C367.491 244.531 364.611 251.501 364.241 267.551Z" fill="#00809E"/>
<path d="M367.401 285.961C367.401 285.961 365.491 292.401 356.561 291.421C344.481 290.091 338.391 252.641 339.101 235.371L338.591 235.281C338.591 235.281 335.451 251.631 337.191 269.901C338.931 288.171 344.911 297.141 354.711 299.211C354.711 299.211 359.691 300.071 361.831 299.901C361.831 299.901 363.731 299.811 365.891 293.301C365.891 293.311 367.301 288.231 367.401 285.961Z" fill="#00BEE3"/>
<path d="M489.341 230.949C491.221 230.359 495.371 227.749 497.401 225.099C499.431 222.449 499.331 215.219 497.131 215.219C494.161 215.219 495.401 220.449 492.711 223.559L486.251 228.079" fill="#F7C291"/>
<path d="M489.341 231.7C489.021 231.7 488.721 231.49 488.621 231.17C488.501 230.77 488.721 230.35 489.111 230.23C490.901 229.67 494.881 227.15 496.801 224.64C498.221 222.78 498.481 218.25 497.591 216.46C497.521 216.31 497.331 215.97 497.131 215.97C496.191 215.97 495.901 216.82 495.431 218.91C495.071 220.51 494.611 222.51 493.281 224.05L493.141 224.17L486.681 228.69C486.341 228.93 485.871 228.85 485.641 228.51C485.401 228.17 485.481 227.7 485.821 227.47L492.201 223.01C493.241 221.76 493.631 220.07 493.971 218.59C494.431 216.57 494.901 214.48 497.141 214.48C497.571 214.48 498.381 214.65 498.951 215.8C500.041 218.01 499.781 223.24 498.001 225.56C495.881 228.34 491.591 231.04 489.571 231.67C489.491 231.69 489.421 231.7 489.341 231.7Z" fill="#BD611F"/>
<path d="M433.411 243.93C433.171 253 439.301 280.81 444.251 284.7L433.411 243.93Z" fill="#00AED4"/>
<path d="M443.791 285.29C438.481 281.12 432.431 252.7 432.661 243.91L434.161 243.95C433.921 253.25 440.081 280.47 444.711 284.11L443.791 285.29Z" fill="#00809E"/>
<path d="M487.501 228.148C497.031 223.878 493.181 213.998 491.001 215.348C488.861 216.678 490.441 218.548 489.181 222.408C487.921 226.258 477.961 225.988 477.961 225.988C477.961 225.988 482.501 222.808 484.231 219.358C485.961 215.908 483.591 213.178 478.781 217.818C473.971 222.458 471.961 220.268 467.781 221.728C463.601 223.178 461.511 232.998 461.601 238.808C461.601 238.808 473.141 243.508 475.431 243.178C475.431 243.178 474.691 237.468 476.731 236.098C478.781 234.728 481.821 235.668 489.331 236.838C496.841 238.018 502.671 237.458 502.361 235.598C502.051 233.738 493.171 233.058 489.951 232.808C489.951 232.808 502.671 233.428 502.671 222.868C502.671 219.958 499.631 221.258 497.391 225.108C495.161 228.958 489.011 230.138 489.011 230.138" fill="#F7C291"/>
<path d="M475.211 243.928C472.371 243.928 463.201 240.258 461.321 239.488L460.861 239.298L460.851 238.798C460.771 233.428 462.641 222.698 467.531 220.998C469.071 220.458 470.361 220.388 471.491 220.318C473.531 220.198 475.301 220.098 478.251 217.258C481.901 213.748 483.871 214.538 484.561 215.038C485.721 215.888 485.861 217.758 484.901 219.678C483.811 221.858 481.721 223.888 480.191 225.178C483.301 224.988 487.781 224.268 488.471 222.168C488.981 220.618 488.991 219.438 489.011 218.398C489.031 216.998 489.051 215.678 490.611 214.698C491.131 214.368 491.761 214.378 492.331 214.718C493.631 215.488 494.511 217.878 494.381 220.258C494.261 222.408 493.241 226.378 487.811 228.818C487.431 228.988 486.991 228.818 486.821 228.438C486.651 228.058 486.821 227.618 487.201 227.448C491.911 225.338 492.781 221.988 492.891 220.178C493.011 218.038 492.201 216.378 491.571 216.008C491.451 215.938 491.421 215.958 491.411 215.968C490.581 216.488 490.531 216.998 490.511 218.408C490.501 219.498 490.481 220.858 489.901 222.618C488.511 226.878 479.011 226.748 477.941 226.718L475.671 226.658L477.531 225.358C477.571 225.328 481.941 222.248 483.561 219.008C484.241 217.638 484.141 216.588 483.681 216.248C483.221 215.908 481.771 215.968 479.301 218.338C475.951 221.568 473.831 221.688 471.591 221.818C470.501 221.878 469.381 221.948 468.041 222.418C464.541 223.638 462.401 232.438 462.361 238.288C466.281 239.868 472.261 242.048 474.611 242.388C474.481 240.598 474.421 236.728 476.331 235.468C478.231 234.198 480.681 234.618 485.571 235.448C486.711 235.648 488.001 235.858 489.461 236.088C496.531 237.198 500.801 236.598 501.581 235.818C501.641 235.758 501.641 235.728 501.641 235.718C501.461 235.338 499.931 234.318 489.911 233.548L490.001 232.048C490.061 232.048 496.101 232.298 499.541 229.008C501.131 227.488 501.941 225.418 501.941 222.858C501.941 222.338 501.821 222.058 501.701 222.028C501.201 221.888 499.541 222.928 498.061 225.468C495.681 229.568 489.441 230.808 489.171 230.858C488.761 230.938 488.371 230.668 488.291 230.268C488.211 229.858 488.481 229.468 488.881 229.388C488.941 229.378 494.721 228.218 496.751 224.718C498.421 221.838 500.571 220.178 502.081 220.578C502.581 220.718 503.421 221.188 503.421 222.848C503.421 225.838 502.461 228.268 500.551 230.088C499.241 231.338 497.641 232.138 496.081 232.648C500.821 233.288 502.881 234.158 503.091 235.448C503.171 235.958 503.011 236.458 502.621 236.848C500.851 238.638 494.281 238.348 489.201 237.548C487.741 237.318 486.441 237.098 485.291 236.898C480.791 236.128 478.531 235.748 477.131 236.688C475.881 237.528 475.931 241.328 476.151 243.038L476.241 243.768L475.511 243.878C475.441 243.918 475.331 243.928 475.211 243.928Z" fill="#BD611F"/>
<path d="M469.791 229.199C471.481 226.019 479.601 222.879 485.251 229.969L469.791 229.199Z" fill="#F7C291"/>
<path d="M485.251 230.719C485.031 230.719 484.811 230.619 484.661 230.439C482.391 227.589 479.371 226.178 476.171 226.478C473.341 226.738 471.151 228.229 470.451 229.559C470.261 229.929 469.801 230.069 469.441 229.869C469.071 229.679 468.931 229.218 469.131 228.858C470.191 226.858 473.031 225.269 476.041 224.989C479.761 224.639 483.241 226.249 485.841 229.509C486.101 229.829 486.041 230.309 485.721 230.559C485.571 230.659 485.411 230.719 485.251 230.719Z" fill="#BD611F"/>
<path d="M426.501 225.07C431.741 224.89 439.621 226.89 442.261 237.26C444.901 247.63 444.771 260 449.011 262.62L450.521 258.52C450.521 258.52 447.341 251.52 446.231 244.7C445.121 237.88 444.841 227.44 437.391 224.17C429.941 220.9 426.501 225.07 426.501 225.07Z" fill="#00BEE3"/>
<path d="M459.341 234.027C455.921 240.157 441.781 282.227 444.731 290.587C447.681 298.957 450.621 301.077 455.691 300.607C460.761 300.137 467.831 295.537 470.301 283.517C472.771 271.497 477.961 241.447 477.961 241.447C477.961 241.447 466.171 242.037 459.341 234.027Z" fill="#00AED4"/>
<path d="M454.441 301.419C449.531 301.419 446.711 298.479 444.021 290.839C440.881 281.909 455.621 239.169 458.681 233.659L459.211 232.719L459.911 233.539C466.431 241.179 477.801 240.709 477.921 240.699L478.861 240.649L478.701 241.569C478.651 241.869 473.491 271.769 471.041 283.659C468.521 295.899 461.241 300.829 455.761 301.339C455.301 301.399 454.861 301.419 454.441 301.419ZM459.511 235.339C455.291 244.159 442.731 282.679 445.431 290.349C448.431 298.869 451.321 300.269 455.611 299.869C460.571 299.409 467.201 294.809 469.561 283.379C471.771 272.669 476.181 247.289 477.061 242.219C474.201 242.179 465.461 241.539 459.511 235.339Z" fill="#00809E"/>
<path d="M356.221 220.561C360.711 216.321 363.501 215.601 366.301 216.181C369.101 216.771 373.431 219.021 375.231 220.561C377.031 222.101 376.031 212.531 365.931 212.531C359.351 212.531 356.221 220.561 356.221 220.561Z" fill="#00BEE3"/>
<path d="M445.991 61.4309C445.951 61.4309 445.921 61.431 445.881 61.421C416.841 58.331 395.651 39.0009 388.501 26.7609C386.821 23.8909 385.061 19.9409 386.151 17.4009C389.141 10.4509 399.751 9.43095 424.031 14.3009C426.081 11.0609 429.001 8.49094 432.761 6.64094C445.451 0.370944 465.981 3.41095 480.701 9.20095C481.211 9.40095 481.471 9.98095 481.261 10.5009C481.061 11.0109 480.471 11.271 479.961 11.061C465.651 5.43095 445.781 2.43095 433.641 8.43095C430.481 9.99095 427.981 12.1009 426.141 14.7309C429.491 15.4309 433.081 16.231 436.941 17.1309C466.221 24.0009 495.791 41.9409 497.341 50.8309C497.631 52.4909 497.011 53.9109 495.591 54.8309C492.121 57.0909 487.191 58.091 481.521 58.091C466.401 58.091 445.941 50.9809 433.281 41.6209C423.711 34.5409 419.531 26.8609 421.501 19.9809C421.891 18.6209 422.381 17.3409 422.981 16.1409C400.831 11.7709 390.431 12.4809 387.971 18.2009C387.521 19.2409 387.881 21.7709 390.211 25.7609C397.161 37.6509 417.771 56.431 446.081 59.4409C446.631 59.5009 447.031 59.9909 446.971 60.5409C446.921 61.0509 446.491 61.4309 445.991 61.4309ZM425.041 16.5509C424.381 17.7809 423.851 19.111 423.441 20.531C421.721 26.551 425.641 33.4709 434.491 40.0109C451.031 52.2509 482.611 60.8909 494.521 53.1509C495.281 52.6609 495.551 52.051 495.391 51.171C494.111 43.821 466.631 26.1509 436.501 19.0809C432.381 18.1109 428.571 17.2709 425.041 16.5509Z" fill="#BDBDBD"/>
<path d="M487.191 0C487.061 0.4 483.731 7.85001 483.731 7.85001H477.081L482.141 11.58L479.351 19.16L486.531 13.71L492.121 19.16L489.731 11.84L495.851 10.38L488.931 8.38L487.191 0Z" fill="#BFBFBF"/>
<path d="M496.351 71.75L497.501 76.19H501.361L498.001 78.81L498.861 82.68L495.691 78.9L492.001 82.68L493.891 77.66L489.941 75.69L494.381 75.61L496.351 71.75Z" fill="#BFBFBF"/>
<path d="M392.001 19.8711L393.241 28.6511L400.241 30.0711L394.111 32.8711L396.121 39.4711L389.781 33.8811L383.391 39.4711L387.561 31.0511L381.531 27.8511L388.271 27.5911L392.001 19.8711Z" fill="#BFBFBF"/>
<path d="M321.041 165.749C320.531 163.569 321.211 161.089 324.381 160.659C326.721 160.349 327.781 161.819 328.261 163.029C329.721 166.739 322.501 168.799 325.501 179.079L330.641 177.109C330.641 177.109 329.181 173.869 330.641 171.509C332.101 169.139 335.011 164.999 333.211 160.599C331.411 156.199 326.441 154.149 321.561 156.459C316.681 158.769 314.281 162.729 316.081 167.349L321.041 165.749Z" fill="#D20034"/>
<path d="M330.291 187.442C332.213 187.442 333.771 186.17 333.771 184.602C333.771 183.033 332.213 181.762 330.291 181.762C328.369 181.762 326.811 183.033 326.811 184.602C326.811 186.17 328.369 187.442 330.291 187.442Z" fill="#D20034"/>
<path d="M484.361 175.481C487.681 168.221 497.681 167.451 503.371 172.891C509.101 178.381 506.141 184.921 504.691 186.581C501.901 189.781 497.371 189.551 493.851 192.571C491.991 194.171 490.791 197.231 490.791 197.231L485.031 194.761C485.031 194.761 487.131 190.161 489.641 188.331C492.981 185.901 497.311 186.671 499.231 183.101C501.151 179.521 499.441 177.141 497.311 175.841C495.181 174.541 492.561 174.781 489.691 178.171L484.361 175.481Z" fill="#D20034"/>
<path d="M488.769 205.213C489.523 203.493 488.56 201.409 486.617 200.557C484.675 199.705 482.489 200.409 481.735 202.129C480.981 203.848 481.944 205.933 483.887 206.784C485.829 207.636 488.015 206.932 488.769 205.213Z" fill="#D20034"/>
<path d="M395.711 126.702C403.241 127.632 443.881 131.932 457.511 146.442L458.021 142.562C458.021 142.562 451.181 131.992 438.681 127.362C428.311 123.522 417.411 126.412 410.711 126.392C404.841 127.032 395.711 126.702 395.711 126.702Z" fill="#EAB47E"/>
<defs>
<linearGradient id="paint0_linear" x1="381.471" y1="184.616" x2="398.578" y2="170.537" gradientUnits="userSpaceOnUse">
<stop stop-color="white"/>
<stop offset="1" stop-color="white" stop-opacity="0"/>
</linearGradient>
<linearGradient id="paint1_linear" x1="425.329" y1="194.616" x2="442.217" y2="181.512" gradientUnits="userSpaceOnUse">
<stop stop-color="white"/>
<stop offset="1" stop-color="white" stop-opacity="0"/>
</linearGradient>
</defs>
</svg>
