<svg width="461" height="411" viewBox="0 0 461 411" fill="none" xmlns="http://www.w3.org/2000/svg">
<path d="M187.604 0.68C212.424 18.79 242.244 36.02 284.914 37.53C327.584 39.04 376.034 26.21 404.334 36.82C432.624 47.43 436.084 91.72 440.334 122.3C444.594 152.88 450.334 207.5 456.694 237.95C463.044 268.4 467.824 320.48 410.254 360.19C371.964 386.6 314.584 410.67 314.584 410.67H24.1537C24.1537 410.67 1.22371 377.56 0.0637129 342.55C-1.87629 283.89 41.0337 233.02 54.1337 208.1C67.2337 183.18 72.5237 157.91 74.6837 77.32C75.5637 44.64 97.4037 0 97.4037 0L187.604 0.68Z" fill="#F2FBFF"/>
<path d="M246.134 30.9895C268.124 35.1895 291.684 81.4395 317.474 91.2595C343.264 101.069 347.294 103.339 387.174 106.359C427.054 109.379 440.144 118.689 440.894 134.419C441.644 150.149 434.444 173.399 422.034 207.449C409.624 241.499 409.264 261.889 398.804 284.579C388.344 307.279 376.814 326.599 332.134 342.739C287.454 358.879 206.764 369.159 186.204 371.469C165.644 373.779 75.0238 379.089 42.0438 348.599C9.06384 318.109 22.8938 270.759 37.9638 250.189C53.0338 229.619 95.4138 196.109 111.374 184.049C127.334 171.989 145.244 146.279 160.314 113.829C175.384 81.3795 217.234 25.4695 246.134 30.9895Z" fill="#D9F4FF"/>
<path d="M203.574 205.92C184.974 195.41 163.074 176.34 164.664 150.29C165.734 132.76 168.514 138.1 175.144 139.6C181.774 141.1 181.034 104.73 203.584 97.0502C209.654 94.9802 206.074 104.28 212.654 103.65C219.244 103.02 224.444 82.1502 248.384 75.6502C257.254 73.2402 252.494 96.1102 261.184 99.2202C266.114 100.99 268.644 93.9002 273.974 93.8102C279.304 93.7202 289.884 103.71 293.864 125.05C297.844 146.39 299.684 135.43 303.854 133.3C308.024 131.17 315.804 130.5 315.304 165.39C314.804 200.28 271.184 208.5 271.184 208.5C271.184 208.5 235.284 220.58 234.784 220.75C234.284 220.92 209.954 221.76 209.954 221.76L203.574 205.92Z" fill="#DA5C21"/>
<path d="M209.454 222.522L202.984 206.452C190.444 199.322 162.114 179.842 163.924 150.252C164.424 142.022 165.284 138.522 167.094 137.362C168.484 136.472 170.114 137.092 171.994 137.802C172.974 138.172 174.084 138.602 175.314 138.872C177.124 139.262 178.614 134.392 180.354 128.752C183.734 117.822 188.834 101.292 203.344 96.3415C207.084 95.0615 207.984 97.6615 208.634 99.5615C209.404 101.792 210.014 103.152 212.584 102.902C214.644 102.702 216.844 99.8315 219.624 96.1915C224.824 89.4015 232.674 79.1415 248.184 74.9215C249.534 74.5515 250.724 74.6915 251.704 75.3115C254.144 76.8715 254.894 81.2015 255.684 85.8015C256.604 91.1215 257.644 97.1515 261.424 98.5015C263.674 99.3115 265.394 97.9015 267.384 96.2615C269.184 94.7815 271.224 93.0915 273.954 93.0415C273.984 93.0415 274.014 93.0415 274.044 93.0415C280.204 93.0415 290.704 104.042 294.594 124.892C296.524 135.252 297.854 137.062 298.474 137.222C298.904 137.332 299.834 136.222 300.514 135.412C301.364 134.382 302.334 133.212 303.514 132.602C305.794 131.432 307.834 131.382 309.554 132.462C314.204 135.352 316.334 146.122 316.054 165.372C315.554 199.912 273.154 208.842 271.374 209.202C269.944 209.682 235.504 221.272 235.014 221.432C234.614 221.562 226.184 221.922 209.974 222.482L209.454 222.522ZM168.664 138.412C168.364 138.412 168.114 138.472 167.894 138.622C166.624 139.442 165.854 143.062 165.414 150.352C163.654 179.272 191.774 198.402 203.944 205.282L204.174 205.412L210.454 220.992C219.924 220.662 233.814 220.152 234.624 220.022C235.044 219.872 270.944 207.802 270.944 207.802L271.044 207.772C271.474 207.692 314.064 199.252 314.554 165.382C314.884 142.432 311.584 135.522 308.764 133.762C307.504 132.972 306.004 133.042 304.194 133.972C303.284 134.432 302.424 135.482 301.664 136.402C300.534 137.772 299.454 139.072 298.094 138.712C296.504 138.302 295.114 135.892 293.114 125.202C289.114 103.752 278.594 94.5715 274.034 94.5715C274.014 94.5715 273.994 94.5715 273.974 94.5715C271.774 94.6115 270.024 96.0515 268.324 97.4515C266.184 99.2115 263.964 101.042 260.914 99.9415C256.304 98.2915 255.184 91.8015 254.194 86.0815C253.464 81.8215 252.764 77.8015 250.884 76.6015C250.264 76.2015 249.504 76.1315 248.564 76.3915C233.534 80.4715 225.874 90.4915 220.804 97.1215C217.684 101.202 215.424 104.152 212.714 104.412C208.824 104.792 207.884 102.062 207.204 100.072C206.444 97.8815 206.054 97.0215 203.814 97.7815C190.024 102.482 185.054 118.562 181.774 129.212C179.574 136.352 178.124 141.082 174.974 140.352C173.644 140.052 172.474 139.612 171.454 139.222C170.204 138.732 169.324 138.412 168.664 138.412Z" fill="#863413"/>
<path d="M201.774 210.81C198.244 208.57 191.574 209.49 192.554 217.99C193.534 226.5 201.944 234.96 207.884 232.28L206.114 219.66L201.774 210.81Z" fill="#F0C298"/>
<path d="M205.474 233.551C204.024 233.551 202.474 233.101 200.894 232.201C196.254 229.571 192.434 223.631 191.794 218.081C191.204 212.951 193.344 210.791 194.674 209.951C196.794 208.621 199.874 208.711 202.164 210.171L202.344 210.281L206.854 219.551L208.694 232.731L208.184 232.961C207.334 233.361 206.424 233.551 205.474 233.551ZM198.094 210.511C197.194 210.511 196.284 210.721 195.474 211.231C193.674 212.361 192.914 214.671 193.284 217.911C193.874 223.021 197.384 228.481 201.634 230.901C203.024 231.691 205.054 232.451 207.044 231.811L205.384 219.891L201.194 211.341C200.354 210.851 199.234 210.511 198.094 210.511Z" fill="#B36334"/>
<path d="M202.834 227.313C202.814 227.313 202.784 227.313 202.764 227.313C202.354 227.273 202.054 226.903 202.094 226.493C202.824 218.973 199.024 217.713 196.094 217.423C195.684 217.383 195.384 217.013 195.424 216.603C195.464 216.193 195.824 215.873 196.244 215.933C201.754 216.483 204.224 220.083 203.584 226.643C203.544 227.023 203.224 227.313 202.834 227.313Z" fill="#B36434"/>
<path d="M200.674 201.76C188.524 193.45 173.184 180.99 173.184 160.32C173.184 144.98 180.174 152.66 185.334 149.67C191.194 146.26 188.164 126.75 201.314 117.07C208.984 111.42 206.524 123.51 214.634 124.21C225.824 125.17 231.894 94.5898 240.624 94.8098C249.354 95.0298 247.444 117.85 258.844 118.67C266.484 119.22 266.414 111.54 273.594 111.43C282.074 111.3 281.624 136.41 287.604 147.06C293.774 158.04 302.934 171.91 314.314 145.47C314.314 145.47 324.524 181.3 297.014 196.65L253.024 211.22L231.544 219.55L210.884 219.2L200.674 201.76Z" fill="#B15928"/>
<path d="M231.684 220.29H231.534L210.454 219.93L200.114 202.29C187.194 193.44 172.444 180.67 172.444 160.33C172.444 155.29 173.194 152.25 174.794 150.76C176.304 149.35 178.274 149.5 180.184 149.63C181.824 149.75 183.514 149.87 184.954 149.03C187.044 147.81 187.954 143.8 189.014 139.16C190.714 131.69 192.824 122.4 200.864 116.48C202.694 115.13 204.124 114.63 205.374 114.91C207.004 115.27 207.874 116.85 208.804 118.53C210.064 120.82 211.374 123.19 214.694 123.48C220.194 123.97 224.714 115.42 228.714 107.89C232.484 100.79 236.054 94.0703 240.534 94.0703C240.574 94.0703 240.604 94.0703 240.644 94.0703C245.264 94.1803 247.114 99.5303 249.074 105.19C251.174 111.26 253.344 117.53 258.904 117.93C262.514 118.19 264.164 116.52 266.064 114.58C267.824 112.78 269.824 110.75 273.594 110.69C273.624 110.69 273.644 110.69 273.674 110.69C279.324 110.69 281.244 119.95 283.274 129.75C284.584 136.04 285.934 142.55 288.264 146.7C292.204 153.71 296.484 160.16 301.364 159.91C305.394 159.7 309.524 154.74 313.634 145.18L314.464 143.25L315.044 145.28C315.144 145.64 325.104 181.86 297.394 197.32L297.264 197.38L253.274 211.95L231.684 220.29ZM211.324 218.44L231.414 218.78L252.754 210.5L296.714 195.94C319.474 183.19 315.704 155.66 314.094 147.79C309.974 156.69 305.824 161.14 301.434 161.38C295.794 161.68 291.124 154.84 286.944 147.41C284.494 143.05 283.124 136.43 281.794 130.03C279.974 121.25 278.084 112.16 273.654 112.16C273.634 112.16 273.624 112.16 273.604 112.16C270.454 112.21 268.834 113.86 267.124 115.6C265.234 117.53 263.074 119.71 258.784 119.4C252.244 118.93 249.804 111.87 247.644 105.65C245.864 100.49 244.174 95.6203 240.594 95.5403C237.034 95.4503 233.454 102.12 230.034 108.56C225.614 116.89 221.054 125.52 214.554 124.94C210.434 124.59 208.794 121.61 207.474 119.22C206.684 117.79 206.004 116.55 205.034 116.34C204.264 116.17 203.154 116.61 201.734 117.65C194.144 123.24 192.094 132.23 190.454 139.46C189.274 144.65 188.344 148.75 185.684 150.3C183.844 151.37 181.824 151.23 180.044 151.1C178.314 150.97 176.814 150.87 175.784 151.83C174.524 153.01 173.904 155.78 173.904 160.3C173.904 179.9 187.634 191.93 201.064 201.12L201.204 201.21L211.324 218.44Z" fill="#863413"/>
<path d="M254.794 249.994C223.934 258.344 214.154 242.764 206.824 230.544C199.494 218.324 202.804 202.744 200.714 197.344C198.624 191.944 189.414 181.054 191.724 162.484C191.724 162.484 198.714 154.674 213.854 153.144C228.994 151.614 252.464 153.314 259.784 142.934C259.784 142.934 277.044 158.754 281.894 193.874C281.894 193.874 303.974 186.784 299.154 206.634C294.394 226.284 280.354 219.354 279.594 217.694C279.594 217.694 280.174 229.284 275.374 235.404C270.574 241.524 265.114 246.654 263.044 251.284C260.974 255.914 254.774 265.094 254.774 265.094L226.734 268.984L218.874 257.074L219.644 246.404" fill="#F0C298"/>
<path d="M226.744 269.743C226.494 269.743 226.254 269.613 226.114 269.403L218.254 257.493C218.164 257.353 218.124 257.193 218.134 257.023L218.864 246.813C213.024 242.333 209.344 236.203 206.174 230.923C201.274 222.753 201.024 213.093 200.854 206.033C200.764 202.443 200.684 199.353 200.014 197.603C199.594 196.523 198.854 195.173 197.994 193.593C194.674 187.513 189.114 177.323 190.984 162.383C191.004 162.233 191.064 162.093 191.174 161.973C191.464 161.643 198.534 153.933 213.794 152.383C217.154 152.043 220.864 151.863 224.794 151.673C238.344 151.023 253.694 150.283 259.184 142.493C259.304 142.313 259.504 142.203 259.714 142.183C259.924 142.163 260.144 142.233 260.304 142.373C260.474 142.533 277.544 158.513 282.534 192.913C285.234 192.193 293.584 190.383 297.964 194.453C300.634 196.943 301.294 201.093 299.914 206.803C297.254 217.753 291.814 220.523 287.704 220.923C284.834 221.203 282.054 220.313 280.394 219.323C280.364 222.823 279.854 230.943 275.994 235.863C274.354 237.953 272.654 239.913 271.014 241.803C267.834 245.463 265.084 248.633 263.764 251.583C261.694 256.223 255.684 265.133 255.424 265.513C255.304 265.693 255.114 265.803 254.904 265.833L226.864 269.723C226.814 269.743 226.774 269.743 226.744 269.743ZM219.654 256.883L227.114 268.183L254.354 264.403C255.404 262.843 260.554 255.053 262.374 250.983C263.784 247.823 266.594 244.583 269.854 240.823C271.484 238.943 273.174 237.003 274.794 234.943C279.364 229.113 278.854 217.843 278.854 217.733C278.834 217.373 279.074 217.053 279.424 216.963C279.774 216.883 280.134 217.053 280.284 217.383C280.614 217.923 284.054 219.983 288.064 219.373C292.984 218.623 296.564 214.153 298.434 206.463C299.684 201.323 299.174 197.653 296.924 195.563C292.404 191.363 282.234 194.563 282.124 194.593C281.914 194.663 281.684 194.633 281.494 194.513C281.304 194.393 281.184 194.203 281.154 193.983C276.904 163.173 262.904 147.223 259.864 144.073C253.584 151.803 238.344 152.533 224.854 153.183C220.944 153.373 217.254 153.553 213.934 153.883C200.494 155.243 193.544 161.703 192.434 162.813C190.714 177.143 195.884 186.603 199.304 192.873C200.184 194.493 200.954 195.893 201.404 197.063C202.174 199.053 202.254 202.113 202.344 205.993C202.514 212.883 202.754 222.313 207.454 230.143C214.394 241.713 223.904 257.563 254.584 249.253C254.994 249.143 255.394 249.383 255.504 249.783C255.614 250.183 255.374 250.593 254.974 250.703C238.304 255.213 227.664 252.843 220.284 247.833L219.654 256.883Z" fill="#B36334"/>
<path d="M281.154 193.981C276.904 163.211 262.904 147.231 259.864 144.071C253.584 151.801 238.344 152.531 224.854 153.181C220.944 153.371 217.254 153.551 213.934 153.881C199.294 155.361 192.354 162.901 192.284 162.981L191.164 161.981C191.454 161.651 198.524 153.941 213.784 152.391C217.144 152.051 220.854 151.871 224.784 151.681C238.334 151.031 253.684 150.291 259.174 142.501L259.664 141.801L260.294 142.381C260.464 142.541 277.814 158.791 282.644 193.771L281.154 193.981Z" fill="#863413"/>
<path d="M262.014 190.402C262.724 193.982 256.894 197.242 252.244 197.242C247.594 197.242 243.674 195.862 243.674 192.212C243.674 188.562 246.994 182.902 252.574 183.182C257.504 183.442 261.294 186.752 262.014 190.402Z" fill="white"/>
<path d="M185.624 170.37C186.534 168.15 191.724 162.48 191.724 162.48L185.624 170.37Z" fill="#B15928"/>
<path d="M185.624 171.12C185.534 171.12 185.434 171.1 185.344 171.06C184.964 170.9 184.774 170.47 184.934 170.08C185.884 167.76 190.964 162.2 191.174 161.97C191.454 161.67 191.924 161.64 192.234 161.92C192.544 162.2 192.564 162.67 192.284 162.98C190.864 164.53 187.024 168.93 186.324 170.65C186.194 170.94 185.914 171.12 185.624 171.12Z" fill="#863413"/>
<path d="M241.554 167.261C241.114 164.991 244.434 161.421 251.574 162.121C258.714 162.821 261.524 168.521 260.984 169.531C259.594 172.141 254.104 168.311 250.784 168.571C247.484 168.831 242.424 171.531 241.554 167.261Z" fill="#853413"/>
<path d="M215.104 174.482C215.474 177.862 211.994 178.452 207.374 178.452C203.764 178.452 202.074 182.712 200.504 182.712C197.254 182.712 198.434 177.722 201.954 174.762C205.754 171.572 214.524 169.212 215.104 174.482Z" fill="#853413"/>
<path d="M222.004 198.671C222.714 202.251 217.504 204.541 212.864 204.541C208.724 204.541 204.514 203.921 204.514 200.681C204.514 197.031 207.714 191.361 213.294 191.651C218.214 191.891 221.284 195.021 222.004 198.671Z" fill="white"/>
<path d="M243.644 193.641C243.204 191.261 243.434 188.591 244.824 186.331C245.494 185.201 246.474 184.231 247.614 183.521C248.764 182.821 250.084 182.421 251.394 182.261C252.704 182.141 254.034 182.191 255.314 182.561C256.584 182.941 257.794 183.551 258.774 184.421C260.744 186.131 261.974 188.541 262.164 190.981C261.174 188.771 259.664 186.891 257.824 185.661C255.984 184.441 253.784 183.971 251.604 184.241C249.444 184.431 247.464 185.471 246.094 187.201C244.714 188.941 244.034 191.241 243.644 193.641Z" fill="black"/>
<path d="M222.004 199.111C221.414 196.931 220.014 195.291 218.304 194.201C217.444 193.671 216.524 193.231 215.554 192.971C214.604 192.701 213.604 192.561 212.684 192.671C210.774 192.881 208.864 193.791 207.404 195.171C205.934 196.561 204.924 198.471 204.504 200.671C204.084 198.461 204.724 195.971 206.254 194.121C207.754 192.231 210.014 190.991 212.474 190.691C215.034 190.491 217.394 191.431 219.224 192.961C220.144 193.721 220.894 194.681 221.404 195.751C221.904 196.811 222.134 197.991 222.004 199.111Z" fill="black"/>
<path d="M252.614 195.42C255.082 195.42 257.084 193.419 257.084 190.95C257.084 188.482 255.082 186.48 252.614 186.48C250.145 186.48 248.144 188.482 248.144 190.95C248.144 193.419 250.145 195.42 252.614 195.42Z" fill="#199CBF"/>
<path d="M252.614 193.523C254.033 193.523 255.184 192.372 255.184 190.953C255.184 189.533 254.033 188.383 252.614 188.383C251.194 188.383 250.044 189.533 250.044 190.953C250.044 192.372 251.194 193.523 252.614 193.523Z" fill="black"/>
<path d="M255.444 189.591C256.521 189.591 257.394 188.718 257.394 187.641C257.394 186.564 256.521 185.691 255.444 185.691C254.367 185.691 253.494 186.564 253.494 187.641C253.494 188.718 254.367 189.591 255.444 189.591Z" fill="white"/>
<path d="M251.594 194.691C252.284 194.691 252.844 194.132 252.844 193.441C252.844 192.751 252.284 192.191 251.594 192.191C250.903 192.191 250.344 192.751 250.344 193.441C250.344 194.132 250.903 194.691 251.594 194.691Z" fill="white"/>
<path d="M214.474 202.952C216.942 202.952 218.944 200.95 218.944 198.482C218.944 196.013 216.942 194.012 214.474 194.012C212.005 194.012 210.004 196.013 210.004 198.482C210.004 200.95 212.005 202.952 214.474 202.952Z" fill="#199CBF"/>
<path d="M214.474 201.05C215.893 201.05 217.044 199.9 217.044 198.48C217.044 197.061 215.893 195.91 214.474 195.91C213.054 195.91 211.904 197.061 211.904 198.48C211.904 199.9 213.054 201.05 214.474 201.05Z" fill="black"/>
<path d="M219.264 195.173C219.264 196.253 218.394 197.123 217.314 197.123C216.234 197.123 215.364 196.253 215.364 195.173C215.364 194.543 215.664 193.973 216.134 193.623C216.464 193.373 216.834 193.543 217.204 193.793C218.244 194.513 219.264 194.683 219.264 195.173Z" fill="white"/>
<path d="M208.928 216C193.868 216 191.382 200.823 191.009 194.216C190.856 191.529 192.711 189.134 195.321 188.656L220.001 184.082C221.425 183.818 222.898 184.199 224.036 185.118C225.164 186.036 225.852 187.395 225.929 188.871C226.216 194.627 225.872 205.191 220.393 211.27C217.715 214.251 214.13 215.834 209.731 215.99C209.463 215.99 209.196 216 208.928 216Z" fill="url(#paint0_linear)"/>
<path d="M253.928 207C238.868 207 236.382 192.297 236.009 185.897C235.856 183.294 237.711 180.974 240.321 180.51L265.001 176.079C266.425 175.824 267.898 176.193 269.036 177.083C270.164 177.973 270.852 179.289 270.929 180.718C271.216 186.295 270.872 196.529 265.393 202.418C262.715 205.305 259.13 206.839 254.731 206.991C254.463 206.991 254.196 207 253.928 207Z" fill="url(#paint1_linear)"/>
<path d="M213.454 202.223C214.144 202.223 214.704 201.663 214.704 200.973C214.704 200.282 214.144 199.723 213.454 199.723C212.763 199.723 212.204 200.282 212.204 200.973C212.204 201.663 212.763 202.223 213.454 202.223Z" fill="white"/>
<path d="M209.484 216.541C193.734 216.541 191.134 201.011 190.744 194.251C190.584 191.501 192.524 189.051 195.254 188.561L221.064 183.881C222.554 183.611 224.094 184.001 225.284 184.941C226.464 185.881 227.184 187.271 227.264 188.781C227.564 194.671 227.204 205.481 221.474 211.701C218.674 214.751 214.924 216.371 210.324 216.531C210.044 216.531 209.764 216.541 209.484 216.541ZM221.434 185.841L195.624 190.521C193.884 190.831 192.654 192.391 192.754 194.131C193.194 201.961 196.064 215.031 210.274 214.521C214.314 214.381 217.594 212.971 220.024 210.341C225.254 204.651 225.564 194.441 225.284 188.871C225.234 187.941 224.794 187.081 224.064 186.501C223.314 185.911 222.354 185.681 221.434 185.841Z" fill="black"/>
<path d="M254.284 207.28C238.964 207.28 235.324 192.64 234.464 186.25C234.094 183.49 235.934 180.9 238.654 180.36L265.024 175.1C266.694 174.76 268.424 175.18 269.774 176.24C271.104 177.29 271.904 178.86 271.964 180.55C272.564 197.1 266.464 206.83 255.234 207.26C254.914 207.27 254.594 207.28 254.284 207.28ZM239.044 182.32C237.354 182.66 236.214 184.27 236.444 185.98C237.444 193.41 241.194 205.79 255.144 205.26C268.784 204.74 270.284 189.6 269.954 180.62C269.914 179.52 269.394 178.49 268.524 177.81C267.644 177.11 266.514 176.84 265.414 177.06L239.044 182.32Z" fill="black"/>
<path d="M226.344 189.59L226.264 194.68L237.244 193.52L235.834 188.41L226.344 189.59Z" fill="black"/>
<path d="M270.064 177.992C270.504 177.932 288.664 186.942 289.684 192.652C289.684 192.652 284.294 192.692 281.894 193.882L270.994 185.932C271.004 185.932 271.544 179.732 270.064 177.992Z" fill="black"/>
<path d="M191.003 195.235C190.968 195.302 191.268 200.484 191.268 200.484L201 206C201 206 200.806 200.179 200.577 198.941C200.577 198.941 191.003 193.863 191.003 195.235Z" fill="black"/>
<path d="M281.434 213.011C281.404 213.011 281.374 213.011 281.344 213.001C280.934 212.951 280.644 212.571 280.694 212.161C282.104 200.831 289.784 198.111 293.624 198.201C294.034 198.211 294.364 198.561 294.354 198.971C294.344 199.391 293.994 199.721 293.584 199.701C290.214 199.551 283.464 202.091 282.194 212.351C282.134 212.731 281.804 213.011 281.434 213.011Z" fill="#B36434"/>
<path d="M286.694 216.24C286.284 216.24 285.944 215.9 285.944 215.49C285.944 215.08 286.284 214.74 286.694 214.74C289.404 214.74 292.564 211.19 292.854 207.82C292.894 207.41 293.264 207.1 293.664 207.14C294.074 207.18 294.384 207.54 294.344 207.95C293.994 212.13 290.204 216.24 286.694 216.24Z" fill="#B36434"/>
<path d="M287.514 211.301C287.454 211.301 287.394 211.291 287.344 211.281C286.944 211.181 286.694 210.781 286.784 210.381C287.294 208.241 285.994 206.471 283.464 205.861C283.064 205.761 282.814 205.361 282.914 204.951C283.014 204.551 283.414 204.301 283.824 204.401C287.174 205.211 288.954 207.751 288.244 210.731C288.164 211.071 287.854 211.301 287.514 211.301Z" fill="#B36434"/>
<path d="M229.114 200.68C229.114 205.92 224.874 210.49 225.064 213.09C225.254 215.69 230.514 217.97 235.014 213.47" fill="#F0C298"/>
<path d="M229.434 216.77C228.604 216.77 227.834 216.62 227.184 216.38C225.514 215.76 224.414 214.52 224.314 213.14C224.214 211.82 225.004 210.24 225.914 208.42C227.064 206.11 228.364 203.5 228.364 200.68C228.364 200.27 228.704 199.93 229.114 199.93C229.524 199.93 229.864 200.27 229.864 200.68C229.864 203.85 228.414 206.75 227.254 209.09C226.474 210.65 225.744 212.13 225.804 213.04C225.864 213.8 226.624 214.58 227.704 214.98C228.514 215.28 231.394 216.02 234.474 212.94C234.764 212.65 235.244 212.65 235.534 212.94C235.824 213.23 235.824 213.71 235.534 214C233.494 216.03 231.294 216.77 229.434 216.77Z" fill="#B36334"/>
<path d="M161.514 288.25C158.974 294.84 158.744 297.15 161.514 299.07C161.514 299.07 160.594 303.84 163.514 305.61C166.434 307.38 166.284 306.76 166.284 306.76V304.45C166.284 304.45 164.124 302.53 164.284 300.45C164.284 300.45 168.294 299.6 169.234 298.09C170.254 296.45 169.604 292.02 166.214 292.25C162.834 292.48 161.974 294.99 161.974 294.99C161.974 294.99 160.824 290.89 161.514 288.25Z" fill="#F99792"/>
<path d="M234.094 225.682C246.844 225.682 257.364 218.142 262.074 214.052C266.794 209.972 270.724 215.522 266.524 222.462C262.324 229.402 250.204 240.672 238.434 239.342C226.664 238.012 221.134 229.462 219.594 227.362C218.054 225.262 219.244 223.092 223.024 224.352C226.804 225.612 234.094 225.682 234.094 225.682Z" fill="#5E2210"/>
<path d="M240.344 240.201C239.674 240.201 239.014 240.161 238.354 240.091C226.874 238.791 221.144 230.811 219.264 228.191L218.994 227.811C218.084 226.561 217.934 225.211 218.624 224.271C219.004 223.741 220.224 222.631 223.264 223.641C226.854 224.841 233.894 224.931 234.094 224.931C246.974 224.931 257.604 216.931 261.584 213.491C264.044 211.361 266.224 211.711 267.444 212.741C269.364 214.361 269.884 218.361 267.164 222.851C262.744 230.151 251.454 240.201 240.344 240.201ZM221.034 224.731C220.394 224.731 219.994 224.921 219.824 225.151C219.544 225.541 219.684 226.231 220.194 226.921L220.474 227.311C222.264 229.801 227.694 237.371 238.514 238.601C249.594 239.851 261.394 229.481 265.874 222.081C268.134 218.351 267.874 215.071 266.474 213.891C265.504 213.071 264.044 213.351 262.564 214.631C258.464 218.181 247.474 226.441 234.084 226.441H234.074C233.774 226.441 226.624 226.351 222.774 225.071C222.074 224.831 221.484 224.731 221.034 224.731Z" fill="#952F16"/>
<path d="M269.574 219.043C269.184 219.043 268.864 218.743 268.824 218.353C268.594 215.553 266.934 213.453 265.614 213.453C265.204 213.453 264.864 213.113 264.864 212.703C264.864 212.293 265.204 211.953 265.614 211.953C267.914 211.953 270.024 214.763 270.314 218.223C270.354 218.633 270.044 219.003 269.634 219.033C269.614 219.033 269.594 219.043 269.574 219.043Z" fill="#952F16"/>
<path d="M217.994 231.052C217.624 231.052 217.304 230.772 217.254 230.392C216.954 228.072 217.564 225.522 218.734 224.192C219.274 223.582 219.904 223.262 220.564 223.262C220.974 223.262 221.314 223.602 221.314 224.012C221.314 224.422 220.974 224.762 220.564 224.762C220.284 224.762 220.024 224.992 219.854 225.182C219.114 226.032 218.464 228.072 218.734 230.202C218.784 230.612 218.494 230.992 218.084 231.042C218.054 231.052 218.024 231.052 217.994 231.052Z" fill="#952F16"/>
<path d="M254.214 241.201C253.834 241.201 253.504 240.911 253.464 240.531C253.424 240.121 253.724 239.751 254.134 239.711C257.024 239.411 262.084 235.751 263.454 233.401C263.664 233.041 264.124 232.921 264.484 233.131C264.844 233.341 264.964 233.801 264.754 234.161C263.164 236.871 257.704 240.851 254.294 241.211C254.274 241.201 254.244 241.201 254.214 241.201Z" fill="#BE7345"/>
<path d="M272.694 216.802C275.698 216.802 278.134 214.366 278.134 211.362C278.134 208.357 275.698 205.922 272.694 205.922C269.689 205.922 267.254 208.357 267.254 211.362C267.254 214.366 269.689 216.802 272.694 216.802Z" fill="url(#paint2_radial)"/>
<path d="M210.804 232.001C213.808 232.001 216.244 229.566 216.244 226.561C216.244 223.557 213.808 221.121 210.804 221.121C207.799 221.121 205.364 223.557 205.364 226.561C205.364 229.566 207.799 232.001 210.804 232.001Z" fill="url(#paint3_radial)"/>
<path d="M240.054 238.693C246.564 238.713 250.674 236.143 255.104 233.183C259.534 230.223 263.004 226.503 265.424 222.853C267.614 219.543 267.544 217.113 267.544 216.753C267.544 216.393 267.424 213.493 265.194 213.423C262.964 213.353 261.764 216.143 253.944 220.753C246.124 225.363 238.504 226.583 233.214 226.443C227.924 226.293 223.844 225.383 223.844 225.383C224.134 228.583 227.024 230.673 227.684 231.003C227.684 231.003 226.054 231.963 226.264 233.583C226.264 233.583 228.134 235.263 232.394 237.103C236.274 238.763 240.054 238.693 240.054 238.693Z" fill="white"/>
<path d="M267.574 216.75C263.004 222.08 258.204 227.52 247.184 230.8C247.184 230.8 257.604 230.44 264.494 224.18C264.494 224.18 265.904 222.35 266.694 220.54C267.574 218.52 267.574 216.75 267.574 216.75Z" fill="#E6E6E6"/>
<path d="M265.054 244.832C260.624 249.012 256.364 251.262 244.284 252.842C238.784 253.562 232.884 253.152 228.244 251.612C228.244 251.612 235.884 263.642 241.514 264.902C247.134 266.162 265.054 244.832 265.054 244.832Z" fill="#E0AE7F"/>
<path d="M200.664 273.531L200.124 292.341C192.014 304.901 192.804 373.591 192.804 373.591C217.114 372.241 276.084 360.381 276.084 360.381C282.544 323.751 279.014 295.311 278.074 289.071L278.634 280.951" fill="#8E62BC"/>
<path d="M192.794 374.601C192.544 374.601 192.294 374.501 192.114 374.331C191.914 374.141 191.804 373.881 191.794 373.611C191.764 370.811 191.104 305.291 199.124 292.041L199.654 273.501C199.674 272.951 200.124 272.531 200.684 272.531C201.234 272.551 201.674 273.011 201.654 273.561L201.114 292.371C201.104 292.551 201.054 292.731 200.954 292.881C193.634 304.211 193.734 363.841 193.784 372.531C216.914 371.021 268.714 360.831 275.204 359.541C281.534 323.081 277.874 294.591 277.074 289.221C277.064 289.151 277.064 289.081 277.064 289.001L277.624 280.881C277.664 280.331 278.144 279.931 278.694 279.951C279.244 279.991 279.664 280.471 279.624 281.021L279.074 289.031C279.924 294.751 283.564 323.711 277.064 360.561C276.994 360.971 276.684 361.291 276.274 361.371C275.684 361.491 216.954 373.251 192.854 374.591C192.834 374.591 192.814 374.601 192.794 374.601Z" fill="#6F46A5"/>
<path d="M218.164 353.369C218.834 358.329 218.164 362.579 218.164 362.579L201.524 360.629V349.039L218.164 353.369Z" fill="#FFA9A2"/>
<path d="M218.784 363.41L200.774 361.29V348.07L218.834 352.77L218.904 353.27C219.584 358.28 218.934 362.53 218.904 362.7L218.784 363.41ZM202.274 359.96L217.514 361.75C217.664 360.42 217.894 357.38 217.484 353.96L202.274 350V359.96Z" fill="#F49391"/>
<path d="M229.094 348.211C229.724 351.351 231.044 357.701 230.214 360.631L217.584 361.261L217.304 351.631L229.094 348.211Z" fill="#FFA9A2"/>
<path d="M216.854 362.052L216.534 351.072L229.674 347.262L229.904 348.412C230.814 352.972 231.724 358.072 230.934 360.832L230.784 361.352L216.854 362.052ZM218.064 352.182L218.304 360.472L229.604 359.912C230.084 357.212 229.124 352.202 228.514 349.152L218.064 352.182Z" fill="#F49391"/>
<path d="M198.394 350.822C207.434 355.112 236.584 357.942 245.294 332.172C253.994 306.412 234.334 286.862 211.394 288.332C188.454 289.802 175.234 298.952 175.234 298.952L171.394 328.102L198.394 350.822Z" fill="#FFA9A2"/>
<path d="M213.374 354.362C207.074 354.362 201.414 353.082 198.074 351.502L197.914 351.402L170.594 328.422L174.534 298.532L174.804 298.342C174.934 298.252 188.464 289.052 211.344 287.592C223.464 286.812 234.804 291.722 241.714 300.722C248.434 309.472 249.954 320.732 246.004 332.422C242.934 341.512 237.154 347.912 228.814 351.442C223.824 353.552 218.394 354.362 213.374 354.362ZM198.804 350.182C204.584 352.882 217.454 354.612 228.224 350.052C236.154 346.692 241.654 340.592 244.574 331.932C248.354 320.732 246.914 309.962 240.514 301.622C233.914 293.022 223.044 288.342 211.434 289.072C190.764 290.392 177.914 298.112 175.924 299.382L172.184 327.792L198.804 350.182Z" fill="#F49391"/>
<path d="M179.234 277.723C179.234 277.723 160.894 308.503 159.524 317.033C158.154 325.563 177.244 356.063 209.394 368.233C209.394 368.233 215.884 369.833 221.194 369.833C226.204 369.833 231.174 365.383 231.174 365.383C231.174 365.383 234.834 357.503 231.174 351.413C230.484 350.263 229.104 353.543 229.104 356.653C229.104 359.763 225.254 362.633 222.144 363.283C222.144 363.283 225.584 360.173 226.074 358.703C226.564 357.233 224.414 356.323 218.164 361.283C211.914 366.243 204.094 357.103 200.364 353.303C191.564 344.343 178.504 322.443 176.624 318.103C176.624 318.103 190.554 294.913 199.314 289.093" fill="#F0C298"/>
<path d="M221.194 370.572C215.854 370.572 209.484 369.022 209.214 368.952C177.164 356.812 157.294 326.162 158.784 316.902C160.164 308.332 177.834 278.592 178.584 277.332L179.874 278.102C179.694 278.412 161.594 308.852 160.264 317.142C159.644 320.972 163.644 330.322 172.464 340.772C178.334 347.722 190.964 360.442 209.654 367.522C209.674 367.522 216.054 369.072 221.184 369.072C225.434 369.072 229.774 365.562 230.544 364.912C230.984 363.882 233.514 357.402 230.774 352.232C230.374 352.992 229.844 354.712 229.844 356.632C229.844 360.032 225.864 363.242 222.284 364.002L219.574 364.572L221.634 362.712C222.904 361.562 225.044 359.382 225.354 358.452C225.384 358.352 225.384 358.302 225.384 358.282C225.154 358.132 223.254 358.182 218.624 361.852C212.344 366.832 204.834 359.012 200.794 354.812C200.444 354.452 200.124 354.112 199.824 353.812C191.074 344.902 177.954 323.042 175.934 318.382L175.784 318.032L175.984 317.702C176.554 316.752 190.104 294.292 198.904 288.452L199.734 289.702C191.784 294.982 179.224 315.272 177.474 318.132C179.914 323.382 192.464 344.172 200.904 352.762C201.204 353.072 201.534 353.412 201.884 353.772C205.844 357.902 212.484 364.812 217.694 360.672C221.834 357.392 224.884 356.112 226.274 357.092C226.834 357.482 227.034 358.182 226.784 358.922C226.594 359.492 226.064 360.242 225.434 360.972C227.084 359.802 228.344 358.192 228.344 356.632C228.344 354.302 229.184 350.832 230.554 350.452C230.934 350.342 231.464 350.442 231.804 351.012C235.624 357.372 231.994 365.352 231.844 365.682L231.774 365.822L231.654 365.922C231.464 366.122 226.424 370.572 221.194 370.572Z" fill="#B36334"/>
<path d="M179.864 278.133C185.694 287.683 187.364 287.553 187.144 301.083C187.144 301.083 191.714 294.983 194.114 292.683C196.514 290.383 197.574 289.413 198.294 288.873L190.024 283.083L179.864 278.133Z" fill="#E2B48F"/>
<path d="M237.764 306.991C241.634 311.281 244.234 316.761 246.904 307.971C249.574 299.181 249.434 295.391 240.934 297.711C232.434 300.031 231.054 301.021 234.744 304.391L237.764 306.991Z" fill="#EF8077"/>
<path d="M243.714 313.413C242.094 313.413 240.624 311.613 238.944 309.563C238.404 308.893 237.834 308.203 237.234 307.533L234.244 304.963C232.934 303.773 231.784 302.503 232.104 301.183C232.514 299.493 234.974 298.563 240.714 296.993C244.554 295.943 246.834 296.073 248.124 297.393C249.874 299.193 249.224 302.863 247.604 308.193C246.604 311.493 245.524 313.093 244.134 313.373C243.994 313.403 243.854 313.413 243.714 313.413ZM244.944 297.803C243.954 297.803 242.674 298.013 241.114 298.443C238.394 299.183 233.834 300.433 233.564 301.533C233.464 301.963 234.024 302.733 235.234 303.843L238.304 306.493C238.934 307.193 239.524 307.913 240.094 308.613C241.484 310.323 242.924 312.093 243.834 311.903C244.264 311.823 245.124 311.173 246.164 307.763C247.394 303.723 248.354 299.793 247.044 298.443C246.644 298.013 245.944 297.803 244.944 297.803Z" fill="#E2736D"/>
<path d="M204.004 307.281C207.514 304.291 210.244 303.191 210.034 301.531C209.824 299.871 197.484 295.431 195.134 298.201C192.774 300.971 195.544 312.191 199.084 312.671C200.784 312.891 201.244 309.631 204.004 307.281Z" fill="#EF8077"/>
<path d="M199.264 313.42C199.174 313.42 199.084 313.41 198.984 313.4C196.884 313.12 195.494 310.28 194.854 308.61C193.394 304.8 192.884 299.68 194.564 297.71C196.364 295.59 201.754 296.92 203.984 297.59C205.084 297.92 210.564 299.64 210.784 301.43C210.974 302.99 209.554 304.03 207.574 305.46C206.654 306.13 205.624 306.88 204.494 307.84C203.324 308.84 202.604 310.01 201.964 311.04C201.214 312.27 200.494 313.42 199.264 313.42ZM198.054 298.05C196.884 298.05 196.054 298.27 195.704 298.68C194.584 300 194.844 304.39 196.254 308.08C197.114 310.32 198.234 311.79 199.184 311.92C199.584 311.96 200.024 311.33 200.684 310.26C201.344 309.19 202.164 307.86 203.514 306.71C204.684 305.71 205.794 304.9 206.684 304.25C208.244 303.12 209.374 302.29 209.284 301.62C208.844 300.86 203.524 298.56 199.254 298.13C198.824 298.08 198.424 298.05 198.054 298.05Z" fill="#E2736D"/>
<path d="M164.264 296.862C164.834 295.112 166.414 293.642 166.994 295.162C167.894 297.522 164.264 296.862 164.264 296.862Z" fill="#D9F4FF"/>
<path d="M225.534 338.271C233.558 338.271 240.064 332.809 240.064 326.071C240.064 319.333 233.558 313.871 225.534 313.871C217.509 313.871 211.004 319.333 211.004 326.071C211.004 332.809 217.509 338.271 225.534 338.271Z" fill="#EF8077"/>
<path d="M225.534 339.021C217.104 339.021 210.254 333.211 210.254 326.071C210.254 318.931 217.114 313.121 225.534 313.121C233.964 313.121 240.814 318.931 240.814 326.071C240.814 333.211 233.964 339.021 225.534 339.021ZM225.534 314.621C217.934 314.621 211.754 319.761 211.754 326.071C211.754 332.381 217.934 337.521 225.534 337.521C233.134 337.521 239.314 332.381 239.314 326.071C239.314 319.761 233.134 314.621 225.534 314.621Z" fill="#E2736D"/>
<path d="M223.224 330.312C224.052 330.312 224.724 328.49 224.724 326.242C224.724 323.994 224.052 322.172 223.224 322.172C222.395 322.172 221.724 323.994 221.724 326.242C221.724 328.49 222.395 330.312 223.224 330.312Z" fill="#852438"/>
<path d="M232.184 330.312C233.012 330.312 233.684 328.49 233.684 326.242C233.684 323.994 233.012 322.172 232.184 322.172C231.355 322.172 230.684 323.994 230.684 326.242C230.684 328.49 231.355 330.312 232.184 330.312Z" fill="#852438"/>
<path d="M217.564 313.913C217.274 313.913 217.004 313.743 216.874 313.463C216.124 311.773 214.674 311.423 213.874 311.363C212.474 311.263 211.014 311.863 210.424 312.783C210.204 313.133 209.734 313.233 209.384 313.013C209.034 312.793 208.934 312.323 209.154 311.973C210.044 310.583 212.024 309.703 213.984 309.853C215.914 309.993 217.464 311.083 218.244 312.843C218.414 313.223 218.244 313.663 217.864 313.833C217.764 313.893 217.664 313.913 217.564 313.913Z" fill="#852438"/>
<path d="M233.814 314.271C233.774 314.271 233.734 314.271 233.684 314.261C233.274 314.191 233.004 313.801 233.074 313.401C233.354 311.751 234.744 310.491 236.544 310.271C238.044 310.081 239.984 310.681 240.954 312.901C241.124 313.281 240.944 313.721 240.564 313.891C240.184 314.061 239.744 313.881 239.574 313.501C239.034 312.261 237.964 311.611 236.724 311.761C235.784 311.871 234.744 312.501 234.554 313.651C234.494 314.011 234.174 314.271 233.814 314.271Z" fill="#852438"/>
<path d="M190.644 311.341C188.814 316.871 188.204 329.081 191.784 333.381C193.424 335.351 187.104 335.631 186.404 322.171C185.834 311.311 191.314 309.231 190.644 311.341Z" fill="white"/>
<path d="M191.544 337.63C192.854 337.51 194.614 338.61 194.434 340C194.244 341.4 193.494 341.75 192.324 341.24C191.154 340.73 189.444 337.82 191.544 337.63Z" fill="white"/>
<path d="M213.074 288.633C213.074 284.273 216.564 280.203 220.934 280.203C225.304 280.203 228.834 283.743 228.834 288.103C228.834 291.353 226.864 294.153 224.054 295.363C224.044 295.353 220.614 289.963 213.074 288.633Z" fill="#DF8950"/>
<path d="M212.364 289.242C212.364 284.982 215.774 281.012 220.034 281.012C224.294 281.012 227.744 284.462 227.744 288.722C227.744 291.902 225.824 294.632 223.074 295.812C223.074 295.802 219.734 290.542 212.364 289.242Z" fill="#FDA73A"/>
<path d="M222.884 296.432L222.654 296.072C222.624 296.022 219.324 290.982 212.274 289.732L211.864 289.662V289.242C211.864 284.512 215.604 280.512 220.034 280.512C224.564 280.512 228.244 284.192 228.244 288.722C228.244 292.012 226.294 294.972 223.274 296.272L222.884 296.432ZM212.874 288.832C219.054 290.072 222.344 293.962 223.244 295.182C225.684 293.972 227.244 291.472 227.244 288.722C227.244 284.742 224.014 281.512 220.034 281.512C216.344 281.512 213.084 284.882 212.874 288.832Z" fill="#FCC25A"/>
<path d="M220.034 292.873C219.754 292.873 219.534 292.653 219.534 292.373C219.534 292.093 219.754 291.873 220.034 291.873C221.384 291.873 221.424 291.353 221.484 290.573C221.554 289.743 220.584 289.443 219.764 289.323L219.614 289.303C218.764 289.193 217.354 289.003 217.354 287.233C217.354 285.613 218.534 284.623 219.634 284.503C220.394 284.423 221.214 284.683 221.774 285.183C222.284 285.643 222.554 286.263 222.554 286.963C222.554 287.243 222.334 287.463 222.054 287.463C221.774 287.463 221.554 287.243 221.554 286.963C221.554 286.543 221.404 286.193 221.104 285.923C220.754 285.613 220.224 285.443 219.744 285.493C219.204 285.553 218.354 286.073 218.354 287.233C218.354 288.053 218.734 288.183 219.744 288.313L219.894 288.333C222.364 288.673 222.514 290.063 222.474 290.653C222.414 291.433 222.304 292.873 220.034 292.873Z" fill="#F5D982"/>
<path d="M268.454 290.25L260.924 358.68L272.104 358.81L279.894 291.11L268.454 290.25Z" fill="#EFD259"/>
<path d="M302.984 279.219C306.894 285.989 320.624 314.789 321.384 318.409C322.144 322.029 314.584 339.249 304.594 352.559L282.984 357.719C282.984 357.719 303.294 325.299 305.744 321.739C306.794 320.209 288.294 302.289 282.664 291.039L302.984 279.219Z" fill="#F0C298"/>
<path d="M282.984 358.47C282.744 358.47 282.514 358.36 282.374 358.16C282.194 357.91 282.184 357.58 282.344 357.32C283.164 356.02 302.124 325.76 305.004 321.49C304.634 320.42 301.354 316.6 298.174 312.9C292.714 306.54 285.224 297.84 281.994 291.38C281.814 291.03 281.944 290.6 282.284 290.4L302.594 278.58C302.764 278.48 302.974 278.45 303.164 278.5C303.354 278.55 303.524 278.68 303.624 278.85C307.304 285.22 321.314 314.45 322.114 318.26C322.984 322.42 314.944 340.02 305.194 353.02C305.094 353.16 304.944 353.26 304.764 353.3L283.154 358.46C283.104 358.46 283.044 358.47 282.984 358.47ZM283.664 291.33C286.974 297.56 294.074 305.83 299.314 311.92C305.864 319.54 307.084 321.12 306.364 322.17C304.264 325.23 288.674 350.06 284.594 356.57L304.154 351.9C313.934 338.77 321.344 321.88 320.644 318.57C319.934 315.2 307.154 288.25 302.694 280.26L283.664 291.33Z" fill="#B36334"/>
<path d="M296.364 309.4C295.524 306.01 293.514 292.81 303.914 282.23L287.484 287.71L284.954 294.06L290.124 301.85L296.364 309.4Z" fill="#E2B48F"/>
<path d="M300.014 300.643L295.984 335.733L282.904 356.603L281.494 356.903L288.474 299.023L300.014 300.643Z" fill="#C12F56"/>
<path d="M277.914 284.55L282.944 294.84L306.224 279.51C292.954 244.58 269.704 244.54 265.614 248.07C258.654 254.08 252.404 263.48 241.414 263.48C233.014 263.48 228.044 255.14 222.744 249.85C217.444 244.56 201.614 244.72 191.774 255.24C181.924 265.76 177.044 275.19 177.044 275.19C177.044 275.19 198.654 288.67 202.504 289.71C202.504 289.71 208.284 287.19 210.874 277.35" fill="#8E62BC"/>
<path d="M282.944 295.85C282.854 295.85 282.764 295.84 282.684 295.81C282.404 295.73 282.174 295.54 282.054 295.28L277.024 284.99C276.784 284.49 276.984 283.89 277.484 283.65C277.984 283.41 278.574 283.61 278.824 284.11L283.354 293.38L305.014 279.12C296.124 256.29 283.464 249.99 276.674 248.26C271.194 246.87 267.394 247.87 266.284 248.83C264.744 250.16 263.254 251.64 261.674 253.21C256.374 258.49 250.354 264.48 241.424 264.48C234.414 264.48 229.674 259.08 225.484 254.32C224.304 252.97 223.184 251.7 222.044 250.57C220.004 248.54 216.114 247.37 211.634 247.45C204.514 247.58 197.364 250.75 192.504 255.93C184.514 264.47 179.784 272.36 178.374 274.85C184.644 278.74 198.794 287.32 202.404 288.63C203.574 287.95 207.814 285.01 209.894 277.09C210.034 276.56 210.584 276.24 211.114 276.38C211.644 276.52 211.964 277.07 211.824 277.6C209.144 287.8 203.144 290.52 202.894 290.63C202.684 290.72 202.454 290.74 202.234 290.68C198.284 289.62 177.394 276.6 176.504 276.05C176.064 275.77 175.904 275.2 176.144 274.74C176.344 274.35 181.204 265.07 191.034 254.57C196.324 248.91 203.824 245.59 211.584 245.45C216.674 245.35 220.984 246.71 223.444 249.15C224.634 250.33 225.774 251.63 226.974 253C231.074 257.66 235.304 262.48 241.404 262.48C249.514 262.48 254.964 257.05 260.244 251.79C261.844 250.19 263.364 248.69 264.954 247.31C266.714 245.79 271.274 244.83 277.144 246.32C284.394 248.15 297.924 254.86 307.154 279.15C307.324 279.59 307.164 280.08 306.774 280.34L283.494 295.67C283.334 295.79 283.134 295.85 282.944 295.85Z" fill="#6F46A5"/>
<path d="M262.134 253.163C267.164 251.813 283.534 254.713 296.804 265.833C296.804 265.833 292.034 253.183 277.804 248.153C266.474 244.143 262.134 253.163 262.134 253.163Z" fill="#A17DD1"/>
<path d="M220.904 252.252C209.504 250.482 193.724 259.332 186.794 265.412C186.794 265.412 191.724 249.862 207.244 248.002C217.894 246.732 220.904 252.252 220.904 252.252Z" fill="#A17DD1"/>
<path d="M288.474 299.021L281.874 356.821L272.104 358.811L279.224 297.051L287.434 297.491L288.474 299.021Z" fill="#007A31"/>
<path d="M261.204 349.781C258.664 350.761 255.854 357.441 257.734 362.541L271.754 359.991C271.754 359.991 267.824 355.021 265.044 354.691C262.264 354.361 262.994 357.561 265.374 358.461C265.374 358.461 261.884 358.321 260.634 356.871C259.904 356.021 264.314 350.271 261.204 349.781Z" fill="#F0C298"/>
<path d="M257.744 363.303C257.434 363.303 257.154 363.113 257.044 362.813C255.014 357.303 257.994 350.233 260.944 349.093C261.064 349.043 261.204 349.033 261.334 349.053C262.214 349.193 262.634 349.653 262.834 350.023C263.504 351.253 262.694 353.123 261.974 354.773C261.734 355.333 261.374 356.153 261.314 356.503C261.684 356.853 262.284 357.113 262.914 357.303C262.564 356.673 262.414 355.993 262.574 355.373C262.664 354.983 263.124 353.733 265.144 353.963C268.154 354.313 271.934 359.013 272.354 359.543C272.514 359.753 272.564 360.023 272.464 360.273C272.374 360.523 272.154 360.703 271.894 360.743L257.874 363.293C257.824 363.293 257.784 363.303 257.744 363.303ZM261.284 350.573C259.374 351.603 256.934 357.133 258.244 361.693L270.354 359.493C268.954 357.923 266.594 355.633 264.964 355.443C264.654 355.403 264.104 355.393 264.024 355.713C263.894 356.233 264.474 357.313 265.644 357.763C265.984 357.893 266.184 358.253 266.114 358.613C266.044 358.973 265.734 359.243 265.344 359.213C264.954 359.193 261.484 359.013 260.064 357.363C259.484 356.693 259.924 355.693 260.584 354.173C261.044 353.103 261.824 351.323 261.504 350.743C261.494 350.703 261.454 350.633 261.284 350.573Z" fill="#B36334"/>
<path d="M287.774 305.191L299.314 306.751L298.364 314.991L286.834 313.421L287.774 305.191Z" fill="#CEA3CE"/>
<path d="M268.154 292.95C268.154 292.91 279.524 294.4 279.524 294.4L278.674 301.85L267.374 300.1L268.154 292.95Z" fill="#F9E487"/>
<path d="M267.174 301.852L278.484 303.492L278.254 305.512L267.024 303.232L267.174 301.852Z" fill="#F9E487"/>
<path d="M288.254 300.981L278.934 299.621L278.674 301.851L287.944 303.681L288.254 300.981Z" fill="#58A174"/>
<path d="M242.714 276.75L245.604 283.41H251.994L247.354 288.71L248.594 295.18L242.714 291.65L237.024 295.57L238.394 288.38L233.234 283.74L239.574 283.54L242.714 276.75Z" fill="#514A6C"/>
<path d="M219.954 285.492C219.674 285.492 219.454 285.272 219.454 284.992V284.062C219.454 283.782 219.674 283.562 219.954 283.562C220.234 283.562 220.454 283.782 220.454 284.062V284.992C220.454 285.262 220.234 285.492 219.954 285.492Z" fill="#F5D982"/>
<path d="M211.114 289.63C211.564 288.68 213.954 288.96 213.954 288.96C213.954 288.96 219.224 289.29 223.254 295.13L223.774 297.05L220.294 295.58L211.114 289.63Z" fill="#FFA9A2"/>
<defs>
<linearGradient id="paint0_linear" x1="198" y1="222.5" x2="214.424" y2="201.836" gradientUnits="userSpaceOnUse">
<stop stop-color="white"/>
<stop offset="1" stop-color="white" stop-opacity="0"/>
</linearGradient>
<linearGradient id="paint1_linear" x1="243" y1="213.297" x2="258.789" y2="192.791" gradientUnits="userSpaceOnUse">
<stop stop-color="white"/>
<stop offset="1" stop-color="white" stop-opacity="0"/>
</linearGradient>
<radialGradient id="paint2_radial" cx="0" cy="0" r="1" gradientUnits="userSpaceOnUse" gradientTransform="translate(272.693 211.36) scale(5.4353)">
<stop stop-color="#F5998E"/>
<stop offset="1" stop-color="#F5998E" stop-opacity="0"/>
</radialGradient>
<radialGradient id="paint3_radial" cx="0" cy="0" r="1" gradientUnits="userSpaceOnUse" gradientTransform="translate(210.8 226.564) scale(5.4353)">
<stop stop-color="#F5998E"/>
<stop offset="1" stop-color="#F5998E" stop-opacity="0"/>
</radialGradient>
</defs>
</svg>
